{"glyphs":{"0":{"ha":766,"x_min":76,"x_max":692,"o":"m 277 637 l 277 259 q 297 184 275 208 q 384 161 320 160 q 471 184 448 160 q 491 259 492 208 l 491 637 q 471 712 492 689 q 384 735 448 736 q 297 712 320 736 q 277 637 275 689 l 277 637 m 690 665 l 690 232 q 663 106 692 161 q 568 19 635 52 q 384 -14 500 -14 q 199 19 267 -14 q 104 106 133 52 q 77 232 76 161 l 77 665 q 104 791 76 735 q 199 878 133 845 q 384 910 267 910 q 568 878 500 910 q 663 791 635 845 q 690 665 692 735 l 690 665 z "},"1":{"ha":540,"x_min":0,"x_max":444,"o":"m 444 0 l 243 0 l 243 665 l 87 581 l 0 746 l 263 897 l 444 897 l 444 0 l 444 0 z "},"2":{"ha":699,"x_min":56,"x_max":629,"o":"m 494 347 l 494 347 q 410 247 445 288 q 345 175 374 206 l 629 175 l 629 0 l 69 0 l 69 171 q 146 251 118 220 q 203 309 176 281 q 270 384 229 339 q 351 477 320 442 q 397 536 381 513 q 416 585 412 560 q 422 643 422 608 l 422 667 q 396 719 422 704 q 312 732 370 734 q 236 730 278 732 q 153 720 194 726 q 83 707 113 715 l 56 875 q 191 901 122 891 q 321 910 260 910 q 552 859 480 911 q 621 693 623 806 q 621 682 621 692 q 621 666 621 674 q 621 656 621 658 q 620 574 623 608 q 605 510 617 540 q 567 441 593 479 q 494 347 541 403 l 494 347 z "},"3":{"ha":677,"x_min":62,"x_max":609,"o":"m 122 534 l 277 534 q 366 555 342 534 q 391 620 392 575 l 391 677 q 368 734 392 720 q 278 747 342 749 q 184 743 232 747 q 87 728 138 738 l 65 886 q 179 905 123 898 q 296 910 235 910 q 475 887 411 910 q 566 818 540 864 q 590 703 591 772 l 590 637 q 568 529 590 576 q 498 453 547 483 q 582 387 556 427 q 608 282 608 347 l 608 212 q 582 92 609 142 q 486 15 555 42 q 290 -14 416 -14 q 172 -7 228 -14 q 62 16 117 0 l 84 171 q 179 157 133 161 q 283 153 225 153 q 382 170 355 152 q 407 227 408 186 l 407 290 q 382 346 407 328 q 307 363 358 363 l 122 363 l 122 534 l 122 534 z "},"4":{"ha":780,"x_min":22,"x_max":739,"o":"m 430 353 l 430 699 l 217 353 l 430 353 l 430 353 m 739 190 l 627 190 l 627 0 l 430 0 l 430 190 l 22 190 l 22 363 l 365 897 l 627 897 l 627 353 l 739 353 l 739 190 l 739 190 z "},"5":{"ha":692,"x_min":71,"x_max":631,"o":"m 430 282 l 430 282 q 422 330 430 312 q 391 355 414 347 q 324 365 368 363 q 239 368 275 366 q 172 370 203 369 q 103 372 140 370 l 103 897 l 610 897 l 610 723 l 304 723 l 304 534 q 363 532 338 533 q 429 529 391 530 q 552 498 507 524 q 613 429 595 472 q 629 331 631 387 l 629 233 q 604 99 631 153 q 510 15 578 43 q 317 -14 442 -14 q 243 -9 285 -14 q 155 1 199 -7 q 71 20 109 9 l 99 182 q 209 165 152 171 q 316 160 264 160 q 388 168 362 160 q 420 197 412 178 q 430 244 430 216 l 430 282 l 430 282 z "},"6":{"ha":719,"x_min":68,"x_max":659,"o":"m 362 159 l 362 159 q 437 179 416 159 q 457 244 458 199 l 457 305 q 437 361 457 347 q 389 374 418 376 q 324 368 355 374 q 270 350 294 361 l 270 244 q 289 178 269 197 q 362 159 309 157 l 362 159 m 362 -14 l 362 -14 q 180 23 244 -14 q 92 119 117 60 q 69 254 68 180 l 69 593 q 123 787 71 718 q 271 884 176 856 q 496 910 368 911 q 563 907 528 910 q 632 899 598 905 l 618 735 q 568 741 595 739 q 524 742 541 742 q 327 711 387 743 q 270 594 269 678 q 270 576 270 593 q 270 544 270 560 q 270 526 270 528 q 343 543 307 537 q 423 547 380 547 q 598 492 540 548 q 658 313 658 438 l 658 254 q 635 123 659 183 q 547 24 610 62 q 362 -14 481 -12 l 362 -14 z "},"7":{"ha":635,"x_min":28,"x_max":608,"o":"m 608 727 l 309 0 l 103 0 l 399 720 l 28 720 l 28 897 l 608 897 l 608 727 l 608 727 z "},"8":{"ha":742,"x_min":68,"x_max":674,"o":"m 285 614 l 285 614 q 290 581 285 594 q 315 555 296 567 q 374 529 334 544 q 433 555 415 544 q 454 581 450 567 q 457 614 458 594 l 457 681 q 441 731 458 715 q 372 747 423 747 q 301 731 319 747 q 285 681 283 715 l 285 614 l 285 614 m 263 225 l 263 225 q 286 165 262 182 q 372 151 309 149 q 456 168 433 149 q 479 225 480 186 l 479 271 q 473 309 480 293 q 444 339 468 324 q 368 373 420 354 q 294 339 316 354 q 267 309 271 324 q 263 271 262 293 l 263 225 l 263 225 m 69 293 l 69 293 q 94 381 68 342 q 186 457 119 420 q 113 529 133 491 q 92 612 91 566 l 92 689 q 118 810 91 760 q 208 884 145 859 q 372 910 269 910 q 536 884 475 910 q 624 810 597 859 q 651 689 651 760 l 651 612 q 631 526 651 563 q 556 457 609 490 q 648 382 623 420 q 673 293 674 343 l 673 222 q 643 85 673 138 q 547 9 613 34 q 372 -14 480 -14 q 195 9 262 -14 q 99 85 129 34 q 69 222 69 138 l 69 293 l 69 293 z "},"9":{"ha":712,"x_min":54,"x_max":644,"o":"m 350 738 l 350 738 q 277 718 297 738 q 256 652 255 697 l 256 591 q 277 536 256 549 q 324 522 296 521 q 388 529 358 522 q 444 547 418 536 l 444 652 q 423 719 444 700 q 350 738 403 739 l 350 738 m 350 910 l 350 910 q 533 873 469 910 q 621 777 597 837 q 643 643 644 716 l 643 304 q 590 110 643 179 q 441 12 537 41 q 217 -14 346 -15 q 145 -11 182 -14 q 81 -3 109 -7 l 92 161 q 137 156 113 159 q 190 155 163 155 q 384 186 324 153 q 444 302 445 218 q 444 320 444 304 q 444 353 444 336 q 444 370 444 369 q 369 354 407 359 q 290 350 332 350 q 115 404 174 349 q 56 583 56 458 l 56 643 q 79 773 54 713 q 167 872 103 834 q 350 910 232 909 l 350 910 z "},"":{"ha":694,"x_min":0,"x_max":594,"o":"m 0 926 l 0 0 l 594 0 l 594 926 l 0 926 m 495 827 l 495 99 l 99 99 l 99 827 l 495 827 z "}," ":{"ha":292,"x_min":0,"x_max":0,"o":""},"!":{"ha":395,"x_min":98,"x_max":297,"o":"m 297 0 l 98 0 l 98 231 l 297 231 l 297 0 l 297 0 m 256 320 l 138 320 l 98 562 l 98 952 l 297 952 l 297 562 l 256 320 l 256 320 z "},"\"":{"ha":526,"x_min":69,"x_max":457,"o":"m 320 608 l 320 952 l 457 952 l 457 608 l 320 608 l 320 608 m 69 608 l 69 952 l 208 952 l 208 608 l 69 608 l 69 608 z "},"#":{"ha":941,"x_min":49,"x_max":879,"o":"m 374 551 l 363 351 l 562 351 l 571 551 l 374 551 l 374 551 m 545 0 l 556 217 l 358 217 l 347 0 l 205 0 l 216 217 l 49 217 l 56 351 l 221 351 l 231 551 l 61 551 l 68 684 l 237 684 l 248 897 l 392 897 l 381 684 l 578 684 l 589 897 l 732 897 l 722 684 l 879 684 l 872 551 l 715 551 l 704 351 l 867 351 l 860 217 l 699 217 l 688 0 l 545 0 l 545 0 z "},"$":{"ha":697,"x_min":62,"x_max":636,"o":"m 266 -168 l 266 -12 q 163 3 213 -8 q 62 33 113 14 l 99 195 q 210 168 156 179 q 320 157 264 159 q 392 167 368 157 q 426 197 418 175 q 435 258 435 220 q 429 316 437 296 q 393 349 422 336 q 302 373 365 361 q 152 423 203 392 q 84 509 102 454 q 68 652 66 563 q 90 785 68 731 q 161 869 111 840 q 301 907 213 901 l 301 1067 l 461 1067 l 461 906 q 541 898 500 903 q 618 883 581 892 l 598 712 q 491 728 549 723 q 369 735 431 735 q 304 728 326 736 q 275 703 282 722 q 269 648 267 684 q 274 591 267 610 q 311 563 282 574 q 404 536 340 551 q 536 491 488 514 q 604 438 583 468 q 631 363 625 407 q 635 259 636 320 q 620 125 636 180 q 557 35 602 69 q 426 -8 511 3 l 426 -168 l 266 -168 l 266 -168 z "},"%":{"ha":1211,"x_min":49,"x_max":1157,"o":"m 1002 301 l 1002 301 q 987 345 1002 332 q 935 358 972 358 q 880 345 895 358 q 864 301 864 332 l 864 176 q 880 133 864 145 q 935 119 895 119 q 987 133 972 119 q 1002 176 1002 145 l 1002 301 l 1002 301 m 1156 187 l 1156 187 q 1137 84 1157 129 q 1069 12 1118 39 q 935 -14 1020 -14 q 798 12 848 -14 q 730 84 749 39 q 711 187 709 129 l 711 290 q 730 393 709 349 q 798 465 749 438 q 935 491 848 491 q 1069 465 1020 491 q 1137 393 1118 438 q 1156 290 1157 349 l 1156 187 l 1156 187 m 351 37 l 724 939 l 846 890 l 473 -14 l 351 37 l 351 37 m 340 747 l 340 747 q 326 792 342 779 q 273 804 311 806 q 218 792 235 806 q 203 747 202 779 l 203 624 q 218 579 202 593 q 273 567 235 566 q 326 579 311 566 q 340 624 342 593 l 340 747 l 340 747 m 495 635 l 495 635 q 476 532 495 576 q 408 460 457 486 q 273 433 359 434 q 137 460 186 434 q 68 532 88 486 q 49 635 49 576 l 49 736 q 68 840 49 795 q 137 911 88 886 q 273 939 186 937 q 408 911 359 937 q 476 840 457 886 q 495 736 495 795 l 495 635 l 495 635 z "},"&":{"ha":898,"x_min":83,"x_max":856,"o":"m 283 292 l 283 292 l 283 240 q 312 172 285 195 q 385 151 339 151 q 463 153 427 151 q 532 165 498 157 l 532 376 l 393 376 q 315 355 343 376 q 283 292 285 335 l 283 292 m 856 544 l 856 376 l 722 376 l 722 37 q 551 -1 639 11 q 378 -14 461 -14 q 206 18 271 -14 q 113 99 142 47 q 84 217 83 151 l 84 292 q 107 404 83 357 q 190 477 132 452 q 118 552 138 507 q 99 648 98 598 l 99 707 q 126 826 98 774 q 220 907 155 879 q 393 939 285 937 q 559 928 480 937 q 694 905 636 918 l 670 743 q 533 764 606 757 q 393 770 460 770 q 321 753 345 770 q 298 697 298 734 l 298 629 q 316 568 298 591 q 380 544 334 545 l 856 544 l 856 544 z "},"'":{"ha":277,"x_min":69,"x_max":208,"o":"m 69 608 l 69 952 l 208 952 l 208 608 l 69 608 l 69 608 z "},"(":{"ha":453,"x_min":77,"x_max":439,"o":"m 439 -130 l 292 -214 q 182 -42 231 -137 q 106 170 133 54 q 77 422 77 285 q 106 674 77 559 q 182 886 133 791 q 292 1058 231 982 l 439 975 q 353 810 389 892 q 297 632 316 727 q 277 422 277 538 q 297 212 277 307 q 353 34 316 118 q 439 -130 389 -49 l 439 -130 z "},")":{"ha":453,"x_min":14,"x_max":377,"o":"m 161 -214 l 14 -130 q 100 34 65 -49 q 157 212 137 118 q 176 422 176 307 q 157 632 176 538 q 100 810 137 727 q 14 975 65 892 l 161 1058 q 273 886 224 982 q 349 674 320 791 q 377 422 376 559 q 349 170 376 285 q 273 -42 320 54 q 161 -214 224 -137 l 161 -214 z "},"*":{"ha":648,"x_min":56,"x_max":593,"o":"m 140 514 l 236 665 l 56 665 l 56 758 l 239 758 l 140 914 l 217 966 l 324 799 l 431 966 l 509 914 l 407 758 l 593 758 l 593 665 l 411 665 l 509 514 l 430 464 l 324 628 l 218 464 l 140 514 l 140 514 z "},"+":{"ha":718,"x_min":76,"x_max":642,"o":"m 642 260 l 439 260 l 439 56 l 279 56 l 279 260 l 76 260 l 76 414 l 279 414 l 279 620 l 439 620 l 439 414 l 642 414 l 642 260 l 642 260 z "},",":{"ha":380,"x_min":77,"x_max":289,"o":"m 289 -14 l 167 -208 l 77 -156 l 156 0 l 90 0 l 90 231 l 289 231 l 289 -14 l 289 -14 z "},"-":{"ha":469,"x_min":56,"x_max":414,"o":"m 414 305 l 56 305 l 56 472 l 414 472 l 414 305 l 414 305 z "},".":{"ha":381,"x_min":91,"x_max":290,"o":"m 290 0 l 91 0 l 91 231 l 290 231 l 290 0 l 290 0 z "},"/":{"ha":642,"x_min":62,"x_max":586,"o":"m 586 939 l 240 -163 l 62 -163 l 408 939 l 586 939 l 586 939 z "},":":{"ha":381,"x_min":91,"x_max":290,"o":"m 290 404 l 91 404 l 91 635 l 290 635 l 290 404 l 290 404 m 290 0 l 91 0 l 91 231 l 290 231 l 290 0 l 290 0 z "},";":{"ha":380,"x_min":77,"x_max":289,"o":"m 289 -14 l 167 -208 l 77 -156 l 156 0 l 90 0 l 90 231 l 289 231 l 289 -14 l 289 -14 m 289 404 l 90 404 l 90 635 l 289 635 l 289 404 l 289 404 z "},"<":{"ha":787,"x_min":42,"x_max":718,"o":"m 658 -14 l 42 288 l 42 389 l 658 689 l 718 571 l 228 339 l 718 106 l 658 -14 l 658 -14 z "},"=":{"ha":730,"x_min":77,"x_max":654,"o":"m 654 146 l 77 146 l 77 281 l 654 281 l 654 146 l 654 146 m 654 416 l 77 416 l 77 549 l 654 549 l 654 416 l 654 416 z "},">":{"ha":787,"x_min":69,"x_max":745,"o":"m 745 288 l 129 -14 l 69 106 l 559 339 l 69 571 l 129 689 l 745 389 l 745 288 l 745 288 z "},"?":{"ha":674,"x_min":49,"x_max":613,"o":"m 338 316 l 225 469 q 353 570 312 533 q 403 631 392 605 q 411 692 412 656 q 385 764 412 738 q 281 788 357 788 q 182 783 233 788 q 76 766 129 776 l 49 939 q 179 959 119 952 q 302 966 240 966 q 494 935 426 966 q 587 844 560 902 q 612 703 613 784 q 605 597 612 640 q 572 517 598 555 q 490 433 545 480 q 338 316 434 387 l 338 316 m 411 0 l 212 0 l 212 231 l 411 231 l 411 0 l 411 0 z "},"@":{"ha":1002,"x_min":56,"x_max":948,"o":"m 548 429 l 582 576 q 545 586 568 582 q 502 590 521 590 q 467 576 479 590 q 450 544 454 564 l 429 446 q 433 412 423 425 q 464 400 441 400 q 509 411 483 400 q 548 429 533 420 l 548 429 m 745 138 l 781 33 q 669 -3 731 9 q 552 -14 608 -14 q 290 49 401 -12 q 118 216 179 109 q 56 463 57 323 q 113 705 57 598 q 271 875 168 812 q 518 939 376 937 q 751 884 655 937 q 898 746 848 833 q 948 557 947 661 q 920 410 948 479 q 834 296 892 340 q 684 251 776 252 q 597 273 633 252 q 545 330 559 293 q 480 302 518 312 q 406 292 441 292 q 331 320 355 292 q 307 396 307 347 q 312 442 307 416 l 332 543 q 389 654 345 614 q 513 693 433 692 q 612 680 566 692 q 705 647 658 667 l 647 372 q 665 363 652 366 q 693 359 677 359 q 766 388 738 361 q 810 460 795 415 q 823 555 823 503 q 791 686 823 625 q 690 784 758 747 q 518 823 624 822 q 342 776 418 822 q 227 648 267 730 q 184 463 186 568 q 233 270 186 350 q 362 148 281 190 q 548 106 445 106 q 648 114 601 106 q 745 138 697 123 l 745 138 z "},"A":{"ha":871,"x_min":14,"x_max":857,"o":"m 435 742 l 328 354 l 541 354 l 435 742 l 435 742 m 574 925 l 857 0 l 640 0 l 590 180 l 281 180 l 231 0 l 14 0 l 296 925 l 574 925 l 574 925 z "},"B":{"ha":795,"x_min":91,"x_max":754,"o":"m 545 248 l 545 305 q 522 363 545 343 q 457 382 499 382 l 298 382 l 298 168 l 429 168 q 511 183 479 167 q 545 248 544 199 l 545 248 m 511 610 l 511 692 q 492 739 511 722 q 429 757 472 757 l 298 757 l 298 545 l 429 545 q 491 564 469 547 q 511 610 511 582 l 511 610 m 753 221 l 753 221 q 689 61 754 121 q 486 0 623 1 l 91 0 l 91 925 l 456 925 q 661 871 600 924 q 720 722 722 817 l 720 628 q 696 541 720 578 q 617 481 671 506 q 713 422 675 467 q 753 311 751 376 l 753 221 l 753 221 z "},"C":{"ha":724,"x_min":71,"x_max":675,"o":"m 278 621 l 278 302 q 304 209 277 241 q 407 175 332 175 q 522 182 458 175 q 647 198 585 187 l 675 15 q 543 -7 608 1 q 407 -14 476 -14 q 217 22 292 -14 q 106 122 141 58 q 71 270 71 184 l 71 655 q 106 803 71 739 q 217 902 141 867 q 407 939 292 937 q 543 930 476 939 q 675 909 608 924 l 647 727 q 522 743 585 738 q 407 749 458 749 q 304 716 332 749 q 278 621 277 682 l 278 621 z "},"D":{"ha":830,"x_min":91,"x_max":762,"o":"m 553 297 l 553 628 q 528 711 555 682 q 423 741 500 741 l 298 741 l 298 184 l 423 184 q 528 213 500 184 q 553 297 555 243 l 553 297 m 761 240 l 761 240 q 731 122 762 176 q 631 34 700 68 q 449 0 562 1 l 91 0 l 91 925 l 449 925 q 631 890 562 924 q 731 803 700 857 q 761 685 762 749 l 761 240 l 761 240 z "},"E":{"ha":742,"x_min":91,"x_max":673,"o":"m 673 0 l 91 0 l 91 925 l 673 925 l 673 741 l 298 741 l 298 571 l 643 571 l 643 387 l 298 387 l 298 184 l 673 184 l 673 0 l 673 0 z "},"F":{"ha":719,"x_min":91,"x_max":678,"o":"m 298 0 l 91 0 l 91 925 l 678 925 l 678 741 l 298 741 l 298 543 l 648 543 l 648 358 l 298 358 l 298 0 l 298 0 z "},"G":{"ha":811,"x_min":71,"x_max":728,"o":"m 728 30 l 728 30 q 570 -3 651 8 q 408 -14 490 -14 q 221 22 296 -14 q 109 121 146 57 q 71 269 71 184 l 71 655 q 109 804 71 741 q 221 902 146 868 q 408 939 296 937 q 567 929 490 937 q 704 909 644 921 l 680 727 q 589 738 637 734 q 491 746 538 743 q 408 749 444 749 q 305 713 332 747 q 278 623 277 678 l 278 305 q 305 212 277 250 q 408 174 332 175 q 465 175 438 174 q 532 182 492 176 l 532 465 l 728 465 l 728 30 l 728 30 z "},"H":{"ha":895,"x_min":91,"x_max":806,"o":"m 806 0 l 598 0 l 598 372 l 298 372 l 298 0 l 91 0 l 91 925 l 298 925 l 298 556 l 598 556 l 598 925 l 806 925 l 806 0 l 806 0 z "},"I":{"ha":403,"x_min":98,"x_max":305,"o":"m 305 0 l 98 0 l 98 925 l 305 925 l 305 0 l 305 0 z "},"J":{"ha":382,"x_min":-22,"x_max":298,"o":"m 102 -293 l -22 -145 q 53 -83 28 -106 q 84 -41 76 -58 q 91 0 91 -23 l 91 925 l 298 925 l 298 -31 q 247 -159 298 -96 q 102 -293 195 -221 l 102 -293 z "},"K":{"ha":857,"x_min":91,"x_max":829,"o":"m 594 0 l 326 472 l 575 925 l 810 925 l 551 472 l 829 0 l 594 0 l 594 0 m 91 0 l 91 925 l 298 925 l 298 0 l 91 0 l 91 0 z "},"L":{"ha":693,"x_min":91,"x_max":666,"o":"m 666 0 l 91 0 l 91 925 l 298 925 l 298 184 l 666 184 l 666 0 l 666 0 z "},"M":{"ha":1092,"x_min":76,"x_max":1016,"o":"m 453 119 l 292 514 l 278 0 l 76 0 l 115 925 l 324 925 l 547 336 l 769 925 l 977 925 l 1016 0 l 814 0 l 800 514 l 639 119 l 453 119 l 453 119 z "},"N":{"ha":939,"x_min":91,"x_max":849,"o":"m 591 0 l 289 608 l 289 0 l 91 0 l 91 925 l 346 925 l 650 288 l 650 925 l 849 925 l 849 0 l 591 0 l 591 0 z "},"O":{"ha":856,"x_min":69,"x_max":787,"o":"m 578 288 l 578 637 q 543 723 579 692 q 429 754 506 753 q 315 723 350 753 q 278 637 278 692 l 278 288 q 315 202 278 232 q 429 171 350 171 q 543 202 506 171 q 578 288 579 232 l 578 288 m 787 655 l 787 269 q 751 133 787 198 q 637 28 716 69 q 429 -14 557 -12 q 220 28 298 -12 q 104 133 141 69 q 71 269 69 198 l 71 655 q 104 791 69 727 q 220 897 141 854 q 429 939 298 937 q 637 897 557 937 q 751 791 716 854 q 787 655 787 727 l 787 655 z "},"P":{"ha":811,"x_min":91,"x_max":779,"o":"m 568 563 l 568 643 q 545 716 570 693 q 457 741 522 741 l 298 741 l 298 461 l 457 461 q 548 487 525 461 q 568 563 571 513 l 568 563 m 777 541 l 777 541 q 701 346 779 411 q 457 281 625 281 l 298 281 l 298 0 l 91 0 l 91 925 l 468 925 q 648 895 581 925 q 747 807 716 865 q 777 662 777 749 l 777 541 l 777 541 z "},"Q":{"ha":856,"x_min":69,"x_max":787,"o":"m 578 288 l 578 637 q 543 723 579 692 q 429 754 506 753 q 315 723 350 753 q 278 637 278 692 l 278 288 q 315 202 278 232 q 429 171 350 171 q 543 202 506 171 q 578 288 579 232 l 578 288 m 465 -245 l 368 -11 q 194 42 260 0 q 99 144 129 83 q 71 269 69 203 l 71 655 q 104 791 69 727 q 220 897 141 854 q 429 939 298 937 q 637 897 557 937 q 751 791 716 854 q 787 655 787 727 l 787 269 q 766 163 787 214 q 700 71 745 111 q 581 7 654 30 l 655 -167 l 465 -245 l 465 -245 z "},"R":{"ha":892,"x_min":91,"x_max":872,"o":"m 575 570 l 575 643 q 552 718 576 694 q 464 741 526 741 l 298 741 l 298 468 l 464 468 q 553 492 529 468 q 575 570 576 517 l 575 570 m 625 0 l 420 288 l 298 288 l 298 0 l 91 0 l 91 925 l 475 925 q 655 895 587 925 q 754 807 723 865 q 784 662 784 749 l 784 548 q 751 404 784 461 q 648 316 719 346 l 872 0 l 625 0 l 625 0 z "},"S":{"ha":755,"x_min":62,"x_max":701,"o":"m 700 259 l 700 259 q 674 107 701 168 q 574 16 647 46 q 362 -14 499 -14 q 202 3 279 -14 q 62 46 123 19 l 98 206 q 227 175 161 187 q 365 163 293 163 q 445 171 418 161 q 483 201 473 179 q 492 260 492 222 q 486 323 494 301 q 444 358 477 345 q 336 388 411 372 q 171 441 227 410 q 96 526 115 471 q 80 680 79 582 q 106 829 79 772 q 203 913 133 886 q 399 939 273 939 q 530 932 460 939 q 680 907 602 924 l 659 732 q 522 753 581 746 q 401 760 463 760 q 309 742 334 761 q 288 674 286 724 q 294 610 286 631 q 334 578 302 590 q 438 549 366 566 q 585 505 530 528 q 663 450 637 481 q 694 373 688 419 q 700 259 701 327 l 700 259 z "},"T":{"ha":739,"x_min":16,"x_max":723,"o":"m 723 741 l 473 741 l 473 0 l 266 0 l 266 741 l 16 741 l 16 925 l 723 925 l 723 741 l 723 741 z "},"U":{"ha":864,"x_min":83,"x_max":781,"o":"m 572 925 l 781 925 l 781 269 q 749 133 781 198 q 639 28 715 69 q 433 -14 562 -12 q 227 28 302 -12 q 117 133 149 69 q 84 269 83 198 l 84 925 l 292 925 l 292 289 q 323 202 290 232 q 433 171 355 171 q 541 202 510 171 q 572 289 574 232 l 572 925 l 572 925 z "},"V":{"ha":819,"x_min":0,"x_max":819,"o":"m 819 925 l 559 0 l 262 0 l 0 925 l 214 925 l 410 189 l 606 925 l 819 925 l 819 925 z "},"W":{"ha":1312,"x_min":7,"x_max":1305,"o":"m 1305 925 l 1078 0 l 812 0 l 658 703 l 500 0 l 235 0 l 7 925 l 213 925 l 370 263 l 530 925 l 785 925 l 944 263 l 1099 925 l 1305 925 l 1305 925 z "},"X":{"ha":850,"x_min":28,"x_max":822,"o":"m 812 925 l 543 469 l 822 0 l 605 0 l 426 305 l 245 0 l 28 0 l 308 469 l 38 925 l 256 925 l 426 633 l 595 925 l 812 925 l 812 925 z "},"Y":{"ha":784,"x_min":0,"x_max":784,"o":"m 784 925 l 496 266 l 496 0 l 288 0 l 288 266 l 0 925 l 218 925 l 392 495 l 566 925 l 784 925 l 784 925 z "},"Z":{"ha":787,"x_min":69,"x_max":718,"o":"m 711 754 l 308 171 l 718 171 l 718 0 l 69 0 l 69 170 l 476 754 l 88 754 l 88 925 l 711 925 l 711 754 l 711 754 z "},"[":{"ha":444,"x_min":104,"x_max":416,"o":"m 416 -175 l 104 -175 l 104 1097 l 416 1097 l 416 937 l 305 937 l 305 -15 l 416 -15 l 416 -175 l 416 -175 z "},"\\":{"ha":642,"x_min":56,"x_max":579,"o":"m 401 -163 l 56 939 l 233 939 l 579 -163 l 401 -163 l 401 -163 z "},"]":{"ha":444,"x_min":28,"x_max":339,"o":"m 339 -175 l 28 -175 l 28 -15 l 140 -15 l 140 937 l 28 937 l 28 1097 l 339 1097 l 339 -175 l 339 -175 z "},"^":{"ha":647,"x_min":49,"x_max":600,"o":"m 600 582 l 480 510 l 323 788 l 165 510 l 49 582 l 259 952 l 387 952 l 600 582 l 600 582 z "},"_":{"ha":617,"x_min":-1,"x_max":618,"o":"m 618 -119 l -1 -119 l -1 -14 l 618 -14 l 618 -119 l 618 -119 z "},"`":{"ha":430,"x_min":77,"x_max":361,"o":"m 361 850 l 292 746 q 186 807 235 777 q 77 876 137 837 l 152 993 q 259 918 206 952 q 361 850 311 883 l 361 850 z "},"a":{"ha":693,"x_min":69,"x_max":618,"o":"m 416 165 l 416 243 l 321 243 q 275 232 289 243 q 262 194 260 221 q 274 153 260 167 q 316 141 286 141 q 370 148 346 141 q 416 165 395 155 l 416 165 m 617 0 l 453 0 l 439 43 q 331 -1 380 11 q 245 -14 281 -15 q 145 14 183 -14 q 88 87 106 41 q 69 191 69 133 q 118 338 69 293 q 271 381 167 382 l 416 381 l 416 433 q 410 487 418 467 q 376 517 401 507 q 297 525 350 525 q 208 521 252 525 q 114 506 161 515 l 88 656 q 161 673 121 666 q 247 685 203 681 q 331 689 292 689 q 509 665 446 689 q 594 582 571 639 q 617 431 618 525 l 617 0 l 617 0 z "},"b":{"ha":746,"x_min":91,"x_max":692,"o":"m 290 479 l 290 163 q 332 160 312 160 q 373 160 351 160 q 448 174 422 160 q 483 213 473 187 q 491 269 491 237 l 491 444 q 475 496 491 477 q 418 515 457 515 q 353 505 385 515 q 290 479 319 494 l 290 479 m 690 270 l 690 270 q 680 159 692 210 q 633 68 667 107 q 534 8 598 30 q 366 -14 469 -14 q 236 -8 309 -14 q 91 8 161 -3 l 91 952 l 290 981 l 290 652 q 380 678 331 667 q 483 689 427 689 q 643 624 594 688 q 690 445 692 560 l 690 270 l 690 270 z "},"c":{"ha":564,"x_min":47,"x_max":522,"o":"m 250 418 l 250 258 q 274 182 248 206 q 359 157 300 157 q 430 161 397 157 q 498 174 463 165 l 522 7 q 433 -9 472 -4 q 359 -14 393 -14 q 122 52 195 -15 q 49 260 47 117 l 49 415 q 122 624 47 559 q 359 689 195 690 q 433 685 393 689 q 522 669 472 680 l 498 502 q 427 514 465 509 q 359 518 389 518 q 274 494 300 518 q 250 418 248 469 l 250 418 z "},"d":{"ha":746,"x_min":56,"x_max":656,"o":"m 456 212 l 456 499 q 395 510 429 506 q 328 515 361 515 q 273 494 289 515 q 256 439 255 473 l 256 236 q 273 180 255 201 q 328 160 289 160 q 399 176 363 160 q 456 212 433 193 l 456 212 m 56 236 l 56 236 l 56 439 q 110 624 56 560 q 283 689 165 689 q 373 684 327 689 q 456 670 420 678 l 456 952 l 656 981 l 656 0 l 499 0 l 479 54 q 384 8 441 30 q 270 -14 327 -12 q 111 49 167 -14 q 56 236 57 113 l 56 236 z "},"e":{"ha":675,"x_min":54,"x_max":621,"o":"m 431 418 l 431 446 q 415 507 433 483 q 347 533 399 532 q 275 507 296 532 q 256 446 255 483 l 256 418 l 431 418 l 431 418 m 620 267 l 256 267 l 256 248 q 282 170 255 191 q 378 151 311 149 q 481 157 426 151 q 585 179 537 165 l 613 30 q 499 0 566 12 q 359 -14 431 -14 q 125 61 195 -12 q 56 260 54 134 l 56 419 q 81 553 56 492 q 171 651 107 614 q 346 689 235 689 q 517 650 457 688 q 600 547 576 610 q 620 410 621 484 l 620 267 l 620 267 z "},"f":{"ha":513,"x_min":28,"x_max":513,"o":"m 513 960 l 487 804 q 442 811 467 808 q 399 814 416 814 q 353 804 368 814 q 334 780 338 796 q 331 742 330 764 l 331 662 l 490 662 l 476 498 l 331 498 l 331 0 l 130 0 l 130 498 l 28 498 l 28 662 l 130 662 l 130 764 q 183 924 130 868 q 359 981 237 979 q 437 975 401 981 q 513 960 473 970 l 513 960 z "},"g":{"ha":673,"x_min":49,"x_max":652,"o":"m 326 330 l 326 330 q 395 346 374 330 q 416 396 416 362 l 416 461 q 396 513 416 494 q 326 532 376 532 q 255 513 275 532 q 235 461 235 494 l 235 396 q 256 346 235 362 q 326 330 277 330 l 326 330 m 49 387 l 49 469 q 114 631 50 572 q 326 689 178 688 q 388 685 359 689 q 441 675 416 682 l 652 675 l 652 582 l 583 556 q 597 514 593 536 q 602 469 601 492 l 602 387 q 533 231 602 289 q 326 172 465 174 l 305 172 q 285 157 293 165 q 275 134 275 149 q 282 115 275 123 q 297 107 288 109 q 370 99 342 102 q 420 94 399 96 q 467 90 442 92 q 590 47 551 84 q 629 -75 631 11 q 595 -202 629 -156 q 492 -269 562 -248 q 319 -288 423 -288 q 239 -283 285 -288 q 144 -273 193 -279 q 49 -252 94 -264 l 79 -107 q 197 -127 140 -121 q 301 -134 255 -134 q 412 -127 378 -136 q 446 -85 448 -118 q 435 -60 448 -66 q 393 -49 423 -52 q 334 -43 357 -45 q 286 -38 311 -41 q 221 -33 262 -37 q 142 -16 175 -27 q 94 19 111 -5 q 77 90 77 45 q 94 160 77 130 q 136 213 110 189 q 71 283 92 240 q 49 387 49 327 l 49 387 z "},"h":{"ha":768,"x_min":91,"x_max":686,"o":"m 685 0 l 486 0 l 486 446 q 473 483 486 469 q 437 495 463 495 q 366 479 408 494 q 290 445 324 463 l 290 0 l 91 0 l 91 952 l 288 981 l 288 627 q 411 673 350 655 q 530 689 471 689 q 651 629 614 688 q 685 473 686 572 l 685 0 l 685 0 z "},"i":{"ha":381,"x_min":91,"x_max":290,"o":"m 290 0 l 91 0 l 91 675 l 290 675 l 290 0 l 290 0 m 290 761 l 91 761 l 91 972 l 290 972 l 290 761 l 290 761 z "},"j":{"ha":366,"x_min":-20,"x_max":283,"o":"m 100 -288 l -20 -157 q 56 -81 27 -115 q 84 -5 83 -49 l 84 675 l 283 675 l 283 -31 q 239 -151 283 -91 q 100 -288 193 -212 l 100 -288 m 283 761 l 84 761 l 84 972 l 283 972 l 283 761 l 283 761 z "},"k":{"ha":732,"x_min":91,"x_max":711,"o":"m 317 340 l 490 675 l 703 675 l 525 340 l 711 0 l 498 0 l 317 340 l 317 340 m 290 0 l 91 0 l 91 952 l 290 981 l 290 0 l 290 0 z "},"l":{"ha":381,"x_min":91,"x_max":290,"o":"m 290 0 l 91 0 l 91 952 l 290 981 l 290 0 l 290 0 z "},"m":{"ha":1162,"x_min":91,"x_max":1081,"o":"m 685 0 l 486 0 l 486 446 q 473 481 486 469 q 437 495 463 495 q 366 479 408 494 q 290 446 324 465 l 290 0 l 91 0 l 91 675 l 239 675 l 260 624 q 350 659 302 644 q 444 681 397 673 q 530 689 490 689 q 605 673 575 689 q 654 624 636 655 q 783 670 712 652 q 925 689 853 689 q 1046 629 1009 688 q 1080 472 1081 572 l 1080 0 l 880 0 l 880 446 q 868 481 880 469 q 831 495 857 495 q 761 479 803 494 q 685 446 719 465 l 685 0 l 685 0 z "},"n":{"ha":768,"x_min":91,"x_max":686,"o":"m 685 0 l 486 0 l 486 446 q 473 483 486 469 q 437 495 463 495 q 366 480 408 495 q 290 446 324 465 l 290 0 l 91 0 l 91 675 l 239 675 l 260 624 q 350 659 302 644 q 444 681 397 674 q 530 689 490 689 q 651 629 614 688 q 685 473 686 572 l 685 0 l 685 0 z "},"o":{"ha":722,"x_min":56,"x_max":667,"o":"m 362 155 l 362 155 q 441 180 415 155 q 467 254 467 206 l 467 422 q 441 495 467 469 q 362 521 415 521 q 282 495 308 521 q 256 422 256 469 l 256 254 q 282 180 256 206 q 362 155 308 155 l 362 155 m 362 -14 l 362 -14 q 175 26 243 -12 q 81 127 109 65 q 56 259 56 189 l 56 416 q 81 548 56 487 q 175 650 109 610 q 362 689 243 688 q 548 650 480 688 q 642 548 614 610 q 667 416 667 487 l 667 259 q 642 127 667 189 q 548 26 614 65 q 362 -14 480 -12 l 362 -14 z "},"p":{"ha":746,"x_min":91,"x_max":692,"o":"m 290 464 l 290 176 q 351 165 317 170 q 418 160 387 160 q 475 182 457 160 q 491 236 491 202 l 491 439 q 475 495 491 475 q 418 515 457 515 q 349 499 382 515 q 290 464 313 483 l 290 464 m 690 439 l 690 439 l 690 236 q 636 52 692 115 q 463 -14 581 -14 q 373 -8 420 -14 q 290 5 327 -3 l 290 -273 l 91 -301 l 91 675 l 247 675 l 269 621 q 362 667 305 646 q 477 689 420 688 q 635 627 581 689 q 690 439 690 563 l 690 439 z "},"q":{"ha":746,"x_min":56,"x_max":656,"o":"m 456 197 l 456 513 q 415 515 434 515 q 374 515 395 515 q 298 502 324 515 q 264 463 274 488 q 256 407 255 438 l 256 232 q 273 179 255 198 q 328 160 289 160 q 395 171 361 160 q 456 197 427 182 l 456 197 m 56 406 l 56 406 q 68 517 56 465 q 114 608 80 568 q 213 667 148 646 q 381 689 277 689 q 519 682 446 689 q 656 666 593 677 l 656 -273 l 456 -301 l 456 23 q 368 -3 415 8 q 264 -14 320 -14 q 104 52 153 -12 q 56 231 56 115 l 56 406 l 56 406 z "},"r":{"ha":479,"x_min":91,"x_max":469,"o":"m 469 500 l 469 500 q 374 458 423 483 q 290 412 324 435 l 290 0 l 91 0 l 91 675 l 258 675 l 271 610 q 324 640 293 624 q 391 670 357 656 q 453 689 426 684 l 469 500 l 469 500 z "},"s":{"ha":601,"x_min":56,"x_max":555,"o":"m 553 201 l 553 201 q 530 84 553 132 q 453 11 507 35 q 301 -14 397 -14 q 220 -8 264 -14 q 133 5 176 -3 q 56 26 91 15 l 88 175 q 183 153 130 161 q 292 144 235 144 q 349 157 335 144 q 361 201 362 171 q 357 233 362 222 q 328 255 351 245 q 252 275 305 263 q 133 320 171 296 q 83 385 94 346 q 73 487 72 425 q 95 602 72 559 q 174 669 118 647 q 331 689 231 689 q 393 686 357 689 q 468 680 430 685 q 536 667 506 674 l 518 511 q 423 526 472 521 q 332 532 373 532 q 274 519 289 532 q 260 486 259 509 q 264 454 259 465 q 288 435 270 444 q 346 420 307 429 q 486 374 441 400 q 543 308 530 349 q 553 201 555 267 l 553 201 z "},"t":{"ha":500,"x_min":22,"x_max":467,"o":"m 461 11 l 461 11 q 389 -7 427 0 q 317 -14 353 -14 q 167 26 220 -15 q 113 160 114 66 l 113 514 l 22 514 l 22 675 l 113 675 l 113 838 l 313 867 l 313 675 l 467 675 l 456 514 l 313 514 l 313 187 q 324 159 313 167 q 354 149 335 149 q 393 152 372 149 q 438 163 415 155 l 461 11 l 461 11 z "},"u":{"ha":768,"x_min":83,"x_max":678,"o":"m 84 675 l 283 675 l 283 229 q 296 193 283 206 q 332 180 307 180 q 403 195 361 180 q 477 229 444 210 l 477 675 l 678 675 l 678 0 l 529 0 l 509 52 q 419 16 467 31 q 326 -5 372 1 q 239 -14 278 -14 q 118 46 155 -12 q 84 202 83 103 l 84 675 l 84 675 z "},"v":{"ha":694,"x_min":7,"x_max":688,"o":"m 688 675 l 475 0 l 220 0 l 7 675 l 210 675 l 347 197 l 486 675 l 688 675 l 688 675 z "},"w":{"ha":979,"x_min":26,"x_max":955,"o":"m 621 0 l 490 441 l 358 0 l 142 0 l 26 675 l 209 675 l 273 281 l 391 675 l 590 675 l 707 281 l 772 675 l 955 675 l 838 0 l 621 0 l 621 0 z "},"x":{"ha":684,"x_min":22,"x_max":663,"o":"m 658 675 l 448 340 l 663 0 l 461 0 l 342 187 l 222 0 l 22 0 l 236 340 l 27 675 l 224 675 l 342 491 l 460 675 l 658 675 l 658 675 z "},"y":{"ha":688,"x_min":7,"x_max":688,"o":"m 389 -274 l 201 -274 l 279 0 l 216 0 l 7 675 l 210 675 l 347 197 l 486 675 l 688 675 l 475 0 l 389 -274 l 389 -274 z "},"z":{"ha":639,"x_min":62,"x_max":583,"o":"m 64 524 l 64 675 l 575 675 l 575 524 l 294 152 l 583 152 l 583 0 l 62 0 l 62 152 l 342 524 l 64 524 l 64 524 z "},"{":{"ha":472,"x_min":56,"x_max":458,"o":"m 56 450 l 56 525 l 92 525 q 130 537 119 525 q 142 572 142 549 l 142 890 q 191 1046 142 993 q 338 1097 240 1097 l 458 1097 l 458 939 l 397 939 q 355 926 369 940 q 342 880 342 913 l 342 595 q 311 490 343 529 q 210 450 279 452 q 311 408 279 446 q 342 304 343 370 l 342 19 q 355 -27 342 -14 q 397 -39 369 -41 l 458 -39 l 458 -198 l 338 -198 q 191 -146 240 -198 q 142 9 142 -94 l 142 327 q 130 362 142 350 q 92 374 119 374 l 56 374 l 56 450 l 56 450 z "},"|":{"ha":361,"x_min":111,"x_max":251,"o":"m 251 -292 l 111 -292 l 111 1097 l 251 1097 l 251 -292 l 251 -292 z "},"}":{"ha":472,"x_min":14,"x_max":416,"o":"m 416 525 l 416 450 l 416 374 l 381 374 q 342 362 354 374 q 331 327 331 350 l 331 9 q 282 -146 331 -94 q 134 -198 233 -198 l 14 -198 l 14 -39 l 75 -39 q 117 -27 103 -41 q 130 19 130 -14 l 130 304 q 161 408 130 370 q 263 450 193 446 q 161 490 193 452 q 130 595 130 529 l 130 880 q 117 926 130 913 q 75 939 103 940 l 14 939 l 14 1097 l 134 1097 q 282 1046 233 1097 q 331 890 331 993 l 331 572 q 342 537 331 549 q 381 525 354 525 l 416 525 l 416 525 z "},"~":{"ha":640,"x_min":35,"x_max":620,"o":"m 425 259 l 425 259 q 343 282 378 260 q 279 323 307 302 q 231 346 252 345 q 176 317 197 345 q 144 259 156 292 l 35 321 q 113 449 65 403 q 231 496 160 496 q 300 475 266 495 q 366 433 335 454 q 425 411 399 412 q 464 425 446 411 q 494 457 481 438 q 511 496 505 477 l 620 434 q 578 347 604 387 q 514 283 552 308 q 425 259 476 260 l 425 259 z "},"¡":{"ha":395,"x_min":98,"x_max":297,"o":"m 98 675 l 297 675 l 297 445 l 98 445 l 98 675 l 98 675 m 138 355 l 256 355 l 297 114 l 297 -274 l 98 -274 l 98 114 l 138 355 l 138 355 z "},"¢":{"ha":591,"x_min":49,"x_max":522,"o":"m 262 -14 l 262 118 q 99 199 151 134 q 49 385 49 264 l 49 540 q 99 726 49 661 q 262 808 151 791 l 262 939 l 391 939 l 391 814 q 450 807 418 812 q 522 793 483 803 l 498 628 q 427 639 465 635 q 358 644 389 644 q 274 620 298 644 q 250 543 248 594 l 250 382 q 274 307 248 331 q 358 282 298 282 q 429 286 396 282 q 498 298 461 290 l 522 132 q 450 118 483 122 q 391 111 418 113 l 391 -14 l 262 -14 l 262 -14 z "},"£":{"ha":754,"x_min":76,"x_max":692,"o":"m 77 389 l 76 533 l 176 533 q 160 606 168 567 q 153 681 153 644 q 221 856 152 802 q 437 910 290 911 q 563 902 500 910 q 688 878 627 892 l 662 720 q 590 732 629 727 q 510 741 551 738 q 438 743 471 743 q 370 723 389 743 q 353 665 353 703 q 359 595 353 629 q 376 533 366 562 l 618 533 l 605 389 l 392 389 q 393 376 393 382 q 393 362 393 368 q 370 260 393 308 q 308 171 349 213 l 692 171 l 692 0 l 84 0 l 84 171 q 160 248 127 202 q 194 365 193 296 q 194 377 194 370 q 193 389 193 384 l 77 389 l 77 389 z "},"¤":{"ha":811,"x_min":76,"x_max":735,"o":"m 328 536 l 328 395 q 351 346 328 357 q 406 336 373 335 q 461 346 439 335 q 486 395 484 357 l 486 536 q 461 585 484 574 q 406 594 439 595 q 351 585 373 595 q 328 536 328 574 l 328 536 m 735 723 l 640 629 q 651 595 648 613 q 655 559 655 576 l 655 372 q 651 335 655 353 q 640 300 648 316 l 735 208 l 617 88 l 509 195 q 461 187 487 191 q 406 184 435 184 q 350 187 376 184 q 301 195 323 191 l 194 88 l 76 208 l 171 301 q 161 335 164 317 q 159 372 159 353 l 159 559 q 171 629 159 595 l 76 723 l 194 841 l 301 734 q 406 746 346 746 q 461 742 435 746 q 509 734 487 739 l 617 841 l 735 723 l 735 723 z "},"¥":{"ha":761,"x_min":1,"x_max":761,"o":"m 684 167 l 486 167 l 486 0 l 277 0 l 277 167 l 80 167 l 80 290 l 266 290 l 218 399 l 80 399 l 80 528 l 163 528 l 1 897 l 218 897 l 381 495 l 544 897 l 761 897 l 600 528 l 684 528 l 684 399 l 543 399 l 495 290 l 684 290 l 684 167 l 684 167 z "},"¦":{"ha":361,"x_min":111,"x_max":251,"o":"m 251 1097 l 251 518 l 111 518 l 111 1097 l 251 1097 l 251 1097 m 251 -292 l 111 -292 l 111 288 l 251 288 l 251 -292 l 251 -292 z "},"§":{"ha":743,"x_min":62,"x_max":688,"o":"m 384 644 l 540 678 q 594 484 567 587 q 642 279 620 382 q 675 80 662 175 q 688 -94 688 -16 q 636 -216 688 -174 q 486 -259 585 -259 q 393 -252 441 -259 q 301 -237 345 -245 q 229 -220 258 -228 l 254 -87 q 355 -109 298 -98 q 461 -119 412 -118 q 506 -106 492 -119 q 521 -64 521 -92 q 509 90 521 3 q 476 271 496 176 q 431 463 456 368 q 384 644 407 559 l 384 644 m 368 35 l 212 0 q 157 194 183 92 q 110 400 130 297 q 76 600 88 503 q 62 773 64 694 q 115 895 64 853 q 266 939 167 937 q 358 932 309 939 q 449 916 406 925 q 521 898 492 906 l 498 766 q 395 787 452 777 q 289 798 338 798 q 244 785 259 798 q 229 742 229 772 q 243 590 229 675 q 275 407 255 503 q 319 216 296 312 q 368 35 343 121 l 368 35 z "},"¨":{"ha":602,"x_min":77,"x_max":526,"o":"m 526 769 l 369 769 l 369 933 l 526 933 l 526 769 l 526 769 m 235 769 l 77 769 l 77 933 l 235 933 l 235 769 l 235 769 z "},"©":{"ha":1063,"x_min":56,"x_max":1009,"o":"m 191 463 l 191 463 q 233 286 191 363 q 351 163 275 209 q 533 117 429 118 q 713 163 636 118 q 831 286 789 209 q 873 463 873 363 q 831 639 873 562 q 713 762 789 718 q 533 808 636 808 q 351 762 429 808 q 233 639 275 718 q 191 463 191 562 l 191 463 m 56 463 l 56 463 q 115 703 57 595 q 281 875 175 811 q 533 940 388 939 q 784 875 677 939 q 949 703 890 811 q 1009 463 1008 595 q 949 222 1008 330 q 784 52 890 115 q 533 -14 677 -12 q 281 52 388 -12 q 115 222 175 115 q 56 463 57 330 l 56 463 m 487 519 l 487 412 q 502 363 486 378 q 555 349 518 349 q 608 351 579 349 q 663 359 635 353 l 681 237 q 618 227 654 231 q 555 222 583 222 q 391 267 442 222 q 340 400 340 313 l 340 530 q 391 662 340 617 q 555 707 442 707 q 620 703 585 707 q 681 690 655 699 l 663 570 q 608 578 639 575 q 555 582 576 582 q 502 566 518 582 q 487 519 486 551 l 487 519 z "},"ª":{"ha":524,"x_min":91,"x_max":441,"o":"m 313 631 l 313 681 l 252 681 q 222 674 231 681 q 213 650 213 667 q 221 623 213 631 q 248 616 229 614 q 283 620 269 616 q 313 631 298 624 l 313 631 m 441 525 l 335 525 l 327 552 q 258 524 289 532 q 203 517 225 517 q 118 555 144 518 q 91 647 91 591 q 122 742 91 713 q 220 769 153 770 l 313 769 l 313 803 q 300 849 315 836 q 236 863 286 863 q 179 860 208 863 q 119 850 151 856 l 102 945 q 176 960 134 955 q 258 967 218 967 q 372 951 331 967 q 426 898 411 933 q 441 802 441 861 l 441 525 l 441 525 z "},"«":{"ha":777,"x_min":62,"x_max":674,"o":"m 548 71 l 372 339 l 548 606 l 674 528 l 551 339 l 674 149 l 548 71 l 548 71 m 239 71 l 62 339 l 239 606 l 366 528 l 241 339 l 366 149 l 239 71 l 239 71 z "},"¬":{"ha":704,"x_min":56,"x_max":614,"o":"m 448 144 l 448 358 l 56 358 l 56 511 l 614 511 l 614 144 l 448 144 l 448 144 z "},"­":{"ha":856,"x_min":104,"x_max":751,"o":"m 172 800 l 172 68 l 644 68 l 172 800 l 172 800 m 684 856 l 212 856 l 684 123 l 684 856 l 684 856 m 104 0 l 104 925 l 751 925 l 751 0 l 104 0 l 104 0 z "},"®":{"ha":627,"x_min":62,"x_max":564,"o":"m 346 753 l 346 764 q 340 780 346 774 q 320 784 334 784 l 283 784 l 283 730 l 320 730 q 340 736 335 730 q 346 753 346 742 l 346 753 m 365 605 l 312 680 l 283 680 l 283 605 l 228 605 l 228 836 l 324 836 q 382 819 363 836 q 400 769 400 803 l 400 747 q 392 712 400 726 q 370 690 385 697 l 429 605 l 365 605 l 365 605 m 145 715 l 145 715 q 163 628 145 667 q 218 564 180 589 q 313 540 255 541 q 408 564 370 541 q 464 628 446 589 q 483 715 483 667 q 464 802 483 762 q 408 865 446 841 q 313 888 370 888 q 218 865 255 888 q 163 802 180 841 q 145 715 145 762 l 145 715 m 62 715 l 62 715 q 94 842 64 785 q 180 933 125 899 q 313 967 237 966 q 446 933 389 966 q 533 842 502 899 q 564 715 564 785 q 533 587 564 644 q 446 496 502 530 q 313 463 389 463 q 180 496 237 463 q 94 587 125 530 q 62 715 64 644 l 62 715 z "},"¯":{"ha":477,"x_min":62,"x_max":415,"o":"m 415 777 l 62 777 l 62 905 l 415 905 l 415 777 l 415 777 z "},"°":{"ha":518,"x_min":69,"x_max":449,"o":"m 342 724 l 342 724 q 321 789 342 764 q 260 817 301 815 q 197 789 217 815 q 176 724 176 764 q 198 661 176 686 q 260 633 218 633 q 321 661 301 633 q 342 724 342 686 l 342 724 m 449 724 l 449 724 q 426 631 449 673 q 362 564 404 589 q 260 538 320 540 q 157 564 201 540 q 92 631 115 589 q 69 724 69 673 q 92 818 71 777 q 159 886 115 860 q 260 910 201 910 q 362 886 320 910 q 426 818 404 860 q 449 724 449 777 l 449 724 z "},"±":{"ha":718,"x_min":76,"x_max":642,"o":"m 642 0 l 76 0 l 76 145 l 642 145 l 642 0 l 642 0 m 642 426 l 439 426 l 439 221 l 279 221 l 279 426 l 76 426 l 76 579 l 279 579 l 279 785 l 439 785 l 439 579 l 642 579 l 642 426 l 642 426 z "},"²":{"ha":547,"x_min":69,"x_max":464,"o":"m 389 574 l 389 574 q 336 510 358 536 q 292 460 313 484 l 464 460 l 464 338 l 84 338 l 84 445 q 123 487 106 469 q 161 526 141 506 q 212 578 182 547 q 274 644 255 623 q 297 680 293 667 q 300 705 301 692 l 300 731 q 289 768 301 758 q 247 777 277 777 q 176 770 218 777 q 96 754 134 765 l 69 882 q 165 902 117 895 q 264 910 214 910 q 374 894 334 910 q 430 841 414 876 q 446 754 446 807 l 446 709 q 437 647 448 678 q 389 574 426 617 l 389 574 z "},"³":{"ha":510,"x_min":69,"x_max":435,"o":"m 103 675 l 239 675 q 275 688 266 675 q 285 718 286 699 l 285 747 q 274 783 286 772 q 218 793 260 793 q 161 791 195 793 q 99 783 129 788 l 83 892 q 155 905 115 899 q 225 910 194 910 q 382 873 338 910 q 426 765 427 836 l 426 734 q 412 671 426 696 q 361 624 399 647 q 420 579 407 609 q 434 511 435 551 l 434 480 q 418 399 434 434 q 355 346 400 365 q 228 326 311 326 q 149 331 190 326 q 69 349 109 336 l 88 460 q 159 448 122 450 q 227 444 194 444 q 281 456 266 444 q 293 490 294 468 l 293 519 q 282 552 293 541 q 243 563 270 563 l 103 563 l 103 675 l 103 675 z "},"´":{"ha":430,"x_min":69,"x_max":354,"o":"m 140 746 l 69 850 q 172 918 121 883 q 279 993 224 952 l 354 876 q 244 807 294 837 q 140 746 195 777 l 140 746 z "},"µ":{"ha":768,"x_min":84,"x_max":678,"o":"m 84 -274 l 84 675 l 283 675 l 283 229 q 296 193 283 206 q 332 180 307 180 q 403 195 361 180 q 477 229 444 210 l 477 675 l 678 675 l 678 0 l 529 0 l 509 52 q 396 9 456 26 q 283 -11 338 -5 l 283 -274 l 84 -274 l 84 -274 z "},"¶":{"ha":747,"x_min":62,"x_max":644,"o":"m 415 -288 l 321 -179 q 419 -91 384 -122 q 469 -39 453 -58 q 488 -7 484 -22 q 491 30 491 8 l 491 925 l 643 925 l 643 7 q 636 -56 644 -30 q 605 -109 628 -81 q 537 -178 582 -136 q 415 -288 491 -218 l 415 -288 m 62 612 l 62 612 q 104 772 64 703 q 216 883 145 842 q 376 925 286 924 l 376 301 q 216 343 286 302 q 104 453 145 382 q 62 612 64 522 l 62 612 z "},"·":{"ha":381,"x_min":91,"x_max":290,"o":"m 290 353 l 91 353 l 91 583 l 290 583 l 290 353 l 290 353 z "},"¸":{"ha":397,"x_min":62,"x_max":336,"o":"m 335 -160 l 335 -160 q 301 -243 336 -213 q 179 -274 266 -273 q 122 -267 156 -274 q 62 -251 88 -260 l 83 -175 q 123 -184 100 -180 q 168 -189 146 -189 q 217 -183 201 -190 q 233 -159 233 -176 q 222 -132 233 -136 q 184 -127 210 -127 q 159 -129 175 -127 q 126 -130 144 -130 l 99 -107 l 127 27 l 216 27 l 198 -65 q 304 -79 273 -56 q 335 -160 336 -103 l 335 -160 z "},"¹":{"ha":495,"x_min":49,"x_max":363,"o":"m 363 335 l 217 335 l 217 730 l 100 674 l 49 788 l 248 897 l 363 897 l 363 335 l 363 335 z "},"º":{"ha":557,"x_min":83,"x_max":475,"o":"m 279 624 l 279 624 q 330 640 313 624 q 346 688 346 656 l 346 796 q 330 842 346 826 q 279 860 313 860 q 228 842 244 860 q 212 796 212 826 l 212 688 q 228 640 212 656 q 279 624 244 624 l 279 624 m 279 517 l 279 517 q 160 543 203 517 q 100 606 118 567 q 84 692 83 647 l 84 792 q 100 876 83 837 q 160 941 118 916 q 279 967 203 966 q 397 941 355 966 q 457 876 441 916 q 473 792 475 837 l 473 692 q 457 606 475 647 q 397 543 441 567 q 279 517 355 517 l 279 517 z "},"»":{"ha":777,"x_min":104,"x_max":716,"o":"m 407 339 l 231 71 l 104 149 l 228 339 l 104 528 l 231 606 l 407 339 l 407 339 m 716 339 l 540 71 l 412 149 l 537 339 l 412 528 l 540 606 l 716 339 l 716 339 z "},"¼":{"ha":1206,"x_min":49,"x_max":1123,"o":"m 294 -14 l 726 959 l 834 910 l 403 -61 l 294 -14 l 294 -14 m 363 335 l 217 335 l 217 730 l 100 674 l 49 788 l 248 897 l 363 897 l 363 335 l 363 335 m 902 220 l 902 445 l 791 220 l 902 220 l 902 220 m 1123 107 l 1040 107 l 1040 0 l 902 0 l 902 107 l 648 107 l 648 208 l 840 563 l 1040 563 l 1040 220 l 1123 220 l 1123 107 l 1123 107 z "},"½":{"ha":1219,"x_min":49,"x_max":1137,"o":"m 293 -14 l 724 959 l 833 910 l 401 -61 l 293 -14 l 293 -14 m 1062 236 l 1062 236 q 1009 172 1031 198 q 964 122 986 146 l 1137 122 l 1137 0 l 757 0 l 757 107 q 796 149 779 132 q 834 189 814 168 q 884 240 854 209 q 947 308 928 285 q 970 342 966 330 q 972 368 974 354 l 972 395 q 962 430 974 420 q 920 439 949 441 q 849 434 891 439 q 769 418 807 427 l 742 544 q 838 566 789 557 q 937 574 887 574 q 1047 556 1006 574 q 1103 505 1086 538 q 1119 418 1119 469 l 1119 372 q 1109 311 1120 340 q 1062 236 1099 279 l 1062 236 m 363 334 l 217 334 l 217 730 l 100 674 l 49 788 l 248 897 l 363 897 l 363 334 l 363 334 z "},"¾":{"ha":1229,"x_min":62,"x_max":1146,"o":"m 315 -14 l 745 959 l 853 910 l 425 -61 l 315 -14 l 315 -14 m 925 220 l 925 444 l 814 220 l 925 220 l 925 220 m 1146 107 l 1065 107 l 1065 0 l 925 0 l 925 107 l 671 107 l 671 208 l 863 562 l 1065 562 l 1065 220 l 1146 220 l 1146 107 l 1146 107 m 96 671 l 232 671 q 269 684 259 671 q 278 713 279 694 l 278 746 q 267 783 279 772 q 212 793 254 793 q 174 793 195 793 q 130 789 152 792 q 92 784 109 788 l 76 894 q 144 905 104 901 q 218 910 182 910 q 376 873 331 910 q 419 765 420 836 l 419 732 q 406 670 419 694 q 354 623 392 646 q 414 578 400 608 q 427 510 429 549 l 427 480 q 411 399 427 433 q 349 345 393 363 q 221 326 304 326 q 142 331 183 326 q 62 349 102 336 l 81 456 q 163 446 118 449 q 243 444 209 444 q 278 456 267 445 q 286 484 288 467 l 286 525 q 275 556 286 547 q 243 564 264 564 l 96 564 l 96 671 l 96 671 z "},"¿":{"ha":674,"x_min":61,"x_max":625,"o":"m 336 359 l 449 206 q 321 107 362 142 q 271 47 282 72 q 263 -12 262 22 q 289 -84 262 -60 q 393 -110 317 -110 q 492 -103 441 -110 q 598 -87 545 -96 l 625 -259 q 495 -281 555 -274 q 372 -288 434 -288 q 180 -255 248 -286 q 87 -164 114 -224 q 62 -23 61 -106 q 69 81 62 39 q 102 160 76 123 q 184 243 129 197 q 336 359 240 289 l 336 359 m 263 675 l 463 675 l 463 445 l 263 445 l 263 675 l 263 675 z "},"À":{"ha":871,"x_min":14,"x_max":857,"o":"m 524 1088 l 454 982 q 353 1038 396 1012 q 260 1099 308 1063 l 335 1215 q 425 1152 376 1184 q 524 1088 472 1119 l 524 1088 m 435 742 l 328 354 l 541 354 l 435 742 l 435 742 m 574 925 l 857 0 l 640 0 l 590 180 l 281 180 l 231 0 l 14 0 l 296 925 l 574 925 l 574 925 z "},"Á":{"ha":871,"x_min":14,"x_max":857,"o":"m 441 982 l 372 1088 q 471 1152 423 1119 q 560 1215 519 1184 l 635 1099 q 543 1038 586 1063 q 441 982 499 1012 l 441 982 m 435 742 l 328 354 l 541 354 l 435 742 l 435 742 m 574 925 l 857 0 l 640 0 l 590 180 l 281 180 l 231 0 l 14 0 l 296 925 l 574 925 l 574 925 z "},"Â":{"ha":871,"x_min":14,"x_max":857,"o":"m 613 1074 l 559 989 q 495 1019 522 1005 q 435 1051 468 1032 q 374 1019 401 1032 q 312 989 347 1005 l 258 1074 q 347 1138 305 1107 q 435 1206 388 1169 q 524 1138 481 1169 q 613 1074 564 1107 l 613 1074 m 435 742 l 328 354 l 541 354 l 435 742 l 435 742 m 574 925 l 857 0 l 640 0 l 590 180 l 281 180 l 231 0 l 14 0 l 296 925 l 574 925 l 574 925 z "},"Ã":{"ha":871,"x_min":14,"x_max":857,"o":"m 519 996 l 519 996 q 468 1002 490 996 q 427 1024 448 1010 q 395 1047 408 1039 q 363 1055 380 1055 q 323 1034 339 1054 q 293 993 305 1013 l 213 1055 q 251 1115 229 1086 q 300 1158 273 1142 q 358 1176 327 1176 q 404 1171 382 1176 q 449 1147 425 1164 q 490 1123 472 1131 q 519 1115 506 1115 q 555 1130 543 1115 q 572 1172 567 1143 l 667 1128 q 612 1031 650 1066 q 519 996 574 996 l 519 996 m 435 742 l 328 354 l 541 354 l 435 742 l 435 742 m 574 925 l 857 0 l 640 0 l 590 180 l 281 180 l 231 0 l 14 0 l 296 925 l 574 925 l 574 925 z "},"Ä":{"ha":871,"x_min":14,"x_max":857,"o":"m 654 1009 l 496 1009 l 496 1161 l 654 1161 l 654 1009 l 654 1009 m 374 1009 l 216 1009 l 216 1161 l 374 1161 l 374 1009 l 374 1009 m 435 742 l 328 354 l 541 354 l 435 742 l 435 742 m 574 925 l 857 0 l 640 0 l 590 180 l 281 180 l 231 0 l 14 0 l 296 925 l 574 925 l 574 925 z "},"Å":{"ha":871,"x_min":14,"x_max":857,"o":"m 483 1099 l 483 1099 q 469 1135 481 1122 q 435 1149 457 1147 q 400 1135 412 1147 q 388 1099 388 1122 q 400 1063 388 1076 q 435 1050 412 1050 q 469 1063 457 1050 q 483 1099 481 1076 l 483 1099 m 557 1099 l 557 1099 q 524 1016 556 1048 q 435 982 492 983 q 346 1015 378 982 q 313 1099 313 1046 q 346 1181 313 1149 q 435 1217 378 1215 q 524 1181 492 1215 q 557 1099 556 1149 l 557 1099 m 435 742 l 328 354 l 541 354 l 435 742 l 435 742 m 574 925 l 857 0 l 640 0 l 590 180 l 281 180 l 231 0 l 14 0 l 296 925 l 574 925 l 574 925 z "},"Æ":{"ha":1188,"x_min":14,"x_max":1119,"o":"m 435 742 l 328 354 l 541 354 l 435 742 l 435 742 m 1119 0 l 640 0 l 590 180 l 281 180 l 231 0 l 14 0 l 296 925 l 1119 925 l 1119 741 l 629 741 l 682 571 l 1089 571 l 1089 387 l 738 387 l 800 184 l 1119 184 l 1119 0 l 1119 0 z "},"Ç":{"ha":724,"x_min":69,"x_max":675,"o":"m 574 -160 l 574 -160 q 540 -243 575 -213 q 419 -274 505 -273 q 361 -267 395 -274 q 302 -251 327 -260 l 321 -175 q 363 -184 339 -180 q 407 -189 387 -189 q 456 -183 439 -190 q 473 -159 473 -176 q 461 -132 473 -136 q 425 -127 449 -126 q 399 -129 414 -127 q 366 -130 382 -129 l 338 -107 l 359 -11 q 140 76 210 1 q 71 269 69 151 l 71 655 q 106 803 71 739 q 217 902 141 867 q 407 939 292 937 q 543 930 476 939 q 675 909 608 924 l 647 727 q 522 743 585 738 q 407 749 458 749 q 309 716 340 749 q 278 621 278 682 l 278 302 q 309 209 278 241 q 407 175 340 175 q 522 180 458 175 q 647 197 585 186 l 675 15 q 560 -4 617 3 q 446 -12 505 -11 l 437 -65 q 544 -79 511 -56 q 574 -160 575 -103 l 574 -160 z "},"È":{"ha":742,"x_min":91,"x_max":673,"o":"m 486 1088 l 415 982 q 313 1038 358 1012 q 221 1099 270 1063 l 296 1215 q 385 1152 338 1184 q 486 1088 434 1119 l 486 1088 m 673 0 l 91 0 l 91 925 l 673 925 l 673 741 l 298 741 l 298 571 l 643 571 l 643 387 l 298 387 l 298 184 l 673 184 l 673 0 l 673 0 z "},"É":{"ha":742,"x_min":91,"x_max":673,"o":"m 354 982 l 285 1088 q 385 1152 336 1119 q 473 1215 433 1184 l 549 1099 q 457 1038 500 1063 q 354 982 412 1012 l 354 982 m 673 0 l 91 0 l 91 925 l 673 925 l 673 741 l 298 741 l 298 571 l 643 571 l 643 387 l 298 387 l 298 184 l 673 184 l 673 0 l 673 0 z "},"Ê":{"ha":742,"x_min":91,"x_max":673,"o":"m 574 1074 l 519 989 q 457 1019 484 1005 q 396 1051 430 1032 q 336 1019 363 1032 q 273 989 309 1005 l 218 1074 q 308 1138 266 1107 q 396 1206 349 1169 q 484 1138 444 1169 q 574 1074 526 1107 l 574 1074 m 673 0 l 91 0 l 91 925 l 673 925 l 673 741 l 298 741 l 298 571 l 643 571 l 643 387 l 298 387 l 298 184 l 673 184 l 673 0 l 673 0 z "},"Ë":{"ha":742,"x_min":91,"x_max":673,"o":"m 606 1009 l 448 1009 l 448 1161 l 606 1161 l 606 1009 l 606 1009 m 326 1009 l 167 1009 l 167 1161 l 326 1161 l 326 1009 l 326 1009 m 673 0 l 91 0 l 91 925 l 673 925 l 673 741 l 298 741 l 298 571 l 643 571 l 643 387 l 298 387 l 298 184 l 673 184 l 673 0 l 673 0 z "},"Ì":{"ha":403,"x_min":33,"x_max":305,"o":"m 296 1088 l 227 982 q 125 1038 170 1012 q 33 1099 81 1063 l 107 1215 q 197 1152 148 1184 q 296 1088 244 1119 l 296 1088 m 305 0 l 98 0 l 98 925 l 305 925 l 305 0 l 305 0 z "},"Í":{"ha":403,"x_min":98,"x_max":378,"o":"m 183 982 l 114 1088 q 214 1152 165 1119 q 302 1215 262 1184 l 378 1099 q 286 1038 330 1063 q 183 982 241 1012 l 183 982 m 305 0 l 98 0 l 98 925 l 305 925 l 305 0 l 305 0 z "},"Î":{"ha":403,"x_min":24,"x_max":380,"o":"m 380 1074 l 326 989 q 262 1019 289 1005 q 202 1051 235 1032 q 141 1019 168 1032 q 79 989 114 1005 l 24 1074 q 114 1138 72 1107 q 202 1206 155 1169 q 290 1138 248 1169 q 380 1074 331 1107 l 380 1074 m 305 0 l 98 0 l 98 925 l 305 925 l 305 0 l 305 0 z "},"Ï":{"ha":403,"x_min":-18,"x_max":420,"o":"m 420 1009 l 263 1009 l 263 1161 l 420 1161 l 420 1009 l 420 1009 m 141 1009 l -18 1009 l -18 1161 l 141 1161 l 141 1009 l 141 1009 m 305 0 l 98 0 l 98 925 l 305 925 l 305 0 l 305 0 z "},"Ð":{"ha":867,"x_min":35,"x_max":798,"o":"m 589 297 l 589 628 q 563 711 591 682 q 460 741 536 741 l 335 741 l 335 548 l 457 548 l 457 382 l 335 382 l 335 184 l 460 184 q 563 213 536 184 q 589 297 591 243 l 589 297 m 35 382 l 35 548 l 126 548 l 126 925 l 484 925 q 667 890 598 924 q 766 803 736 857 q 798 685 798 749 l 798 240 q 766 122 798 176 q 667 34 736 68 q 484 0 598 1 l 126 0 l 126 382 l 35 382 l 35 382 z "},"Ñ":{"ha":939,"x_min":91,"x_max":849,"o":"m 560 996 l 560 996 q 509 1002 530 996 q 467 1024 487 1010 q 434 1047 449 1039 q 403 1055 420 1055 q 362 1034 380 1054 q 334 993 346 1013 l 254 1055 q 290 1115 269 1086 q 340 1158 313 1142 q 399 1176 368 1176 q 444 1171 423 1176 q 490 1147 465 1164 q 529 1123 513 1131 q 560 1115 545 1115 q 595 1130 583 1115 q 613 1172 606 1143 l 707 1128 q 652 1031 689 1066 q 560 996 614 996 l 560 996 m 591 0 l 289 608 l 289 0 l 91 0 l 91 925 l 346 925 l 650 288 l 650 925 l 849 925 l 849 0 l 591 0 l 591 0 z "},"Ò":{"ha":856,"x_min":69,"x_max":787,"o":"m 506 1088 l 437 982 q 335 1038 378 1012 q 241 1099 290 1063 l 317 1215 q 407 1152 358 1184 q 506 1088 454 1119 l 506 1088 m 578 288 l 578 637 q 543 723 579 692 q 429 754 506 753 q 315 723 350 753 q 278 637 278 692 l 278 288 q 315 202 278 232 q 429 171 350 171 q 543 202 506 171 q 578 288 579 232 l 578 288 m 787 655 l 787 269 q 751 133 787 198 q 637 28 716 69 q 429 -14 557 -12 q 220 28 298 -12 q 104 133 141 69 q 71 269 69 198 l 71 655 q 104 791 69 727 q 220 897 141 854 q 429 939 298 937 q 637 897 557 937 q 751 791 716 854 q 787 655 787 727 l 787 655 z "},"Ó":{"ha":856,"x_min":69,"x_max":787,"o":"m 416 982 l 347 1088 q 448 1152 399 1119 q 537 1215 495 1184 l 612 1099 q 519 1038 563 1063 q 416 982 475 1012 l 416 982 m 578 288 l 578 637 q 543 723 579 692 q 429 754 506 753 q 315 723 350 753 q 278 637 278 692 l 278 288 q 315 202 278 232 q 429 171 350 171 q 543 202 506 171 q 578 288 579 232 l 578 288 m 787 655 l 787 269 q 751 133 787 198 q 637 28 716 69 q 429 -14 557 -12 q 220 28 298 -12 q 104 133 141 69 q 71 269 69 198 l 71 655 q 104 791 69 727 q 220 897 141 854 q 429 939 298 937 q 637 897 557 937 q 751 791 716 854 q 787 655 787 727 l 787 655 z "},"Ô":{"ha":856,"x_min":69,"x_max":787,"o":"m 606 1074 l 552 989 q 488 1019 515 1005 q 429 1051 461 1032 q 368 1019 395 1032 q 305 989 340 1005 l 251 1074 q 339 1138 298 1107 q 429 1206 381 1169 q 517 1138 475 1169 q 606 1074 557 1107 l 606 1074 m 578 288 l 578 637 q 543 723 579 692 q 429 754 506 753 q 315 723 350 753 q 278 637 278 692 l 278 288 q 315 202 278 232 q 429 171 350 171 q 543 202 506 171 q 578 288 579 232 l 578 288 m 787 655 l 787 269 q 751 133 787 198 q 637 28 716 69 q 429 -14 557 -12 q 220 28 298 -12 q 104 133 141 69 q 71 269 69 198 l 71 655 q 104 791 69 727 q 220 897 141 854 q 429 939 298 937 q 637 897 557 937 q 751 791 716 854 q 787 655 787 727 l 787 655 z "},"Õ":{"ha":856,"x_min":69,"x_max":787,"o":"m 517 996 l 517 996 q 465 1002 487 996 q 425 1024 445 1010 q 392 1047 406 1039 q 359 1055 377 1055 q 320 1034 336 1054 q 290 993 302 1013 l 210 1055 q 248 1115 227 1086 q 297 1158 270 1142 q 355 1176 324 1176 q 401 1171 380 1176 q 446 1147 422 1164 q 487 1123 469 1131 q 517 1115 503 1115 q 552 1130 540 1115 q 570 1172 564 1143 l 665 1128 q 609 1031 647 1066 q 517 996 571 996 l 517 996 m 578 288 l 578 637 q 543 723 579 692 q 429 754 506 753 q 315 723 350 753 q 278 637 278 692 l 278 288 q 315 202 278 232 q 429 171 350 171 q 543 202 506 171 q 578 288 579 232 l 578 288 m 787 655 l 787 269 q 751 133 787 198 q 637 28 716 69 q 429 -14 557 -12 q 220 28 298 -12 q 104 133 141 69 q 71 269 69 198 l 71 655 q 104 791 69 727 q 220 897 141 854 q 429 939 298 937 q 637 897 557 937 q 751 791 716 854 q 787 655 787 727 l 787 655 z "},"Ö":{"ha":856,"x_min":69,"x_max":787,"o":"m 647 1009 l 490 1009 l 490 1161 l 647 1161 l 647 1009 l 647 1009 m 366 1009 l 209 1009 l 209 1161 l 366 1161 l 366 1009 l 366 1009 m 578 288 l 578 637 q 543 723 579 692 q 429 754 506 753 q 315 723 350 753 q 278 637 278 692 l 278 288 q 315 202 278 232 q 429 171 350 171 q 543 202 506 171 q 578 288 579 232 l 578 288 m 787 655 l 787 269 q 751 133 787 198 q 637 28 716 69 q 429 -14 557 -12 q 220 28 298 -12 q 104 133 141 69 q 71 269 69 198 l 71 655 q 104 791 69 727 q 220 897 141 854 q 429 939 298 937 q 637 897 557 937 q 751 791 716 854 q 787 655 787 727 l 787 655 z "},"×":{"ha":667,"x_min":77,"x_max":590,"o":"m 476 73 l 334 217 l 191 73 l 77 187 l 220 330 l 77 473 l 191 587 l 334 444 l 476 587 l 590 473 l 448 330 l 590 187 l 476 73 l 476 73 z "},"Ø":{"ha":856,"x_min":69,"x_max":787,"o":"m 429 171 l 429 171 q 543 202 506 171 q 578 288 579 232 l 578 614 l 323 195 q 366 176 340 183 q 429 171 393 171 l 429 171 m 278 637 l 278 308 l 534 728 q 488 747 515 741 q 429 754 463 754 q 315 723 350 753 q 278 637 278 692 l 278 637 m 71 -35 l 142 83 q 87 171 104 123 q 71 269 71 218 l 71 655 q 104 791 69 727 q 220 897 141 854 q 429 939 298 937 q 544 926 492 939 q 635 897 595 916 l 703 1008 l 787 958 l 715 840 q 769 753 751 800 q 787 655 787 705 l 787 269 q 751 133 787 198 q 637 28 716 69 q 429 -14 557 -12 q 312 -3 363 -14 q 220 27 259 8 l 153 -84 l 71 -35 l 71 -35 z "},"Ù":{"ha":864,"x_min":83,"x_max":781,"o":"m 538 1088 l 468 982 q 366 1038 411 1012 q 274 1099 323 1063 l 349 1215 q 438 1152 389 1184 q 538 1088 487 1119 l 538 1088 m 572 925 l 781 925 l 781 269 q 749 133 781 198 q 639 28 715 69 q 433 -14 562 -12 q 227 28 302 -12 q 117 133 149 69 q 84 269 83 198 l 84 925 l 292 925 l 292 289 q 323 202 290 232 q 433 171 355 171 q 541 202 510 171 q 572 289 574 232 l 572 925 l 572 925 z "},"Ú":{"ha":864,"x_min":83,"x_max":781,"o":"m 403 982 l 334 1088 q 433 1152 385 1119 q 522 1215 481 1184 l 598 1099 q 505 1038 549 1063 q 403 982 461 1012 l 403 982 m 572 925 l 781 925 l 781 269 q 749 133 781 198 q 639 28 715 69 q 433 -14 562 -12 q 227 28 302 -12 q 117 133 149 69 q 84 269 83 198 l 84 925 l 292 925 l 292 289 q 323 202 290 232 q 433 171 355 171 q 541 202 510 171 q 572 289 574 232 l 572 925 l 572 925 z "},"Û":{"ha":864,"x_min":83,"x_max":781,"o":"m 609 1074 l 555 989 q 491 1019 518 1005 q 431 1051 464 1032 q 370 1019 397 1032 q 308 989 343 1005 l 254 1074 q 343 1138 301 1107 q 431 1206 384 1169 q 519 1138 477 1169 q 609 1074 560 1107 l 609 1074 m 572 925 l 781 925 l 781 269 q 749 133 781 198 q 639 28 715 69 q 433 -14 562 -12 q 227 28 302 -12 q 117 133 149 69 q 84 269 83 198 l 84 925 l 292 925 l 292 289 q 323 202 290 232 q 433 171 355 171 q 541 202 510 171 q 572 289 574 232 l 572 925 l 572 925 z "},"Ü":{"ha":864,"x_min":83,"x_max":781,"o":"m 651 1009 l 494 1009 l 494 1161 l 651 1161 l 651 1009 l 651 1009 m 372 1009 l 213 1009 l 213 1161 l 372 1161 l 372 1009 l 372 1009 m 572 925 l 781 925 l 781 269 q 749 133 781 198 q 639 28 715 69 q 433 -14 562 -12 q 227 28 302 -12 q 117 133 149 69 q 84 269 83 198 l 84 925 l 292 925 l 292 289 q 323 202 290 232 q 433 171 355 171 q 541 202 510 171 q 572 289 574 232 l 572 925 l 572 925 z "},"Ý":{"ha":784,"x_min":0,"x_max":784,"o":"m 378 982 l 309 1088 q 408 1152 359 1119 q 498 1215 457 1184 l 572 1099 q 480 1038 524 1063 q 378 982 435 1012 l 378 982 m 784 925 l 496 266 l 496 0 l 288 0 l 288 266 l 0 925 l 218 925 l 392 495 l 566 925 l 784 925 l 784 925 z "},"Þ":{"ha":811,"x_min":91,"x_max":779,"o":"m 568 425 l 568 506 q 545 579 570 555 q 457 602 522 602 l 298 602 l 298 323 l 457 323 q 548 349 525 323 q 568 425 571 374 l 568 425 m 777 404 l 777 404 q 701 208 779 274 q 457 142 625 142 l 298 142 l 298 0 l 91 0 l 91 925 l 298 925 l 298 787 l 468 787 q 648 758 581 787 q 747 670 716 728 q 777 525 777 612 l 777 404 l 777 404 z "},"ß":{"ha":819,"x_min":91,"x_max":779,"o":"m 490 739 l 490 739 q 468 793 490 774 q 392 814 445 814 q 315 791 338 814 q 290 716 290 768 l 290 0 l 91 0 l 91 719 q 165 916 91 850 q 388 981 240 981 q 557 949 491 979 q 656 865 624 918 q 689 743 689 812 q 674 666 689 705 q 633 585 661 627 q 600 528 610 547 q 585 496 587 507 q 582 476 582 486 q 595 444 581 464 q 661 377 610 422 q 742 298 716 328 q 773 245 766 270 q 779 186 779 221 q 761 76 779 121 q 697 8 743 31 q 568 -14 651 -14 q 515 -11 547 -14 q 449 -3 483 -8 q 388 11 415 3 l 411 160 q 472 149 438 153 q 530 144 507 145 q 571 152 556 144 q 586 180 586 159 q 582 199 587 191 q 556 225 576 209 q 494 279 536 243 q 423 347 446 319 q 391 403 399 376 q 382 465 381 429 q 387 510 382 490 q 404 552 392 530 q 435 605 415 575 q 469 663 458 640 q 486 704 481 686 q 490 739 490 722 l 490 739 z "},"à":{"ha":693,"x_min":69,"x_max":618,"o":"m 449 850 l 380 746 q 274 807 323 777 q 164 876 225 837 l 239 993 q 346 918 294 952 q 449 850 397 883 l 449 850 m 416 165 l 416 243 l 321 243 q 275 232 289 243 q 262 194 260 221 q 274 153 260 167 q 316 141 286 141 q 370 148 346 141 q 416 165 395 155 l 416 165 m 617 0 l 453 0 l 439 43 q 331 -1 380 11 q 245 -14 281 -15 q 145 14 183 -14 q 88 87 106 41 q 69 191 69 133 q 118 338 69 293 q 271 381 167 382 l 416 381 l 416 433 q 410 487 418 467 q 376 517 401 507 q 297 525 350 525 q 208 521 252 525 q 114 506 161 515 l 88 656 q 161 673 121 666 q 247 685 203 681 q 331 689 292 689 q 509 665 446 689 q 594 582 571 639 q 617 431 618 525 l 617 0 l 617 0 z "},"á":{"ha":693,"x_min":69,"x_max":618,"o":"m 313 746 l 243 850 q 346 918 294 883 q 453 993 397 952 l 528 876 q 418 807 468 837 q 313 746 369 777 l 313 746 m 416 165 l 416 243 l 321 243 q 275 232 289 243 q 262 194 260 221 q 274 153 260 167 q 316 141 286 141 q 370 148 346 141 q 416 165 395 155 l 416 165 m 617 0 l 453 0 l 439 43 q 331 -1 380 11 q 245 -14 281 -15 q 145 14 183 -14 q 88 87 106 41 q 69 191 69 133 q 118 338 69 293 q 271 381 167 382 l 416 381 l 416 433 q 410 487 418 467 q 376 517 401 507 q 297 525 350 525 q 208 521 252 525 q 114 506 161 515 l 88 656 q 161 673 121 666 q 247 685 203 681 q 331 689 292 689 q 509 665 446 689 q 594 582 571 639 q 617 431 618 525 l 617 0 l 617 0 z "},"â":{"ha":693,"x_min":69,"x_max":618,"o":"m 216 736 l 155 819 q 252 897 201 854 q 353 982 305 940 q 453 897 401 940 q 552 819 505 854 l 491 736 q 416 783 445 764 q 353 827 387 803 q 290 783 319 803 q 216 736 260 764 l 216 736 m 416 165 l 416 243 l 321 243 q 275 232 289 243 q 262 194 260 221 q 274 153 260 167 q 316 141 286 141 q 370 148 346 141 q 416 165 395 155 l 416 165 m 617 0 l 453 0 l 439 43 q 331 -1 380 11 q 245 -14 281 -15 q 145 14 183 -14 q 88 87 106 41 q 69 191 69 133 q 118 338 69 293 q 271 381 167 382 l 416 381 l 416 433 q 410 487 418 467 q 376 517 401 507 q 297 525 350 525 q 208 521 252 525 q 114 506 161 515 l 88 656 q 161 673 121 666 q 247 685 203 681 q 331 689 292 689 q 509 665 446 689 q 594 582 571 639 q 617 431 618 525 l 617 0 l 617 0 z "},"ã":{"ha":693,"x_min":69,"x_max":618,"o":"m 431 758 l 431 758 q 380 765 401 758 q 338 787 358 773 q 305 810 320 800 q 274 818 292 818 q 233 796 250 817 q 205 755 217 776 l 123 818 q 184 902 148 867 q 270 939 221 936 q 315 932 294 939 q 359 909 335 925 q 400 886 384 894 q 431 878 416 878 q 465 891 453 878 q 484 935 477 906 l 578 891 q 522 793 560 829 q 431 758 486 758 l 431 758 m 416 165 l 416 243 l 321 243 q 275 232 289 243 q 262 194 260 221 q 274 153 260 167 q 316 141 286 141 q 370 148 346 141 q 416 165 395 155 l 416 165 m 617 0 l 453 0 l 439 43 q 331 -1 380 11 q 245 -14 281 -15 q 145 14 183 -14 q 88 87 106 41 q 69 191 69 133 q 118 338 69 293 q 271 381 167 382 l 416 381 l 416 433 q 410 487 418 467 q 376 517 401 507 q 297 525 350 525 q 208 521 252 525 q 114 506 161 515 l 88 656 q 161 673 121 666 q 247 685 203 681 q 331 689 292 689 q 509 665 446 689 q 594 582 571 639 q 617 431 618 525 l 617 0 l 617 0 z "},"ä":{"ha":693,"x_min":69,"x_max":618,"o":"m 583 769 l 426 769 l 426 933 l 583 933 l 583 769 l 583 769 m 292 769 l 134 769 l 134 933 l 292 933 l 292 769 l 292 769 m 416 165 l 416 243 l 321 243 q 275 232 289 243 q 262 194 260 221 q 274 153 260 167 q 316 141 286 141 q 370 148 346 141 q 416 165 395 155 l 416 165 m 617 0 l 453 0 l 439 43 q 331 -1 380 11 q 245 -14 281 -15 q 145 14 183 -14 q 88 87 106 41 q 69 191 69 133 q 118 338 69 293 q 271 381 167 382 l 416 381 l 416 433 q 410 487 418 467 q 376 517 401 507 q 297 525 350 525 q 208 521 252 525 q 114 506 161 515 l 88 656 q 161 673 121 666 q 247 685 203 681 q 331 689 292 689 q 509 665 446 689 q 594 582 571 639 q 617 431 618 525 l 617 0 l 617 0 z "},"å":{"ha":693,"x_min":69,"x_max":618,"o":"m 418 871 l 418 871 q 404 911 418 897 q 368 926 391 926 q 330 911 343 926 q 316 871 316 897 q 330 830 316 845 q 368 815 343 815 q 404 830 391 815 q 418 871 418 845 l 418 871 m 502 871 l 502 871 q 467 780 502 817 q 368 742 433 743 q 267 777 301 742 q 232 871 232 812 q 267 962 233 925 q 368 1000 302 998 q 467 962 433 998 q 502 871 502 925 l 502 871 m 416 165 l 416 243 l 321 243 q 275 232 289 243 q 262 194 260 221 q 274 153 260 167 q 316 141 286 141 q 370 148 346 141 q 416 165 395 155 l 416 165 m 617 0 l 453 0 l 439 43 q 331 -1 380 11 q 245 -14 281 -15 q 145 14 183 -14 q 88 87 106 41 q 69 191 69 133 q 118 338 69 293 q 271 381 167 382 l 416 381 l 416 433 q 410 487 418 467 q 376 517 401 507 q 297 525 350 525 q 208 521 252 525 q 114 506 161 515 l 88 656 q 161 673 121 666 q 247 685 203 681 q 331 689 292 689 q 509 665 446 689 q 594 582 571 639 q 617 431 618 525 l 617 0 l 617 0 z "},"æ":{"ha":1036,"x_min":69,"x_max":982,"o":"m 416 165 l 416 243 l 321 243 q 275 232 289 243 q 262 194 260 221 q 274 153 260 167 q 316 141 286 141 q 370 148 346 141 q 416 165 395 155 l 416 165 m 792 418 l 792 446 q 776 507 793 483 q 708 532 760 532 q 636 507 656 532 q 617 446 616 483 l 617 418 l 792 418 l 792 418 m 981 267 l 617 267 l 617 237 q 646 168 618 186 q 739 151 674 149 q 842 157 787 151 q 944 179 898 165 l 974 28 q 859 -1 926 12 q 719 -14 792 -14 q 595 0 648 -14 q 507 42 544 15 q 396 0 453 14 q 274 -14 338 -14 q 160 14 206 -14 q 92 87 115 41 q 69 191 69 133 q 118 338 69 293 q 271 381 167 382 l 416 381 l 416 433 q 410 487 418 467 q 376 517 401 507 q 297 525 350 525 q 208 521 252 525 q 114 506 161 515 l 88 656 q 161 673 121 666 q 247 685 203 681 q 331 689 292 689 q 450 675 401 689 q 533 637 499 661 q 609 674 567 661 q 707 689 652 689 q 878 650 818 688 q 960 547 937 610 q 981 410 982 484 l 981 267 l 981 267 z "},"ç":{"ha":564,"x_min":47,"x_max":522,"o":"m 250 418 l 250 258 q 274 182 248 206 q 359 157 300 156 q 430 161 397 157 q 498 174 463 165 l 522 7 q 433 -9 472 -4 q 359 -14 393 -14 l 349 -65 q 456 -79 425 -54 q 487 -160 487 -102 q 453 -243 488 -213 q 331 -274 418 -273 q 274 -267 308 -274 q 214 -251 240 -260 l 233 -175 q 275 -184 252 -180 q 320 -189 298 -189 q 369 -183 353 -190 q 385 -159 385 -176 q 373 -132 385 -136 q 336 -127 362 -126 q 311 -129 326 -127 q 278 -130 296 -129 l 251 -107 l 271 -8 q 102 72 155 7 q 49 260 49 137 l 49 415 q 122 624 47 559 q 359 689 195 690 q 433 685 393 689 q 522 669 472 680 l 498 502 q 427 514 465 509 q 359 518 389 518 q 274 494 300 518 q 250 418 248 469 l 250 418 z "},"è":{"ha":675,"x_min":54,"x_max":621,"o":"m 446 850 l 377 746 q 271 807 320 777 q 161 876 222 837 l 236 993 q 343 918 292 952 q 446 850 395 883 l 446 850 m 431 418 l 431 446 q 415 507 433 483 q 347 533 399 532 q 275 507 296 532 q 256 446 255 483 l 256 418 l 431 418 l 431 418 m 620 267 l 256 267 l 256 248 q 282 170 255 191 q 378 151 311 149 q 481 157 426 151 q 585 179 537 165 l 613 30 q 499 0 566 12 q 359 -14 431 -14 q 125 61 195 -12 q 56 260 54 134 l 56 419 q 81 553 56 492 q 171 651 107 614 q 346 689 235 689 q 517 650 457 688 q 600 547 576 610 q 620 410 621 484 l 620 267 l 620 267 z "},"é":{"ha":675,"x_min":54,"x_max":621,"o":"m 315 746 l 244 850 q 347 918 296 883 q 454 993 400 952 l 529 876 q 419 807 469 837 q 315 746 370 777 l 315 746 m 431 418 l 431 446 q 415 507 433 483 q 347 533 399 532 q 275 507 296 532 q 256 446 255 483 l 256 418 l 431 418 l 431 418 m 620 267 l 256 267 l 256 248 q 282 170 255 191 q 378 151 311 149 q 481 157 426 151 q 585 179 537 165 l 613 30 q 499 0 566 12 q 359 -14 431 -14 q 125 61 195 -12 q 56 260 54 134 l 56 419 q 81 553 56 492 q 171 651 107 614 q 346 689 235 689 q 517 650 457 688 q 600 547 576 610 q 620 410 621 484 l 620 267 l 620 267 z "},"ê":{"ha":675,"x_min":54,"x_max":621,"o":"m 209 736 l 148 819 q 245 897 194 854 q 346 982 297 940 q 446 897 395 940 q 545 819 498 854 l 484 736 q 410 783 438 764 q 346 827 380 803 q 283 783 312 803 q 209 736 254 764 l 209 736 m 431 418 l 431 446 q 415 507 433 483 q 347 533 399 532 q 275 507 296 532 q 256 446 255 483 l 256 418 l 431 418 l 431 418 m 620 267 l 256 267 l 256 248 q 282 170 255 191 q 378 151 311 149 q 481 157 426 151 q 585 179 537 165 l 613 30 q 499 0 566 12 q 359 -14 431 -14 q 125 61 195 -12 q 56 260 54 134 l 56 419 q 81 553 56 492 q 171 651 107 614 q 346 689 235 689 q 517 650 457 688 q 600 547 576 610 q 620 410 621 484 l 620 267 l 620 267 z "},"ë":{"ha":675,"x_min":54,"x_max":621,"o":"m 574 769 l 416 769 l 416 933 l 574 933 l 574 769 l 574 769 m 282 769 l 125 769 l 125 933 l 282 933 l 282 769 l 282 769 m 431 418 l 431 446 q 415 507 433 483 q 347 533 399 532 q 275 507 296 532 q 256 446 255 483 l 256 418 l 431 418 l 431 418 m 620 267 l 256 267 l 256 248 q 282 170 255 191 q 378 151 311 149 q 481 157 426 151 q 585 179 537 165 l 613 30 q 499 0 566 12 q 359 -14 431 -14 q 125 61 195 -12 q 56 260 54 134 l 56 419 q 81 553 56 492 q 171 651 107 614 q 346 689 235 689 q 517 650 457 688 q 600 547 576 610 q 620 410 621 484 l 620 267 l 620 267 z "},"ì":{"ha":381,"x_min":1,"x_max":290,"o":"m 286 850 l 217 746 q 111 807 160 777 q 1 876 62 837 l 77 993 q 183 918 132 952 q 286 850 236 883 l 286 850 m 290 0 l 91 0 l 91 675 l 290 675 l 290 0 l 290 0 z "},"í":{"ha":381,"x_min":91,"x_max":391,"o":"m 175 746 l 106 850 q 209 918 157 883 q 316 993 260 952 l 391 876 q 281 807 330 837 q 175 746 232 777 l 175 746 m 290 0 l 91 0 l 91 675 l 290 675 l 290 0 l 290 0 z "},"î":{"ha":381,"x_min":-8,"x_max":389,"o":"m 53 736 l -8 819 q 91 897 38 854 q 191 982 142 940 q 292 897 239 940 q 389 819 343 854 l 328 736 q 254 783 283 764 q 191 827 224 803 q 127 783 157 803 q 53 736 98 764 l 53 736 m 290 0 l 91 0 l 91 675 l 290 675 l 290 0 l 290 0 z "},"ï":{"ha":381,"x_min":-34,"x_max":415,"o":"m 415 769 l 258 769 l 258 933 l 415 933 l 415 769 l 415 769 m 123 769 l -34 769 l -34 933 l 123 933 l 123 769 l 123 769 m 290 0 l 91 0 l 91 675 l 290 675 l 290 0 l 290 0 z "},"ð":{"ha":681,"x_min":68,"x_max":627,"o":"m 346 155 l 346 155 q 408 174 391 153 q 426 240 426 193 l 426 335 q 377 354 401 347 q 326 361 354 361 q 282 347 298 362 q 266 292 266 332 l 266 235 q 283 175 264 195 q 346 155 302 155 l 346 155 m 406 861 l 476 930 l 538 868 l 481 812 q 589 674 552 754 q 625 488 625 593 l 625 240 q 601 113 627 170 q 515 22 576 56 q 349 -14 456 -14 q 170 24 231 -12 q 88 123 109 62 q 69 254 68 183 l 69 296 q 122 475 69 419 q 292 529 176 529 q 339 526 320 529 q 378 519 358 525 q 426 507 397 515 l 426 524 q 406 618 426 578 q 353 688 387 659 l 255 593 l 191 655 l 275 735 q 199 761 240 750 q 114 780 157 772 l 145 939 q 288 909 221 929 q 406 861 353 890 l 406 861 z "},"ñ":{"ha":768,"x_min":91,"x_max":686,"o":"m 476 758 l 476 758 q 426 765 448 758 q 384 787 404 773 q 351 810 365 800 q 320 818 336 818 q 279 796 296 817 q 251 755 263 776 l 170 818 q 231 902 194 867 q 316 939 267 936 q 361 932 340 939 q 406 909 381 925 q 446 886 430 894 q 476 878 463 878 q 511 891 499 878 q 529 935 524 906 l 624 891 q 568 793 606 829 q 476 758 532 758 l 476 758 m 685 0 l 486 0 l 486 446 q 473 483 486 469 q 437 495 463 495 q 366 480 408 495 q 290 446 324 465 l 290 0 l 91 0 l 91 675 l 239 675 l 260 624 q 350 659 302 644 q 444 681 397 674 q 530 689 490 689 q 651 629 614 688 q 685 473 686 572 l 685 0 l 685 0 z "},"ò":{"ha":722,"x_min":56,"x_max":667,"o":"m 453 850 l 384 746 q 278 807 327 777 q 168 876 229 837 l 243 993 q 350 918 298 952 q 453 850 403 883 l 453 850 m 362 155 l 362 155 q 441 180 415 155 q 467 254 467 206 l 467 422 q 441 495 467 469 q 362 521 415 521 q 282 495 308 521 q 256 422 256 469 l 256 254 q 282 180 256 206 q 362 155 308 155 l 362 155 m 362 -14 l 362 -14 q 175 26 243 -12 q 81 127 109 65 q 56 259 56 189 l 56 416 q 81 548 56 487 q 175 650 109 610 q 362 689 243 688 q 548 650 480 688 q 642 548 614 610 q 667 416 667 487 l 667 259 q 642 127 667 189 q 548 26 614 65 q 362 -14 480 -12 l 362 -14 z "},"ó":{"ha":722,"x_min":56,"x_max":667,"o":"m 336 746 l 267 850 q 370 918 317 883 q 476 993 422 952 l 552 876 q 442 807 491 837 q 336 746 393 777 l 336 746 m 362 155 l 362 155 q 441 180 415 155 q 467 254 467 206 l 467 422 q 441 495 467 469 q 362 521 415 521 q 282 495 308 521 q 256 422 256 469 l 256 254 q 282 180 256 206 q 362 155 308 155 l 362 155 m 362 -14 l 362 -14 q 175 26 243 -12 q 81 127 109 65 q 56 259 56 189 l 56 416 q 81 548 56 487 q 175 650 109 610 q 362 689 243 688 q 548 650 480 688 q 642 548 614 610 q 667 416 667 487 l 667 259 q 642 127 667 189 q 548 26 614 65 q 362 -14 480 -12 l 362 -14 z "},"ô":{"ha":722,"x_min":56,"x_max":667,"o":"m 224 736 l 163 819 q 262 897 209 854 q 361 982 313 940 q 461 897 410 940 q 560 819 514 854 l 499 736 q 425 783 454 764 q 361 827 395 803 q 298 783 328 803 q 224 736 269 764 l 224 736 m 362 155 l 362 155 q 441 180 415 155 q 467 254 467 206 l 467 422 q 441 495 467 469 q 362 521 415 521 q 282 495 308 521 q 256 422 256 469 l 256 254 q 282 180 256 206 q 362 155 308 155 l 362 155 m 362 -14 l 362 -14 q 175 26 243 -12 q 81 127 109 65 q 56 259 56 189 l 56 416 q 81 548 56 487 q 175 650 109 610 q 362 689 243 688 q 548 650 480 688 q 642 548 614 610 q 667 416 667 487 l 667 259 q 642 127 667 189 q 548 26 614 65 q 362 -14 480 -12 l 362 -14 z "},"õ":{"ha":722,"x_min":56,"x_max":667,"o":"m 442 758 l 442 758 q 391 765 412 758 q 349 787 369 773 q 316 810 331 800 q 285 818 302 818 q 244 796 262 817 q 216 755 228 776 l 136 818 q 197 902 159 867 q 281 939 233 936 q 326 932 305 939 q 372 909 347 925 q 411 886 395 894 q 442 878 427 878 q 476 891 465 878 q 495 935 488 906 l 589 891 q 534 793 571 829 q 442 758 496 758 l 442 758 m 362 155 l 362 155 q 441 180 415 155 q 467 254 467 206 l 467 422 q 441 495 467 469 q 362 521 415 521 q 282 495 308 521 q 256 422 256 469 l 256 254 q 282 180 256 206 q 362 155 308 155 l 362 155 m 362 -14 l 362 -14 q 175 26 243 -12 q 81 127 109 65 q 56 259 56 189 l 56 416 q 81 548 56 487 q 175 650 109 610 q 362 689 243 688 q 548 650 480 688 q 642 548 614 610 q 667 416 667 487 l 667 259 q 642 127 667 189 q 548 26 614 65 q 362 -14 480 -12 l 362 -14 z "},"ö":{"ha":722,"x_min":56,"x_max":667,"o":"m 586 769 l 429 769 l 429 933 l 586 933 l 586 769 l 586 769 m 294 769 l 137 769 l 137 933 l 294 933 l 294 769 l 294 769 m 362 155 l 362 155 q 441 180 415 155 q 467 254 467 206 l 467 422 q 441 495 467 469 q 362 521 415 521 q 282 495 308 521 q 256 422 256 469 l 256 254 q 282 180 256 206 q 362 155 308 155 l 362 155 m 362 -14 l 362 -14 q 175 26 243 -12 q 81 127 109 65 q 56 259 56 189 l 56 416 q 81 548 56 487 q 175 650 109 610 q 362 689 243 688 q 548 650 480 688 q 642 548 614 610 q 667 416 667 487 l 667 259 q 642 127 667 189 q 548 26 614 65 q 362 -14 480 -12 l 362 -14 z "},"÷":{"ha":728,"x_min":77,"x_max":652,"o":"m 457 487 l 271 487 l 271 675 l 457 675 l 457 487 l 457 487 m 652 275 l 77 275 l 77 403 l 652 403 l 652 275 l 652 275 m 457 0 l 271 0 l 271 189 l 457 189 l 457 0 l 457 0 z "},"ø":{"ha":722,"x_min":56,"x_max":667,"o":"m 362 155 l 362 155 q 441 180 415 155 q 467 254 467 206 l 467 422 l 290 172 q 321 159 304 163 q 362 155 339 155 l 362 155 m 256 254 l 256 251 l 433 503 q 401 517 419 511 q 362 521 384 521 q 282 495 308 521 q 256 422 256 469 l 256 254 l 256 254 m 362 -14 l 362 -14 q 262 -5 305 -14 q 186 20 218 4 l 121 -69 l 60 -27 l 123 64 q 72 155 87 103 q 56 259 56 205 l 56 416 q 81 548 56 487 q 175 650 109 610 q 362 689 243 688 q 461 681 418 689 q 537 655 505 671 l 602 746 l 663 703 l 600 610 q 651 521 636 571 q 667 416 667 471 l 667 259 q 642 127 667 189 q 548 26 614 65 q 362 -14 480 -12 l 362 -14 z "},"ù":{"ha":768,"x_min":83,"x_max":678,"o":"m 479 850 l 408 746 q 302 807 353 777 q 194 876 254 837 l 269 993 q 376 918 323 952 q 479 850 427 883 l 479 850 m 84 675 l 283 675 l 283 229 q 296 193 283 206 q 332 180 307 180 q 403 195 361 180 q 477 229 444 210 l 477 675 l 678 675 l 678 0 l 529 0 l 509 52 q 419 16 467 31 q 326 -5 372 1 q 239 -14 278 -14 q 118 46 155 -12 q 84 202 83 103 l 84 675 l 84 675 z "},"ú":{"ha":768,"x_min":83,"x_max":678,"o":"m 354 746 l 285 850 q 388 918 336 883 q 495 993 439 952 l 570 876 q 460 807 509 837 q 354 746 411 777 l 354 746 m 84 675 l 283 675 l 283 229 q 296 193 283 206 q 332 180 307 180 q 403 195 361 180 q 477 229 444 210 l 477 675 l 678 675 l 678 0 l 529 0 l 509 52 q 419 16 467 31 q 326 -5 372 1 q 239 -14 278 -14 q 118 46 155 -12 q 84 202 83 103 l 84 675 l 84 675 z "},"û":{"ha":768,"x_min":83,"x_max":678,"o":"m 260 736 l 199 819 q 297 897 245 854 q 397 982 349 940 q 498 897 446 940 q 597 819 549 854 l 534 736 q 461 783 490 764 q 397 827 431 803 q 335 783 363 803 q 260 736 305 764 l 260 736 m 84 675 l 283 675 l 283 229 q 296 193 283 206 q 332 180 307 180 q 403 195 361 180 q 477 229 444 210 l 477 675 l 678 675 l 678 0 l 529 0 l 509 52 q 419 16 467 31 q 326 -5 372 1 q 239 -14 278 -14 q 118 46 155 -12 q 84 202 83 103 l 84 675 l 84 675 z "},"ü":{"ha":768,"x_min":83,"x_max":678,"o":"m 623 769 l 464 769 l 464 933 l 623 933 l 623 769 l 623 769 m 331 769 l 172 769 l 172 933 l 331 933 l 331 769 l 331 769 m 84 675 l 283 675 l 283 229 q 296 193 283 206 q 332 180 307 180 q 403 195 361 180 q 477 229 444 210 l 477 675 l 678 675 l 678 0 l 529 0 l 509 52 q 419 16 467 31 q 326 -5 372 1 q 239 -14 278 -14 q 118 46 155 -12 q 84 202 83 103 l 84 675 l 84 675 z "},"ý":{"ha":688,"x_min":7,"x_max":688,"o":"m 338 746 l 269 850 q 372 918 319 883 q 479 993 423 952 l 553 876 q 444 807 492 837 q 338 746 395 777 l 338 746 m 389 -274 l 201 -274 l 279 0 l 216 0 l 7 675 l 210 675 l 347 197 l 486 675 l 688 675 l 475 0 l 389 -274 l 389 -274 z "},"þ":{"ha":746,"x_min":91,"x_max":692,"o":"m 290 463 l 290 176 q 351 165 317 170 q 418 160 387 160 q 475 182 457 160 q 491 236 491 202 l 491 439 q 475 495 491 475 q 418 515 457 515 q 349 499 382 515 q 290 463 313 483 l 290 463 m 91 -301 l 91 952 l 290 981 l 290 633 q 378 671 328 655 q 477 689 427 689 q 635 627 581 689 q 690 439 690 563 l 690 236 q 636 52 692 115 q 463 -14 581 -14 q 373 -8 420 -14 q 290 5 327 -3 l 290 -273 l 91 -301 l 91 -301 z "},"ÿ":{"ha":688,"x_min":7,"x_max":688,"o":"m 572 769 l 415 769 l 415 933 l 572 933 l 572 769 l 572 769 m 281 769 l 122 769 l 122 933 l 281 933 l 281 769 l 281 769 m 389 -274 l 201 -274 l 279 0 l 216 0 l 7 675 l 210 675 l 347 197 l 486 675 l 688 675 l 475 0 l 389 -274 l 389 -274 z "},"Ā":{"ha":871,"x_min":14,"x_max":857,"o":"m 612 1013 l 259 1013 l 259 1141 l 612 1141 l 612 1013 l 612 1013 m 435 742 l 328 354 l 541 354 l 435 742 l 435 742 m 574 925 l 857 0 l 640 0 l 590 180 l 281 180 l 231 0 l 14 0 l 296 925 l 574 925 l 574 925 z "},"ā":{"ha":693,"x_min":69,"x_max":618,"o":"m 530 777 l 178 777 l 178 905 l 530 905 l 530 777 l 530 777 m 416 165 l 416 243 l 321 243 q 275 232 289 243 q 262 194 260 221 q 274 153 260 167 q 316 141 286 141 q 370 148 346 141 q 416 165 395 155 l 416 165 m 617 0 l 453 0 l 439 43 q 331 -1 380 11 q 245 -14 281 -15 q 145 14 183 -14 q 88 87 106 41 q 69 191 69 133 q 118 338 69 293 q 271 381 167 382 l 416 381 l 416 433 q 410 487 418 467 q 376 517 401 507 q 297 525 350 525 q 208 521 252 525 q 114 506 161 515 l 88 656 q 161 673 121 666 q 247 685 203 681 q 331 689 292 689 q 509 665 446 689 q 594 582 571 639 q 617 431 618 525 l 617 0 l 617 0 z "},"Ă":{"ha":871,"x_min":14,"x_max":857,"o":"m 541 1187 l 633 1142 q 572 1035 621 1077 q 435 990 522 991 q 298 1035 347 991 q 236 1142 248 1077 l 330 1187 q 366 1120 340 1145 q 435 1096 392 1096 q 503 1120 477 1096 q 541 1187 529 1145 l 541 1187 m 435 742 l 328 354 l 541 354 l 435 742 l 435 742 m 574 925 l 857 0 l 640 0 l 590 180 l 281 180 l 231 0 l 14 0 l 296 925 l 574 925 l 574 925 z "},"ă":{"ha":693,"x_min":69,"x_max":618,"o":"m 484 956 l 576 913 q 544 830 571 868 q 473 766 518 791 q 363 742 427 742 q 252 766 298 742 q 182 830 208 791 q 149 913 155 868 l 241 956 q 283 886 254 914 q 363 856 313 857 q 442 886 412 857 q 484 956 472 914 l 484 956 m 416 165 l 416 243 l 321 243 q 275 232 289 243 q 262 194 260 221 q 274 153 260 167 q 316 141 286 141 q 370 148 346 141 q 416 165 395 155 l 416 165 m 617 0 l 453 0 l 439 43 q 331 -1 380 11 q 245 -14 281 -15 q 145 14 183 -14 q 88 87 106 41 q 69 191 69 133 q 118 338 69 293 q 271 381 167 382 l 416 381 l 416 433 q 410 487 418 467 q 376 517 401 507 q 297 525 350 525 q 208 521 252 525 q 114 506 161 515 l 88 656 q 161 673 121 666 q 247 685 203 681 q 331 689 292 689 q 509 665 446 689 q 594 582 571 639 q 617 431 618 525 l 617 0 l 617 0 z "},"Ą":{"ha":871,"x_min":14,"x_max":857,"o":"m 435 742 l 328 354 l 541 354 l 435 742 l 435 742 m 574 925 l 857 0 l 808 0 q 758 -42 783 -20 q 718 -88 732 -65 q 700 -132 701 -111 q 712 -164 700 -153 q 747 -174 724 -174 q 770 -172 758 -174 q 796 -168 784 -171 l 808 -271 q 765 -283 788 -281 q 718 -288 741 -288 q 609 -255 650 -288 q 567 -160 568 -222 q 589 -91 567 -122 q 646 -37 610 -60 q 724 0 682 -14 l 640 0 l 590 180 l 281 180 l 231 0 l 14 0 l 296 925 l 574 925 l 574 925 z "},"ą":{"ha":693,"x_min":69,"x_max":618,"o":"m 416 165 l 416 243 l 321 243 q 275 232 289 243 q 262 194 260 221 q 274 153 260 167 q 316 141 286 141 q 370 148 346 141 q 416 165 395 155 l 416 165 m 617 0 l 617 0 q 568 -39 594 -19 q 526 -84 544 -61 q 509 -132 510 -107 q 521 -164 509 -153 q 556 -174 532 -174 q 579 -172 566 -174 q 605 -168 591 -171 l 617 -271 q 572 -283 595 -281 q 525 -288 549 -288 q 418 -255 458 -288 q 376 -160 377 -222 q 415 -69 377 -109 q 511 0 453 -30 l 453 0 l 439 43 q 331 -1 381 11 q 245 -14 281 -15 q 145 14 183 -14 q 88 87 106 41 q 69 191 69 133 q 118 338 69 293 q 271 381 167 382 l 416 381 l 416 433 q 410 487 418 467 q 376 517 401 507 q 297 525 350 525 q 208 521 252 525 q 114 506 161 515 l 88 656 q 161 673 121 666 q 247 685 203 681 q 331 689 292 689 q 509 665 446 689 q 594 582 571 639 q 617 431 618 525 l 617 0 l 617 0 z "},"Ć":{"ha":724,"x_min":71,"x_max":675,"o":"m 378 982 l 309 1088 q 408 1152 359 1119 q 498 1215 457 1184 l 572 1099 q 480 1038 524 1063 q 378 982 435 1012 l 378 982 m 278 621 l 278 302 q 304 209 277 241 q 407 175 332 175 q 522 182 458 175 q 647 198 585 187 l 675 15 q 543 -7 608 1 q 407 -14 476 -14 q 217 22 292 -14 q 106 122 141 58 q 71 270 71 184 l 71 655 q 106 803 71 739 q 217 902 141 867 q 407 939 292 937 q 543 930 476 939 q 675 909 608 924 l 647 727 q 522 743 585 738 q 407 749 458 749 q 304 716 332 749 q 278 621 277 682 l 278 621 z "},"ć":{"ha":564,"x_min":47,"x_max":522,"o":"m 277 746 l 208 850 q 311 918 258 883 q 416 993 362 952 l 492 876 q 382 807 431 837 q 277 746 334 777 l 277 746 m 250 418 l 250 258 q 274 182 248 206 q 359 157 300 157 q 430 161 397 157 q 498 174 463 165 l 522 7 q 433 -9 472 -4 q 359 -14 393 -14 q 122 52 195 -15 q 49 260 47 117 l 49 415 q 122 624 47 559 q 359 689 195 690 q 433 685 393 689 q 522 669 472 680 l 498 502 q 427 514 465 509 q 359 518 389 518 q 274 494 300 518 q 250 418 248 469 l 250 418 z "},"Ĉ":{"ha":724,"x_min":71,"x_max":675,"o":"m 587 1074 l 533 989 q 471 1019 498 1005 q 410 1051 444 1032 q 350 1019 377 1032 q 286 989 323 1005 l 232 1074 q 321 1138 281 1107 q 410 1206 363 1169 q 498 1138 457 1169 q 587 1074 540 1107 l 587 1074 m 278 621 l 278 302 q 304 209 277 241 q 407 175 332 175 q 522 182 458 175 q 647 198 585 187 l 675 15 q 543 -7 608 1 q 407 -14 476 -14 q 217 22 292 -14 q 106 122 141 58 q 71 270 71 184 l 71 655 q 106 803 71 739 q 217 902 141 867 q 407 939 292 937 q 543 930 476 939 q 675 909 608 924 l 647 727 q 522 743 585 738 q 407 749 458 749 q 304 716 332 749 q 278 621 277 682 l 278 621 z "},"ĉ":{"ha":564,"x_min":47,"x_max":522,"o":"m 180 736 l 119 819 q 218 897 167 854 q 319 982 270 940 q 419 897 368 940 q 517 819 471 854 l 456 736 q 381 783 411 764 q 319 827 353 803 q 255 783 285 803 q 180 736 227 764 l 180 736 m 250 418 l 250 258 q 274 182 248 206 q 359 157 300 157 q 430 161 397 157 q 498 174 463 165 l 522 7 q 433 -9 472 -4 q 359 -14 393 -14 q 122 52 195 -15 q 49 260 47 117 l 49 415 q 122 624 47 559 q 359 689 195 690 q 433 685 393 689 q 522 669 472 680 l 498 502 q 427 514 465 509 q 359 518 389 518 q 274 494 300 518 q 250 418 248 469 l 250 418 z "},"Ċ":{"ha":724,"x_min":71,"x_max":675,"o":"m 509 1010 l 309 1010 l 309 1223 l 509 1223 l 509 1010 l 509 1010 m 278 621 l 278 302 q 304 209 277 241 q 407 175 332 175 q 522 182 458 175 q 647 198 585 187 l 675 15 q 543 -7 608 1 q 407 -14 476 -14 q 217 22 292 -14 q 106 122 141 58 q 71 270 71 184 l 71 655 q 106 803 71 739 q 217 902 141 867 q 407 939 292 937 q 543 930 476 939 q 675 909 608 924 l 647 727 q 522 743 585 738 q 407 749 458 749 q 304 716 332 749 q 278 621 277 682 l 278 621 z "},"ċ":{"ha":564,"x_min":47,"x_max":522,"o":"m 416 761 l 217 761 l 217 972 l 416 972 l 416 761 l 416 761 m 250 418 l 250 258 q 274 182 248 206 q 359 157 300 157 q 430 161 397 157 q 498 174 463 165 l 522 7 q 433 -9 472 -4 q 359 -14 393 -14 q 122 52 195 -15 q 49 260 47 117 l 49 415 q 122 624 47 559 q 359 689 195 690 q 433 685 393 689 q 522 669 472 680 l 498 502 q 427 514 465 509 q 359 518 389 518 q 274 494 300 518 q 250 418 248 469 l 250 418 z "},"Č":{"ha":724,"x_min":71,"x_max":675,"o":"m 534 1207 l 589 1120 q 500 1058 541 1088 q 411 990 458 1027 q 323 1058 365 1027 q 233 1120 282 1088 l 288 1207 q 351 1177 324 1191 q 411 1145 378 1164 q 472 1177 445 1164 q 534 1207 499 1191 l 534 1207 m 278 621 l 278 302 q 304 209 277 241 q 407 175 332 175 q 522 182 458 175 q 647 198 585 187 l 675 15 q 543 -7 608 1 q 407 -14 476 -14 q 217 22 292 -14 q 106 122 141 58 q 71 270 71 184 l 71 655 q 106 803 71 739 q 217 902 141 867 q 407 939 292 937 q 543 930 476 939 q 675 909 608 924 l 647 727 q 522 743 585 738 q 407 749 458 749 q 304 716 332 749 q 278 621 277 682 l 278 621 z "},"č":{"ha":564,"x_min":47,"x_max":525,"o":"m 127 894 l 190 977 q 263 930 235 949 q 327 886 293 910 q 389 930 361 910 q 464 977 419 949 l 525 894 q 427 817 479 859 q 327 731 376 773 q 227 817 278 773 q 127 894 175 859 l 127 894 m 250 418 l 250 258 q 274 182 248 206 q 359 157 300 157 q 430 161 397 157 q 498 174 463 165 l 522 7 q 433 -9 472 -4 q 359 -14 393 -14 q 122 52 195 -15 q 49 260 47 117 l 49 415 q 122 624 47 559 q 359 689 195 690 q 433 685 393 689 q 522 669 472 680 l 498 502 q 427 514 465 509 q 359 518 389 518 q 274 494 300 518 q 250 418 248 469 l 250 418 z "},"Ď":{"ha":830,"x_min":91,"x_max":762,"o":"m 532 1207 l 586 1120 q 496 1058 538 1088 q 408 990 456 1027 q 320 1058 362 1027 q 231 1120 279 1088 l 285 1207 q 349 1177 321 1191 q 408 1145 376 1164 q 469 1177 442 1164 q 532 1207 496 1191 l 532 1207 m 553 297 l 553 628 q 528 711 555 682 q 423 741 500 741 l 298 741 l 298 184 l 423 184 q 528 213 500 184 q 553 297 555 243 l 553 297 m 761 240 l 761 240 q 731 122 762 176 q 631 34 700 68 q 449 0 562 1 l 91 0 l 91 925 l 449 925 q 631 890 562 924 q 731 803 700 857 q 761 685 762 749 l 761 240 l 761 240 z "},"ď":{"ha":861,"x_min":56,"x_max":890,"o":"m 890 800 l 818 696 l 762 735 l 803 811 l 736 811 l 736 952 l 890 952 l 890 800 l 890 800 m 456 212 l 456 499 q 395 511 429 506 q 328 515 361 515 q 273 495 289 515 q 256 439 255 473 l 256 236 q 273 180 255 201 q 328 160 289 160 q 399 176 363 160 q 456 212 433 193 l 456 212 m 56 236 l 56 439 q 110 624 56 560 q 283 689 165 689 q 373 684 327 689 q 456 670 420 678 l 456 952 l 656 981 l 656 0 l 499 0 l 479 54 q 384 8 441 30 q 270 -14 327 -12 q 111 49 167 -14 q 56 236 57 113 l 56 236 z "},"Đ":{"ha":880,"x_min":35,"x_max":798,"o":"m 589 297 l 589 628 q 563 711 591 682 q 460 741 536 741 l 335 741 l 335 548 l 457 548 l 457 382 l 335 382 l 335 184 l 460 184 q 563 213 536 184 q 589 297 591 243 l 589 297 m 35 382 l 35 548 l 126 548 l 126 925 l 484 925 q 667 890 598 924 q 766 803 736 857 q 798 685 798 749 l 798 240 q 766 122 798 176 q 667 34 736 68 q 484 0 598 1 l 126 0 l 126 382 l 35 382 l 35 382 z "},"đ":{"ha":746,"x_min":56,"x_max":738,"o":"m 456 212 l 456 499 q 395 510 429 506 q 328 515 361 515 q 273 494 289 515 q 256 439 255 473 l 256 236 q 273 180 255 201 q 328 160 289 160 q 399 176 363 160 q 456 212 433 193 l 456 212 m 351 753 l 351 850 l 456 850 l 456 952 l 656 981 l 656 850 l 738 850 l 738 753 l 656 753 l 656 0 l 499 0 l 479 54 q 384 8 441 30 q 270 -14 327 -12 q 111 49 167 -14 q 56 236 57 113 l 56 439 q 110 624 56 560 q 283 689 165 689 q 373 684 327 689 q 456 670 420 678 l 456 753 l 351 753 l 351 753 z "},"Ē":{"ha":742,"x_min":91,"x_max":673,"o":"m 570 1013 l 217 1013 l 217 1141 l 570 1141 l 570 1013 l 570 1013 m 673 0 l 91 0 l 91 925 l 673 925 l 673 741 l 298 741 l 298 571 l 643 571 l 643 387 l 298 387 l 298 184 l 673 184 l 673 0 l 673 0 z "},"ē":{"ha":675,"x_min":54,"x_max":621,"o":"m 517 777 l 164 777 l 164 905 l 517 905 l 517 777 l 517 777 m 431 418 l 431 446 q 415 507 433 483 q 347 533 399 532 q 275 507 296 532 q 256 446 255 483 l 256 418 l 431 418 l 431 418 m 620 267 l 256 267 l 256 248 q 282 170 255 191 q 378 151 311 149 q 481 157 426 151 q 585 179 537 165 l 613 30 q 499 0 566 12 q 359 -14 431 -14 q 125 61 195 -12 q 56 260 54 134 l 56 419 q 81 553 56 492 q 171 651 107 614 q 346 689 235 689 q 517 650 457 688 q 600 547 576 610 q 620 410 621 484 l 620 267 l 620 267 z "},"Ĕ":{"ha":742,"x_min":91,"x_max":673,"o":"m 506 1187 l 600 1142 q 537 1035 586 1077 q 400 990 488 991 q 263 1035 313 991 q 202 1142 214 1077 l 294 1187 q 332 1120 307 1145 q 400 1096 358 1096 q 469 1120 444 1096 q 506 1187 495 1145 l 506 1187 m 673 0 l 91 0 l 91 925 l 673 925 l 673 741 l 298 741 l 298 571 l 643 571 l 643 387 l 298 387 l 298 184 l 673 184 l 673 0 l 673 0 z "},"ĕ":{"ha":675,"x_min":54,"x_max":621,"o":"m 469 956 l 563 913 q 530 830 556 868 q 458 766 505 791 q 349 742 414 742 q 239 766 285 742 q 167 830 194 791 q 136 913 141 868 l 228 956 q 270 886 240 914 q 349 856 300 857 q 429 886 399 857 q 469 956 458 914 l 469 956 m 431 418 l 431 446 q 415 507 433 483 q 347 533 399 532 q 275 507 296 532 q 256 446 255 483 l 256 418 l 431 418 l 431 418 m 620 267 l 256 267 l 256 248 q 282 170 255 191 q 378 151 311 149 q 481 157 426 151 q 585 179 537 165 l 613 30 q 499 0 566 12 q 359 -14 431 -14 q 125 61 195 -12 q 56 260 54 134 l 56 419 q 81 553 56 492 q 171 651 107 614 q 346 689 235 689 q 517 650 457 688 q 600 547 576 610 q 620 410 621 484 l 620 267 l 620 267 z "},"Ė":{"ha":742,"x_min":91,"x_max":673,"o":"m 495 1010 l 294 1010 l 294 1223 l 495 1223 l 495 1010 l 495 1010 m 673 0 l 91 0 l 91 925 l 673 925 l 673 741 l 298 741 l 298 571 l 643 571 l 643 387 l 298 387 l 298 184 l 673 184 l 673 0 l 673 0 z "},"ė":{"ha":675,"x_min":54,"x_max":621,"o":"m 444 761 l 243 761 l 243 972 l 444 972 l 444 761 l 444 761 m 431 418 l 431 446 q 415 507 433 483 q 347 533 399 532 q 275 507 296 532 q 256 446 255 483 l 256 418 l 431 418 l 431 418 m 620 267 l 256 267 l 256 248 q 282 170 255 191 q 378 151 311 149 q 481 157 426 151 q 585 179 537 165 l 613 30 q 499 0 566 12 q 359 -14 431 -14 q 125 61 195 -12 q 56 260 54 134 l 56 419 q 81 553 56 492 q 171 651 107 614 q 346 689 235 689 q 517 650 457 688 q 600 547 576 610 q 620 410 621 484 l 620 267 l 620 267 z "},"Ę":{"ha":742,"x_min":91,"x_max":673,"o":"m 602 -168 l 616 -271 q 571 -283 594 -281 q 524 -288 548 -288 q 415 -255 456 -288 q 374 -160 374 -222 q 415 -69 374 -109 q 517 0 454 -28 l 91 0 l 91 925 l 673 925 l 673 741 l 298 741 l 298 571 l 643 571 l 643 387 l 298 387 l 298 184 l 673 184 l 673 0 l 616 0 q 564 -42 589 -20 q 524 -88 540 -65 q 507 -132 507 -111 q 518 -164 507 -153 q 555 -174 530 -174 q 578 -172 564 -174 q 602 -168 590 -171 l 602 -168 z "},"ę":{"ha":675,"x_min":54,"x_max":621,"o":"m 431 418 l 431 446 q 415 507 433 483 q 347 533 399 532 q 275 507 296 532 q 256 446 255 483 l 256 418 l 431 418 l 431 418 m 570 -165 l 582 -270 q 533 -283 560 -279 q 480 -288 505 -288 q 370 -255 411 -288 q 327 -160 328 -222 q 358 -77 327 -115 q 438 -9 388 -39 q 358 -14 399 -14 q 125 61 195 -12 q 56 260 54 134 l 56 419 q 81 553 56 492 q 171 651 107 614 q 346 689 235 689 q 517 650 457 688 q 598 547 576 610 q 620 410 621 484 l 620 267 l 256 267 l 256 248 q 282 170 255 191 q 378 151 311 149 q 481 157 426 151 q 583 179 537 165 l 613 30 q 496 -54 532 -15 q 460 -132 460 -95 q 472 -163 460 -152 q 506 -174 483 -174 q 538 -171 519 -174 q 570 -165 556 -170 l 570 -165 z "},"Ě":{"ha":742,"x_min":91,"x_max":673,"o":"m 519 1207 l 574 1120 q 484 1058 526 1088 q 396 990 444 1027 q 308 1058 349 1027 q 218 1120 266 1088 l 273 1207 q 336 1177 309 1191 q 396 1145 363 1164 q 457 1177 430 1164 q 519 1207 484 1191 l 519 1207 m 673 0 l 91 0 l 91 925 l 673 925 l 673 741 l 298 741 l 298 571 l 643 571 l 643 387 l 298 387 l 298 184 l 673 184 l 673 0 l 673 0 z "},"ě":{"ha":675,"x_min":54,"x_max":621,"o":"m 148 894 l 209 977 q 283 930 254 949 q 346 886 312 910 q 410 930 380 910 q 484 977 438 949 l 545 894 q 446 817 498 859 q 346 731 395 773 q 245 817 297 773 q 148 894 194 859 l 148 894 m 431 418 l 431 446 q 415 507 433 483 q 347 533 399 532 q 275 507 296 532 q 256 446 255 483 l 256 418 l 431 418 l 431 418 m 620 267 l 256 267 l 256 248 q 282 170 255 191 q 378 151 311 149 q 481 157 426 151 q 585 179 537 165 l 613 30 q 499 0 566 12 q 359 -14 431 -14 q 125 61 195 -12 q 56 260 54 134 l 56 419 q 81 553 56 492 q 171 651 107 614 q 346 689 235 689 q 517 650 457 688 q 600 547 576 610 q 620 410 621 484 l 620 267 l 620 267 z "},"Ĝ":{"ha":811,"x_min":71,"x_max":728,"o":"m 602 1074 l 548 989 q 484 1019 511 1005 q 425 1051 457 1032 q 363 1019 391 1032 q 300 989 336 1005 l 245 1074 q 335 1138 294 1107 q 425 1206 377 1169 q 513 1138 471 1169 q 602 1074 553 1107 l 602 1074 m 728 30 l 728 30 q 570 -3 651 8 q 408 -14 490 -14 q 221 22 296 -14 q 109 121 146 57 q 71 269 71 184 l 71 655 q 109 804 71 741 q 221 902 146 868 q 408 939 296 937 q 567 929 490 937 q 704 909 644 921 l 680 727 q 589 738 637 734 q 491 746 538 743 q 408 749 444 749 q 305 713 332 747 q 278 623 277 678 l 278 305 q 305 212 277 250 q 408 174 332 175 q 465 175 438 174 q 532 182 492 176 l 532 465 l 728 465 l 728 30 l 728 30 z "},"ĝ":{"ha":680,"x_min":49,"x_max":652,"o":"m 205 736 l 144 819 q 241 897 190 854 q 342 982 293 940 q 442 897 391 940 q 541 819 494 854 l 480 736 q 406 783 434 764 q 342 827 376 803 q 279 783 308 803 q 205 736 250 764 l 205 736 m 326 330 l 326 330 q 395 346 374 330 q 416 396 416 362 l 416 461 q 396 513 416 494 q 326 532 376 532 q 255 513 275 532 q 235 461 235 494 l 235 396 q 256 346 235 362 q 326 330 277 330 l 326 330 m 49 387 l 49 469 q 114 631 50 572 q 326 689 178 688 q 388 685 359 689 q 441 675 416 682 l 652 675 l 652 582 l 583 556 q 597 514 593 536 q 602 469 601 492 l 602 387 q 533 231 602 289 q 326 172 465 174 l 305 172 q 285 157 293 165 q 275 134 275 149 q 282 115 275 123 q 297 107 288 109 q 370 99 342 102 q 420 94 399 96 q 467 90 442 92 q 590 47 551 84 q 629 -75 631 11 q 595 -202 629 -156 q 492 -269 562 -248 q 319 -288 423 -288 q 239 -283 285 -288 q 144 -273 193 -279 q 49 -252 94 -264 l 79 -107 q 197 -127 140 -121 q 301 -134 255 -134 q 412 -127 378 -136 q 446 -85 448 -118 q 435 -60 448 -66 q 393 -49 423 -52 q 334 -43 357 -45 q 286 -38 311 -41 q 221 -33 262 -37 q 142 -16 175 -27 q 94 19 111 -5 q 77 90 77 45 q 94 160 77 130 q 136 213 110 189 q 71 283 92 240 q 49 387 49 327 l 49 387 z "},"Ğ":{"ha":811,"x_min":71,"x_max":728,"o":"m 532 1187 l 625 1142 q 563 1035 613 1077 q 427 990 514 991 q 290 1035 339 991 q 228 1142 240 1077 l 321 1187 q 358 1120 332 1145 q 427 1096 384 1096 q 495 1120 469 1096 q 532 1187 521 1145 l 532 1187 m 728 30 l 728 30 q 570 -3 651 8 q 408 -14 490 -14 q 221 22 296 -14 q 109 121 146 57 q 71 269 71 184 l 71 655 q 109 804 71 741 q 221 902 146 868 q 408 939 296 937 q 567 929 490 937 q 704 909 644 921 l 680 727 q 589 738 637 734 q 491 746 538 743 q 408 749 444 749 q 305 713 332 747 q 278 623 277 678 l 278 305 q 305 212 277 250 q 408 174 332 175 q 465 175 438 174 q 532 182 492 176 l 532 465 l 728 465 l 728 30 l 728 30 z "},"ğ":{"ha":680,"x_min":49,"x_max":652,"o":"m 467 956 l 560 913 q 528 830 553 868 q 456 766 502 791 q 346 742 411 742 q 236 766 282 742 q 164 830 191 791 q 133 913 138 868 l 225 956 q 266 886 236 914 q 346 856 296 857 q 426 886 396 857 q 467 956 456 914 l 467 956 m 326 330 l 326 330 q 395 346 374 330 q 416 396 416 362 l 416 461 q 396 513 416 494 q 326 532 376 532 q 255 513 275 532 q 235 461 235 494 l 235 396 q 256 346 235 362 q 326 330 277 330 l 326 330 m 49 387 l 49 469 q 114 631 50 572 q 326 689 178 688 q 388 685 359 689 q 441 675 416 682 l 652 675 l 652 582 l 583 556 q 597 514 593 536 q 602 469 601 492 l 602 387 q 533 231 602 289 q 326 172 465 174 l 305 172 q 285 157 293 165 q 275 134 275 149 q 282 115 275 123 q 297 107 288 109 q 370 99 342 102 q 420 94 399 96 q 467 90 442 92 q 590 47 551 84 q 629 -75 631 11 q 595 -202 629 -156 q 492 -269 562 -248 q 319 -288 423 -288 q 239 -283 285 -288 q 144 -273 193 -279 q 49 -252 94 -264 l 79 -107 q 197 -127 140 -121 q 301 -134 255 -134 q 412 -127 378 -136 q 446 -85 448 -118 q 435 -60 448 -66 q 393 -49 423 -52 q 334 -43 357 -45 q 286 -38 311 -41 q 221 -33 262 -37 q 142 -16 175 -27 q 94 19 111 -5 q 77 90 77 45 q 94 160 77 130 q 136 213 110 189 q 71 283 92 240 q 49 387 49 327 l 49 387 z "},"Ġ":{"ha":811,"x_min":71,"x_max":728,"o":"m 521 1010 l 321 1010 l 321 1223 l 521 1223 l 521 1010 l 521 1010 m 728 30 l 728 30 q 570 -3 651 8 q 408 -14 490 -14 q 221 22 296 -14 q 109 121 146 57 q 71 269 71 184 l 71 655 q 109 804 71 741 q 221 902 146 868 q 408 939 296 937 q 567 929 490 937 q 704 909 644 921 l 680 727 q 589 738 637 734 q 491 746 538 743 q 408 749 444 749 q 305 713 332 747 q 278 623 277 678 l 278 305 q 305 212 277 250 q 408 174 332 175 q 465 175 438 174 q 532 182 492 176 l 532 465 l 728 465 l 728 30 l 728 30 z "},"ġ":{"ha":680,"x_min":49,"x_max":652,"o":"m 435 761 l 235 761 l 235 972 l 435 972 l 435 761 l 435 761 m 326 330 l 326 330 q 395 346 374 330 q 416 396 416 362 l 416 461 q 396 513 416 494 q 326 532 376 532 q 255 513 275 532 q 235 461 235 494 l 235 396 q 256 346 235 362 q 326 330 277 330 l 326 330 m 49 387 l 49 469 q 114 631 50 572 q 326 689 178 688 q 388 685 359 689 q 441 675 416 682 l 652 675 l 652 582 l 583 556 q 597 514 593 536 q 602 469 601 492 l 602 387 q 533 231 602 289 q 326 172 465 174 l 305 172 q 285 157 293 165 q 275 134 275 149 q 282 115 275 123 q 297 107 288 109 q 370 99 342 102 q 420 94 399 96 q 467 90 442 92 q 590 47 551 84 q 629 -75 631 11 q 595 -202 629 -156 q 492 -269 562 -248 q 319 -288 423 -288 q 239 -283 285 -288 q 144 -273 193 -279 q 49 -252 94 -264 l 79 -107 q 197 -127 140 -121 q 301 -134 255 -134 q 412 -127 378 -136 q 446 -85 448 -118 q 435 -60 448 -66 q 393 -49 423 -52 q 334 -43 357 -45 q 286 -38 311 -41 q 221 -33 262 -37 q 142 -16 175 -27 q 94 19 111 -5 q 77 90 77 45 q 94 160 77 130 q 136 213 110 189 q 71 283 92 240 q 49 387 49 327 l 49 387 z "},"Ģ":{"ha":811,"x_min":71,"x_max":728,"o":"m 515 -274 l 423 -422 l 347 -376 l 406 -263 l 347 -263 l 347 -68 l 515 -68 l 515 -274 l 515 -274 m 728 30 l 728 30 q 570 -3 651 8 q 408 -14 490 -14 q 221 22 296 -14 q 109 121 146 57 q 71 269 71 184 l 71 655 q 109 804 71 741 q 221 902 146 868 q 408 939 296 937 q 567 929 490 937 q 704 909 644 921 l 680 727 q 589 738 637 734 q 491 746 538 743 q 408 749 444 749 q 305 713 332 747 q 278 623 277 678 l 278 305 q 305 212 277 250 q 408 174 332 175 q 465 175 438 174 q 532 182 492 176 l 532 465 l 728 465 l 728 30 l 728 30 z "},"ģ":{"ha":680,"x_min":49,"x_max":652,"o":"m 326 330 l 326 330 q 395 346 374 330 q 416 396 416 362 l 416 461 q 396 513 416 494 q 326 532 376 532 q 255 513 275 532 q 235 461 235 494 l 235 396 q 256 346 235 362 q 326 330 277 330 l 326 330 m 49 387 l 49 469 q 114 631 50 572 q 326 689 178 688 q 388 685 359 689 q 441 675 416 682 l 652 675 l 652 582 l 583 556 q 597 514 593 536 q 602 469 601 492 l 602 387 q 533 231 602 289 q 326 172 465 174 l 305 172 q 285 157 293 165 q 275 134 275 149 q 282 115 275 123 q 297 107 288 109 q 370 99 342 102 q 420 94 399 96 q 467 90 442 92 q 590 47 551 84 q 629 -75 631 11 q 595 -202 629 -156 q 492 -269 562 -248 q 319 -288 423 -288 q 239 -283 285 -288 q 144 -273 193 -279 q 49 -252 94 -264 l 79 -107 q 197 -127 140 -121 q 301 -134 255 -134 q 412 -127 378 -136 q 446 -85 448 -118 q 435 -60 448 -66 q 393 -49 423 -52 q 334 -43 357 -45 q 286 -38 311 -41 q 221 -33 262 -37 q 142 -16 175 -27 q 94 19 111 -5 q 77 90 77 45 q 94 160 77 130 q 136 213 110 189 q 71 283 92 240 q 49 387 49 327 l 49 387 m 256 944 l 342 1081 l 411 1038 l 357 935 l 411 935 l 411 754 l 256 754 l 256 944 l 256 944 z "},"Ĥ":{"ha":895,"x_min":91,"x_max":806,"o":"m 621 1074 l 567 989 q 503 1019 530 1005 q 444 1051 476 1032 q 382 1019 410 1032 q 320 989 355 1005 l 266 1074 q 355 1138 313 1107 q 444 1206 396 1169 q 532 1138 490 1169 q 621 1074 574 1107 l 621 1074 m 806 0 l 598 0 l 598 372 l 298 372 l 298 0 l 91 0 l 91 925 l 298 925 l 298 556 l 598 556 l 598 925 l 806 925 l 806 0 l 806 0 z "},"ĥ":{"ha":768,"x_min":9,"x_max":686,"o":"m 366 1116 l 312 1031 q 248 1061 275 1047 q 187 1093 221 1074 q 127 1061 155 1074 q 64 1031 100 1047 l 9 1116 q 99 1180 58 1149 q 187 1246 141 1210 q 277 1180 235 1210 q 366 1116 317 1149 l 366 1116 m 685 0 l 486 0 l 486 446 q 473 483 486 469 q 437 495 463 495 q 366 479 408 494 q 290 445 324 463 l 290 0 l 91 0 l 91 952 l 288 981 l 288 627 q 411 673 350 655 q 530 689 471 689 q 651 629 614 688 q 685 473 686 572 l 685 0 l 685 0 z "},"Ħ":{"ha":910,"x_min":20,"x_max":890,"o":"m 305 556 l 605 556 l 605 692 l 305 692 l 305 556 l 305 556 m 20 692 l 20 789 l 98 789 l 98 925 l 305 925 l 305 789 l 605 789 l 605 925 l 812 925 l 812 789 l 890 789 l 890 692 l 812 692 l 812 0 l 605 0 l 605 372 l 305 372 l 305 0 l 98 0 l 98 692 l 20 692 l 20 692 z "},"ħ":{"ha":768,"x_min":8,"x_max":686,"o":"m 8 753 l 8 850 l 91 850 l 91 952 l 288 981 l 288 850 l 408 850 l 408 753 l 288 753 l 288 627 q 411 673 350 655 q 530 689 471 689 q 651 629 614 688 q 685 473 686 572 l 685 0 l 486 0 l 486 446 q 473 483 486 469 q 437 495 463 495 q 366 479 408 494 q 290 445 324 463 l 290 0 l 91 0 l 91 753 l 8 753 l 8 753 z "},"Ĩ":{"ha":403,"x_min":-15,"x_max":439,"o":"m 292 996 l 292 996 q 241 1002 262 996 q 199 1024 220 1010 q 167 1047 180 1039 q 136 1055 152 1055 q 95 1034 111 1054 q 65 993 77 1013 l -15 1055 q 23 1115 1 1086 q 72 1158 45 1142 q 132 1176 99 1176 q 176 1171 155 1176 q 221 1147 197 1164 q 262 1123 244 1131 q 292 1115 278 1115 q 327 1130 315 1115 q 345 1172 339 1143 l 439 1128 q 384 1031 422 1066 q 292 996 346 996 l 292 996 m 305 0 l 98 0 l 98 925 l 305 925 l 305 0 l 305 0 z "},"ĩ":{"ha":381,"x_min":-35,"x_max":418,"o":"m 271 758 l 271 758 q 220 765 241 758 q 178 787 198 773 q 145 810 160 800 q 114 818 132 818 q 73 796 91 817 q 45 755 57 776 l -35 818 q 26 902 -12 867 q 110 939 62 936 q 155 932 134 939 q 201 909 176 925 q 240 886 224 894 q 271 878 256 878 q 307 891 294 878 q 324 935 317 906 l 418 891 q 363 793 400 829 q 271 758 326 758 l 271 758 m 290 0 l 91 0 l 91 675 l 290 675 l 290 0 l 290 0 z "},"Ī":{"ha":403,"x_min":27,"x_max":380,"o":"m 380 1013 l 27 1013 l 27 1141 l 380 1141 l 380 1013 l 380 1013 m 305 0 l 98 0 l 98 925 l 305 925 l 305 0 l 305 0 z "},"ī":{"ha":381,"x_min":14,"x_max":368,"o":"m 368 777 l 14 777 l 14 905 l 368 905 l 368 777 l 368 777 m 290 0 l 91 0 l 91 675 l 290 675 l 290 0 l 290 0 z "},"Ĭ":{"ha":403,"x_min":3,"x_max":400,"o":"m 308 1187 l 400 1142 q 339 1035 388 1077 q 202 990 289 991 q 65 1035 114 991 q 3 1142 15 1077 l 96 1187 q 133 1120 107 1145 q 202 1096 159 1096 q 270 1120 244 1096 q 308 1187 296 1145 l 308 1187 m 305 0 l 98 0 l 98 925 l 305 925 l 305 0 l 305 0 z "},"ĭ":{"ha":381,"x_min":-23,"x_max":404,"o":"m 312 956 l 404 913 q 372 830 399 868 q 301 766 346 791 q 191 742 255 742 q 80 766 126 742 q 9 830 35 791 q -23 913 -18 868 l 69 956 q 111 886 81 914 q 191 856 141 857 q 270 886 240 857 q 312 956 300 914 l 312 956 m 290 0 l 91 0 l 91 675 l 290 675 l 290 0 l 290 0 z "},"Į":{"ha":403,"x_min":23,"x_max":305,"o":"m 269 -170 l 279 -271 q 227 -285 252 -281 q 178 -288 202 -288 q 68 -255 110 -288 q 24 -160 24 -222 q 42 -80 23 -118 q 98 0 60 -41 l 98 925 l 305 925 l 305 0 l 195 0 q 159 -80 168 -49 q 149 -134 148 -111 q 159 -165 148 -153 q 194 -178 168 -178 q 233 -175 213 -178 q 269 -170 255 -172 l 269 -170 z "},"į":{"ha":381,"x_min":8,"x_max":290,"o":"m 290 761 l 91 761 l 91 972 l 290 972 l 290 761 l 290 761 m 254 -170 l 264 -271 q 212 -285 237 -281 q 163 -288 187 -288 q 53 -255 95 -288 q 8 -160 9 -222 q 31 -75 9 -114 q 91 0 53 -35 l 91 675 l 290 675 l 290 0 l 180 0 q 144 -80 153 -49 q 134 -134 133 -111 q 142 -165 133 -153 q 179 -178 153 -178 q 218 -175 198 -178 q 254 -170 240 -172 l 254 -170 z "},"İ":{"ha":403,"x_min":98,"x_max":307,"o":"m 307 1010 l 106 1010 l 106 1223 l 307 1223 l 307 1010 l 307 1010 m 305 0 l 98 0 l 98 925 l 305 925 l 305 0 l 305 0 z "},"ı":{"ha":381,"x_min":91,"x_max":290,"o":"m 290 0 l 91 0 l 91 675 l 290 675 l 290 0 l 290 0 z "},"Ĳ":{"ha":785,"x_min":98,"x_max":701,"o":"m 505 -293 l 381 -145 q 456 -83 431 -106 q 487 -41 479 -58 q 494 0 494 -23 l 494 925 l 701 925 l 701 -31 q 650 -159 701 -96 q 505 -293 598 -221 l 505 -293 m 305 0 l 98 0 l 98 925 l 305 925 l 305 0 l 305 0 z "},"ĳ":{"ha":747,"x_min":91,"x_max":665,"o":"m 481 -288 l 359 -157 q 435 -81 408 -115 q 464 -5 464 -49 l 464 675 l 665 675 l 665 -31 q 618 -151 665 -91 q 481 -288 574 -212 l 481 -288 m 665 761 l 464 761 l 464 972 l 665 972 l 665 761 l 665 761 m 290 0 l 91 0 l 91 675 l 290 675 l 290 0 l 290 0 m 290 761 l 91 761 l 91 972 l 290 972 l 290 761 l 290 761 z "},"Ĵ":{"ha":382,"x_min":-22,"x_max":373,"o":"m 373 1074 l 319 989 q 255 1019 282 1005 q 195 1051 228 1032 q 134 1019 161 1032 q 71 989 107 1005 l 18 1074 q 106 1138 65 1107 q 195 1206 148 1169 q 283 1138 241 1169 q 373 1074 324 1107 l 373 1074 m 102 -293 l -22 -145 q 53 -83 28 -106 q 84 -41 76 -58 q 91 0 91 -23 l 91 925 l 298 925 l 298 -31 q 247 -159 298 -96 q 102 -293 195 -221 l 102 -293 z "},"ĵ":{"ha":366,"x_min":-20,"x_max":382,"o":"m 46 736 l -15 819 q 83 897 31 854 q 183 982 136 940 q 283 897 232 940 q 382 819 336 854 l 321 736 q 247 783 275 764 q 183 827 217 803 q 121 783 151 803 q 46 736 91 764 l 46 736 m 100 -288 l -20 -157 q 37 -103 14 -126 q 72 -60 60 -81 q 84 -5 84 -38 l 84 675 l 283 675 l 283 -31 q 239 -151 283 -91 q 100 -288 193 -212 l 100 -288 z "},"Ķ":{"ha":857,"x_min":91,"x_max":829,"o":"m 526 -274 l 434 -422 l 358 -376 l 416 -263 l 358 -263 l 358 -68 l 526 -68 l 526 -274 l 526 -274 m 594 0 l 326 472 l 575 925 l 810 925 l 551 472 l 829 0 l 594 0 l 594 0 m 91 0 l 91 925 l 298 925 l 298 0 l 91 0 l 91 0 z "},"ķ":{"ha":732,"x_min":91,"x_max":711,"o":"m 477 -274 l 384 -422 l 309 -376 l 368 -263 l 309 -263 l 309 -68 l 477 -68 l 477 -274 l 477 -274 m 317 340 l 490 675 l 703 675 l 525 340 l 711 0 l 498 0 l 317 340 l 317 340 m 290 0 l 91 0 l 91 952 l 290 981 l 290 0 l 290 0 z "},"ĸ":{"ha":732,"x_min":91,"x_max":711,"o":"m 317 340 l 490 675 l 703 675 l 525 340 l 711 0 l 498 0 l 317 340 l 317 340 m 290 0 l 91 0 l 91 675 l 290 675 l 290 0 l 290 0 z "},"Ĺ":{"ha":693,"x_min":91,"x_max":666,"o":"m 187 982 l 118 1088 q 218 1152 170 1119 q 308 1215 266 1184 l 382 1099 q 290 1038 334 1063 q 187 982 245 1012 l 187 982 m 666 0 l 91 0 l 91 925 l 298 925 l 298 184 l 666 184 l 666 0 l 666 0 z "},"ĺ":{"ha":381,"x_min":91,"x_max":370,"o":"m 175 1038 l 106 1143 q 206 1207 157 1175 q 294 1271 254 1240 l 370 1154 q 277 1093 321 1119 q 175 1038 233 1067 l 175 1038 m 290 0 l 91 0 l 91 952 l 290 981 l 290 0 l 290 0 z "},"Ļ":{"ha":693,"x_min":91,"x_max":666,"o":"m 481 -274 l 388 -422 l 313 -376 l 372 -263 l 313 -263 l 313 -68 l 481 -68 l 481 -274 l 481 -274 m 666 0 l 91 0 l 91 925 l 298 925 l 298 184 l 666 184 l 666 0 l 666 0 z "},"ļ":{"ha":381,"x_min":91,"x_max":290,"o":"m 274 -274 l 182 -422 l 106 -376 l 164 -263 l 106 -263 l 106 -68 l 274 -68 l 274 -274 l 274 -274 m 290 0 l 91 0 l 91 952 l 290 981 l 290 0 l 290 0 z "},"Ľ":{"ha":693,"x_min":91,"x_max":666,"o":"m 612 802 l 524 669 l 468 708 l 525 811 l 458 811 l 458 952 l 612 952 l 612 802 l 612 802 m 666 0 l 91 0 l 91 925 l 298 925 l 298 184 l 666 184 l 666 0 l 666 0 z "},"ľ":{"ha":518,"x_min":91,"x_max":553,"o":"m 553 802 l 465 669 l 410 708 l 467 811 l 400 811 l 400 952 l 553 952 l 553 802 l 553 802 m 290 0 l 91 0 l 91 952 l 290 981 l 290 0 l 290 0 z "},"Ŀ":{"ha":693,"x_min":91,"x_max":666,"o":"m 629 400 l 430 400 l 430 612 l 629 612 l 629 400 l 629 400 m 666 0 l 91 0 l 91 925 l 298 925 l 298 184 l 666 184 l 666 0 l 666 0 z "},"ŀ":{"ha":594,"x_min":91,"x_max":581,"o":"m 581 275 l 381 275 l 381 487 l 581 487 l 581 275 l 581 275 m 290 0 l 91 0 l 91 952 l 290 981 l 290 0 l 290 0 z "},"Ł":{"ha":735,"x_min":1,"x_max":708,"o":"m 1 431 l 133 486 l 133 925 l 340 925 l 340 571 l 528 647 l 575 522 l 340 427 l 340 184 l 708 184 l 708 0 l 133 0 l 133 342 l 47 309 l 1 431 l 1 431 z "},"ł":{"ha":465,"x_min":14,"x_max":458,"o":"m 14 449 l 118 490 l 118 952 l 319 981 l 319 572 l 411 609 l 458 484 l 319 429 l 319 0 l 118 0 l 118 349 l 61 326 l 14 449 l 14 449 z "},"Ń":{"ha":939,"x_min":91,"x_max":849,"o":"m 464 982 l 395 1088 q 495 1152 446 1119 q 583 1215 543 1184 l 659 1099 q 566 1038 610 1063 q 464 982 522 1012 l 464 982 m 591 0 l 289 608 l 289 0 l 91 0 l 91 925 l 346 925 l 650 288 l 650 925 l 849 925 l 849 0 l 591 0 l 591 0 z "},"ń":{"ha":768,"x_min":91,"x_max":686,"o":"m 351 746 l 282 850 q 385 918 334 883 q 492 993 437 952 l 567 876 q 457 807 506 837 q 351 746 408 777 l 351 746 m 685 0 l 486 0 l 486 446 q 473 483 486 469 q 437 495 463 495 q 366 480 408 495 q 290 446 324 465 l 290 0 l 91 0 l 91 675 l 239 675 l 260 624 q 350 659 302 644 q 444 681 397 674 q 530 689 490 689 q 651 629 614 688 q 685 473 686 572 l 685 0 l 685 0 z "},"Ņ":{"ha":939,"x_min":91,"x_max":849,"o":"m 541 -274 l 448 -422 l 373 -376 l 431 -263 l 373 -263 l 373 -68 l 541 -68 l 541 -274 l 541 -274 m 591 0 l 289 608 l 289 0 l 91 0 l 91 925 l 346 925 l 650 288 l 650 925 l 849 925 l 849 0 l 591 0 l 591 0 z "},"ņ":{"ha":768,"x_min":91,"x_max":686,"o":"m 476 -274 l 382 -422 l 308 -376 l 366 -263 l 308 -263 l 308 -68 l 476 -68 l 476 -274 l 476 -274 m 685 0 l 486 0 l 486 446 q 473 483 486 469 q 437 495 463 495 q 366 480 408 495 q 290 446 324 465 l 290 0 l 91 0 l 91 675 l 239 675 l 260 624 q 350 659 302 644 q 444 681 397 674 q 530 689 490 689 q 651 629 614 688 q 685 473 686 572 l 685 0 l 685 0 z "},"Ň":{"ha":939,"x_min":91,"x_max":849,"o":"m 616 1207 l 670 1120 q 581 1058 621 1088 q 492 990 538 1027 q 404 1058 445 1027 q 315 1120 362 1088 l 369 1207 q 431 1177 404 1191 q 492 1145 458 1164 q 552 1177 525 1164 q 616 1207 579 1191 l 616 1207 m 591 0 l 289 608 l 289 0 l 91 0 l 91 925 l 346 925 l 650 288 l 650 925 l 849 925 l 849 0 l 591 0 l 591 0 z "},"ň":{"ha":768,"x_min":91,"x_max":686,"o":"m 201 894 l 262 977 q 336 930 307 949 q 399 886 365 910 q 463 930 433 910 q 537 977 491 949 l 598 894 q 499 817 551 859 q 399 731 448 773 q 298 817 350 773 q 201 894 247 859 l 201 894 m 685 0 l 486 0 l 486 446 q 473 483 486 469 q 437 495 463 495 q 366 480 408 495 q 290 446 324 465 l 290 0 l 91 0 l 91 675 l 239 675 l 260 624 q 350 659 302 644 q 444 681 397 674 q 530 689 490 689 q 651 629 614 688 q 685 473 686 572 l 685 0 l 685 0 z "},"Ŋ":{"ha":939,"x_min":91,"x_max":849,"o":"m 591 0 l 289 608 l 289 0 l 91 0 l 91 925 l 346 925 l 650 288 l 650 925 l 849 925 l 849 -19 q 829 -111 849 -72 q 753 -191 808 -151 q 595 -288 697 -231 l 513 -160 q 605 -99 574 -122 q 647 -58 636 -76 q 655 -20 656 -41 l 655 0 l 591 0 l 591 0 z "},"ŋ":{"ha":768,"x_min":91,"x_max":686,"o":"m 433 -288 l 349 -160 q 433 -99 403 -122 q 475 -58 463 -75 q 486 -20 486 -41 l 486 446 q 473 483 486 469 q 437 495 463 495 q 366 480 408 495 q 290 446 324 465 l 290 0 l 91 0 l 91 675 l 239 675 l 260 624 q 350 659 302 644 q 444 681 397 674 q 530 689 490 689 q 651 629 614 688 q 685 473 686 572 l 685 -19 q 666 -111 686 -72 q 590 -191 644 -151 q 433 -288 534 -231 l 433 -288 z "},"Ō":{"ha":856,"x_min":69,"x_max":787,"o":"m 605 1013 l 252 1013 l 252 1141 l 605 1141 l 605 1013 l 605 1013 m 578 288 l 578 637 q 543 723 579 692 q 429 754 506 753 q 315 723 350 753 q 278 637 278 692 l 278 288 q 315 202 278 232 q 429 171 350 171 q 543 202 506 171 q 578 288 579 232 l 578 288 m 787 655 l 787 269 q 751 133 787 198 q 637 28 716 69 q 429 -14 557 -12 q 220 28 298 -12 q 104 133 141 69 q 71 269 69 198 l 71 655 q 104 791 69 727 q 220 897 141 854 q 429 939 298 937 q 637 897 557 937 q 751 791 716 854 q 787 655 787 727 l 787 655 z "},"ō":{"ha":722,"x_min":56,"x_max":667,"o":"m 538 777 l 184 777 l 184 905 l 538 905 l 538 777 l 538 777 m 362 155 l 362 155 q 441 180 415 155 q 467 254 467 206 l 467 422 q 441 495 467 469 q 362 521 415 521 q 282 495 308 521 q 256 422 256 469 l 256 254 q 282 180 256 206 q 362 155 308 155 l 362 155 m 362 -14 l 362 -14 q 175 26 243 -12 q 81 127 109 65 q 56 259 56 189 l 56 416 q 81 548 56 487 q 175 650 109 610 q 362 689 243 688 q 548 650 480 688 q 642 548 614 610 q 667 416 667 487 l 667 259 q 642 127 667 189 q 548 26 614 65 q 362 -14 480 -12 l 362 -14 z "},"Ŏ":{"ha":856,"x_min":69,"x_max":787,"o":"m 533 1187 l 627 1142 q 566 1035 614 1077 q 429 990 515 991 q 292 1035 340 991 q 229 1142 241 1077 l 323 1187 q 359 1120 334 1145 q 429 1096 385 1096 q 496 1120 471 1096 q 533 1187 522 1145 l 533 1187 m 578 288 l 578 637 q 543 723 579 692 q 429 754 506 753 q 315 723 350 753 q 278 637 278 692 l 278 288 q 315 202 278 232 q 429 171 350 171 q 543 202 506 171 q 578 288 579 232 l 578 288 m 787 655 l 787 269 q 751 133 787 198 q 637 28 716 69 q 429 -14 557 -12 q 220 28 298 -12 q 104 133 141 69 q 71 269 69 198 l 71 655 q 104 791 69 727 q 220 897 141 854 q 429 939 298 937 q 637 897 557 937 q 751 791 716 854 q 787 655 787 727 l 787 655 z "},"ŏ":{"ha":722,"x_min":56,"x_max":667,"o":"m 483 956 l 575 913 q 543 830 570 868 q 472 766 517 791 q 361 742 426 742 q 251 766 297 742 q 180 830 206 791 q 148 913 153 868 l 240 956 q 282 886 252 914 q 361 856 312 857 q 441 886 411 857 q 483 956 471 914 l 483 956 m 362 155 l 362 155 q 441 180 415 155 q 467 254 467 206 l 467 422 q 441 495 467 469 q 362 521 415 521 q 282 495 308 521 q 256 422 256 469 l 256 254 q 282 180 256 206 q 362 155 308 155 l 362 155 m 362 -14 l 362 -14 q 175 26 243 -12 q 81 127 109 65 q 56 259 56 189 l 56 416 q 81 548 56 487 q 175 650 109 610 q 362 689 243 688 q 548 650 480 688 q 642 548 614 610 q 667 416 667 487 l 667 259 q 642 127 667 189 q 548 26 614 65 q 362 -14 480 -12 l 362 -14 z "},"Ő":{"ha":856,"x_min":69,"x_max":787,"o":"m 566 979 l 475 1067 q 547 1138 511 1101 q 614 1213 583 1176 l 712 1114 q 643 1044 680 1078 q 566 979 606 1009 l 566 979 m 316 979 l 225 1067 q 297 1138 262 1101 q 365 1213 332 1176 l 461 1114 q 393 1044 429 1078 q 316 979 357 1009 l 316 979 m 578 288 l 578 637 q 543 723 579 692 q 429 754 506 753 q 315 723 350 753 q 278 637 278 692 l 278 288 q 315 202 278 232 q 429 171 350 171 q 543 202 506 171 q 578 288 579 232 l 578 288 m 787 655 l 787 269 q 751 133 787 198 q 637 28 716 69 q 429 -14 557 -12 q 220 28 298 -12 q 104 133 141 69 q 71 269 69 198 l 71 655 q 104 791 69 727 q 220 897 141 854 q 429 939 298 937 q 637 897 557 937 q 751 791 716 854 q 787 655 787 727 l 787 655 z "},"ő":{"ha":722,"x_min":56,"x_max":678,"o":"m 506 735 l 416 825 q 498 903 460 863 q 581 993 537 943 l 678 894 q 617 833 644 859 q 566 785 591 808 q 506 735 540 762 l 506 735 m 241 735 l 153 825 q 235 903 197 863 q 317 993 273 943 l 414 894 q 354 833 380 859 q 301 785 327 808 q 241 735 275 762 l 241 735 m 362 155 l 362 155 q 441 180 415 155 q 467 254 467 206 l 467 422 q 441 495 467 469 q 362 521 415 521 q 282 495 308 521 q 256 422 256 469 l 256 254 q 282 180 256 206 q 362 155 308 155 l 362 155 m 362 -14 l 362 -14 q 175 26 243 -12 q 81 127 109 65 q 56 259 56 189 l 56 416 q 81 548 56 487 q 175 650 109 610 q 362 689 243 688 q 548 650 480 688 q 642 548 614 610 q 667 416 667 487 l 667 259 q 642 127 667 189 q 548 26 614 65 q 362 -14 480 -12 l 362 -14 z "},"Œ":{"ha":1238,"x_min":69,"x_max":1169,"o":"m 429 741 l 429 741 q 315 709 350 739 q 278 624 278 678 l 278 301 q 315 216 278 247 q 429 184 350 184 l 587 184 l 587 741 l 429 741 l 429 741 m 71 642 l 71 642 q 104 777 69 713 q 220 883 141 841 q 429 925 298 924 l 1169 925 l 1169 741 l 796 741 l 796 571 l 1141 571 l 1141 387 l 796 387 l 796 184 l 1169 184 l 1169 0 l 429 0 q 220 42 298 1 q 104 146 141 83 q 71 283 69 212 l 71 642 l 71 642 z "},"œ":{"ha":1086,"x_min":56,"x_max":1032,"o":"m 842 418 l 842 446 q 826 507 844 483 q 758 533 810 532 q 686 507 707 532 q 667 446 666 483 l 667 418 l 842 418 l 842 418 m 362 155 l 362 155 q 439 179 414 155 q 467 248 465 202 l 467 430 q 438 498 464 473 q 362 521 412 521 q 282 495 308 521 q 256 422 256 469 l 256 254 q 282 180 256 206 q 362 155 308 155 l 362 155 m 1031 267 l 667 267 l 667 248 q 693 170 666 191 q 789 151 722 149 q 891 157 837 151 q 997 178 947 163 l 1024 27 q 948 7 993 15 q 857 -8 905 -3 q 769 -14 811 -14 q 651 0 703 -14 q 564 42 601 15 q 480 3 530 18 q 362 -14 429 -14 q 175 26 243 -12 q 81 127 109 65 q 56 259 56 189 l 56 416 q 81 548 56 487 q 175 650 109 610 q 362 689 243 688 q 477 673 427 689 q 563 633 528 658 q 646 674 600 661 q 757 689 692 689 q 928 647 868 688 q 1010 544 987 606 q 1031 410 1032 480 l 1031 267 l 1031 267 z "},"Ŕ":{"ha":892,"x_min":91,"x_max":872,"o":"m 385 982 l 316 1088 q 415 1152 368 1119 q 505 1215 464 1184 l 579 1099 q 487 1038 532 1063 q 385 982 444 1012 l 385 982 m 575 570 l 575 643 q 552 718 576 694 q 464 741 526 741 l 298 741 l 298 468 l 464 468 q 553 492 529 468 q 575 570 576 517 l 575 570 m 625 0 l 420 288 l 298 288 l 298 0 l 91 0 l 91 925 l 475 925 q 655 895 587 925 q 754 807 723 865 q 784 662 784 749 l 784 548 q 751 404 784 461 q 648 316 719 346 l 872 0 l 625 0 l 625 0 z "},"ŕ":{"ha":479,"x_min":91,"x_max":469,"o":"m 213 746 l 144 850 q 245 918 194 883 q 353 993 298 952 l 429 876 q 319 807 368 837 q 213 746 270 777 l 213 746 m 469 500 l 469 500 q 374 458 423 483 q 290 412 324 435 l 290 0 l 91 0 l 91 675 l 258 675 l 271 610 q 324 640 293 624 q 391 670 357 656 q 453 689 426 684 l 469 500 l 469 500 z "},"Ŗ":{"ha":892,"x_min":91,"x_max":872,"o":"m 534 -274 l 441 -422 l 366 -376 l 425 -263 l 366 -263 l 366 -68 l 534 -68 l 534 -274 l 534 -274 m 575 570 l 575 643 q 552 718 576 694 q 464 741 526 741 l 298 741 l 298 468 l 464 468 q 553 492 529 468 q 575 570 576 517 l 575 570 m 625 0 l 420 288 l 298 288 l 298 0 l 91 0 l 91 925 l 475 925 q 655 895 587 925 q 754 807 723 865 q 784 662 784 749 l 784 548 q 751 404 784 461 q 648 316 719 346 l 872 0 l 625 0 l 625 0 z "},"ŗ":{"ha":479,"x_min":91,"x_max":469,"o":"m 273 -274 l 180 -422 l 104 -376 l 163 -263 l 104 -263 l 104 -68 l 273 -68 l 273 -274 l 273 -274 m 469 500 l 469 500 q 374 458 423 483 q 290 412 324 435 l 290 0 l 91 0 l 91 675 l 258 675 l 271 610 q 324 640 293 624 q 391 670 357 656 q 453 689 426 684 l 469 500 l 469 500 z "},"Ř":{"ha":892,"x_min":91,"x_max":872,"o":"m 538 1207 l 591 1120 q 503 1058 544 1088 q 414 990 461 1027 q 326 1058 368 1027 q 236 1120 285 1088 l 290 1207 q 354 1177 327 1191 q 414 1145 381 1164 q 475 1177 448 1164 q 538 1207 502 1191 l 538 1207 m 575 570 l 575 643 q 552 718 576 694 q 464 741 526 741 l 298 741 l 298 468 l 464 468 q 553 492 529 468 q 575 570 576 517 l 575 570 m 625 0 l 420 288 l 298 288 l 298 0 l 91 0 l 91 925 l 475 925 q 655 895 587 925 q 754 807 723 865 q 784 662 784 749 l 784 548 q 751 404 784 461 q 648 316 719 346 l 872 0 l 625 0 l 625 0 z "},"ř":{"ha":479,"x_min":65,"x_max":469,"o":"m 65 894 l 126 977 q 201 930 172 949 q 264 886 231 910 q 327 930 298 910 q 401 977 357 949 l 463 894 q 365 817 416 859 q 264 731 313 773 q 164 817 216 773 q 65 894 113 859 l 65 894 m 469 500 l 469 500 q 374 458 423 483 q 290 412 324 435 l 290 0 l 91 0 l 91 675 l 258 675 l 271 610 q 324 640 293 624 q 391 670 357 656 q 453 689 426 684 l 469 500 l 469 500 z "},"Ś":{"ha":755,"x_min":62,"x_max":701,"o":"m 358 982 l 289 1088 q 389 1152 340 1119 q 479 1215 437 1184 l 553 1099 q 461 1038 505 1063 q 358 982 416 1012 l 358 982 m 700 259 l 700 259 q 674 107 701 168 q 574 16 647 46 q 362 -14 499 -14 q 202 3 279 -14 q 62 46 123 19 l 98 206 q 227 175 161 187 q 365 163 293 163 q 445 171 418 161 q 483 201 473 179 q 492 260 492 222 q 486 323 494 301 q 444 358 477 345 q 336 388 411 372 q 171 441 227 410 q 96 526 115 471 q 80 680 79 582 q 106 829 79 772 q 203 913 133 886 q 399 939 273 939 q 530 932 460 939 q 680 907 602 924 l 659 732 q 522 753 581 746 q 401 760 463 760 q 309 742 334 761 q 288 674 286 724 q 294 610 286 631 q 334 578 302 590 q 438 549 366 566 q 585 505 530 528 q 663 450 637 481 q 694 373 688 419 q 700 259 701 327 l 700 259 z "},"ś":{"ha":601,"x_min":56,"x_max":555,"o":"m 282 746 l 213 850 q 316 918 263 883 q 423 993 368 952 l 498 876 q 388 807 437 837 q 282 746 339 777 l 282 746 m 553 201 l 553 201 q 530 84 553 132 q 453 11 507 35 q 301 -14 397 -14 q 220 -8 264 -14 q 133 5 176 -3 q 56 26 91 15 l 88 175 q 183 153 130 161 q 292 144 235 144 q 349 157 335 144 q 361 201 362 171 q 357 233 362 222 q 328 255 351 245 q 252 275 305 263 q 133 320 171 296 q 83 385 94 346 q 73 487 72 425 q 95 602 72 559 q 174 669 118 647 q 331 689 231 689 q 393 686 357 689 q 468 680 430 685 q 536 667 506 674 l 518 511 q 423 526 472 521 q 332 532 373 532 q 274 519 289 532 q 260 486 259 509 q 264 454 259 465 q 288 435 270 444 q 346 420 307 429 q 486 374 441 400 q 543 308 530 349 q 553 201 555 267 l 553 201 z "},"Ŝ":{"ha":755,"x_min":62,"x_max":701,"o":"m 585 1074 l 530 989 q 468 1019 495 1005 q 407 1051 441 1032 q 347 1019 374 1032 q 283 989 320 1005 l 229 1074 q 319 1138 278 1107 q 407 1206 361 1169 q 495 1138 454 1169 q 585 1074 537 1107 l 585 1074 m 700 259 l 700 259 q 674 107 701 168 q 574 16 647 46 q 362 -14 499 -14 q 202 3 279 -14 q 62 46 123 19 l 98 206 q 227 175 161 187 q 365 163 293 163 q 445 171 418 161 q 483 201 473 179 q 492 260 492 222 q 486 323 494 301 q 444 358 477 345 q 336 388 411 372 q 171 441 227 410 q 96 526 115 471 q 80 680 79 582 q 106 829 79 772 q 203 913 133 886 q 399 939 273 939 q 530 932 460 939 q 680 907 602 924 l 659 732 q 522 753 581 746 q 401 760 463 760 q 309 742 334 761 q 288 674 286 724 q 294 610 286 631 q 334 578 302 590 q 438 549 366 566 q 585 505 530 528 q 663 450 637 481 q 694 373 688 419 q 700 259 701 327 l 700 259 z "},"ŝ":{"ha":601,"x_min":56,"x_max":555,"o":"m 184 736 l 123 819 q 222 897 171 854 q 323 982 274 940 q 423 897 372 940 q 521 819 475 854 l 460 736 q 385 783 415 764 q 323 827 357 803 q 259 783 289 803 q 184 736 231 764 l 184 736 m 553 201 l 553 201 q 530 84 553 132 q 453 11 507 35 q 301 -14 397 -14 q 220 -8 264 -14 q 133 5 176 -3 q 56 26 91 15 l 88 175 q 183 153 130 161 q 292 144 235 144 q 349 157 335 144 q 361 201 362 171 q 357 233 362 222 q 328 255 351 245 q 252 275 305 263 q 133 320 171 296 q 83 385 94 346 q 73 487 72 425 q 95 602 72 559 q 174 669 118 647 q 331 689 231 689 q 393 686 357 689 q 468 680 430 685 q 536 667 506 674 l 518 511 q 423 526 472 521 q 332 532 373 532 q 274 519 289 532 q 260 486 259 509 q 264 454 259 465 q 288 435 270 444 q 346 420 307 429 q 486 374 441 400 q 543 308 530 349 q 553 201 555 267 l 553 201 z "},"Ş":{"ha":755,"x_min":62,"x_max":701,"o":"m 534 -160 l 534 -160 q 500 -243 536 -213 q 380 -274 465 -273 q 323 -267 357 -274 q 263 -251 289 -260 l 282 -175 q 324 -184 301 -180 q 369 -189 347 -189 q 418 -183 400 -190 q 434 -159 434 -176 q 422 -132 434 -136 q 385 -127 410 -126 q 359 -129 374 -127 q 327 -130 343 -129 l 298 -107 l 319 -12 q 182 7 248 -8 q 62 46 115 22 l 98 206 q 227 175 161 187 q 365 163 293 163 q 445 171 418 161 q 483 201 473 179 q 492 260 492 222 q 486 323 494 301 q 444 358 477 345 q 336 388 411 372 q 171 441 227 410 q 96 526 115 471 q 80 680 79 582 q 106 829 79 772 q 203 913 133 886 q 399 939 273 939 q 530 932 460 939 q 680 907 602 924 l 659 732 q 522 753 581 746 q 401 760 463 760 q 309 742 334 761 q 288 674 286 724 q 294 610 286 631 q 334 578 302 590 q 438 549 366 566 q 585 505 530 528 q 663 450 637 481 q 694 373 688 419 q 700 259 701 327 q 678 114 701 172 q 590 24 654 56 q 407 -12 526 -8 l 397 -65 q 505 -79 473 -54 q 534 -160 536 -102 l 534 -160 z "},"ş":{"ha":601,"x_min":56,"x_max":555,"o":"m 454 -160 l 454 -160 q 420 -243 456 -213 q 298 -274 385 -273 q 241 -267 275 -274 q 182 -251 208 -260 l 202 -175 q 243 -184 220 -180 q 288 -189 266 -189 q 336 -183 320 -190 q 353 -159 353 -176 q 340 -132 353 -136 q 304 -127 330 -126 q 278 -129 293 -127 q 245 -130 263 -129 l 218 -107 l 239 -9 q 141 4 190 -5 q 56 26 94 14 l 88 175 q 182 153 130 161 q 292 144 235 144 q 349 157 335 144 q 361 201 362 171 q 357 233 362 222 q 328 255 351 245 q 251 275 305 263 q 132 320 171 296 q 83 385 94 346 q 72 487 71 425 q 94 602 72 559 q 174 669 117 647 q 331 689 231 689 q 393 686 357 689 q 468 680 430 685 q 536 667 506 674 l 518 511 q 423 526 472 521 q 332 532 373 532 q 274 519 289 532 q 260 486 259 509 q 264 454 259 465 q 288 435 270 444 q 346 420 307 429 q 486 374 441 400 q 543 308 530 349 q 553 201 555 267 q 533 88 553 134 q 461 16 511 42 q 327 -12 412 -9 l 317 -65 q 423 -79 392 -54 q 454 -160 456 -102 l 454 -160 z "},"Š":{"ha":755,"x_min":62,"x_max":701,"o":"m 525 1207 l 579 1120 q 490 1058 532 1088 q 401 990 449 1027 q 313 1058 355 1027 q 224 1120 271 1088 l 278 1207 q 342 1177 315 1191 q 401 1145 369 1164 q 463 1177 435 1164 q 525 1207 490 1191 l 525 1207 m 700 259 l 700 259 q 674 107 701 168 q 574 16 647 46 q 362 -14 499 -14 q 202 3 279 -14 q 62 46 123 19 l 98 206 q 227 175 161 187 q 365 163 293 163 q 445 171 418 161 q 483 201 473 179 q 492 260 492 222 q 486 323 494 301 q 444 358 477 345 q 336 388 411 372 q 171 441 227 410 q 96 526 115 471 q 80 680 79 582 q 106 829 79 772 q 203 913 133 886 q 399 939 273 939 q 530 932 460 939 q 680 907 602 924 l 659 732 q 522 753 581 746 q 401 760 463 760 q 309 742 334 761 q 288 674 286 724 q 294 610 286 631 q 334 578 302 590 q 438 549 366 566 q 585 505 530 528 q 663 450 637 481 q 694 373 688 419 q 700 259 701 327 l 700 259 z "},"š":{"ha":601,"x_min":56,"x_max":555,"o":"m 125 894 l 186 977 q 260 930 232 949 q 324 886 290 910 q 387 930 358 910 q 461 977 416 949 l 522 894 q 425 817 476 859 q 324 731 373 773 q 224 817 275 773 q 125 894 172 859 l 125 894 m 553 201 l 553 201 q 530 84 553 132 q 453 11 507 35 q 301 -14 397 -14 q 220 -8 264 -14 q 133 5 176 -3 q 56 26 91 15 l 88 175 q 183 153 130 161 q 292 144 235 144 q 349 157 335 144 q 361 201 362 171 q 357 233 362 222 q 328 255 351 245 q 252 275 305 263 q 133 320 171 296 q 83 385 94 346 q 73 487 72 425 q 95 602 72 559 q 174 669 118 647 q 331 689 231 689 q 393 686 357 689 q 468 680 430 685 q 536 667 506 674 l 518 511 q 423 526 472 521 q 332 532 373 532 q 274 519 289 532 q 260 486 259 509 q 264 454 259 465 q 288 435 270 444 q 346 420 307 429 q 486 374 441 400 q 543 308 530 349 q 553 201 555 267 l 553 201 z "},"Ţ":{"ha":739,"x_min":16,"x_max":723,"o":"m 454 -274 l 362 -422 l 286 -376 l 345 -263 l 286 -263 l 286 -68 l 454 -68 l 454 -274 l 454 -274 m 723 741 l 473 741 l 473 0 l 266 0 l 266 741 l 16 741 l 16 925 l 723 925 l 723 741 l 723 741 z "},"ţ":{"ha":500,"x_min":22,"x_max":467,"o":"m 376 -274 l 282 -422 l 208 -376 l 266 -263 l 208 -263 l 208 -68 l 376 -68 l 376 -274 l 376 -274 m 461 11 l 461 11 q 389 -7 427 0 q 317 -14 353 -14 q 167 26 220 -15 q 113 160 114 66 l 113 514 l 22 514 l 22 675 l 113 675 l 113 838 l 313 867 l 313 675 l 467 675 l 456 514 l 313 514 l 313 187 q 324 159 313 167 q 354 149 335 149 q 393 152 372 149 q 438 163 415 155 l 461 11 l 461 11 z "},"Ť":{"ha":739,"x_min":16,"x_max":723,"o":"m 494 1207 l 548 1120 q 458 1058 499 1088 q 370 990 416 1027 q 281 1058 323 1027 q 193 1120 240 1088 l 245 1207 q 309 1177 282 1191 q 370 1145 336 1164 q 430 1177 403 1164 q 494 1207 457 1191 l 494 1207 m 723 741 l 473 741 l 473 0 l 266 0 l 266 741 l 16 741 l 16 925 l 723 925 l 723 741 l 723 741 z "},"ť":{"ha":507,"x_min":22,"x_max":543,"o":"m 543 815 l 475 719 l 419 758 l 456 825 l 389 825 l 389 966 l 543 966 l 543 815 l 543 815 m 461 11 l 461 11 q 391 -7 427 0 q 317 -14 353 -14 q 167 26 220 -15 q 113 160 114 66 l 113 514 l 22 514 l 22 675 l 113 675 l 113 838 l 313 865 l 313 675 l 468 675 l 456 514 l 313 514 l 313 187 q 324 159 313 167 q 355 149 335 149 q 393 152 372 149 q 438 163 416 155 l 461 11 l 461 11 z "},"Ŧ":{"ha":739,"x_min":16,"x_max":723,"o":"m 100 400 l 100 498 l 266 498 l 266 741 l 16 741 l 16 925 l 723 925 l 723 741 l 473 741 l 473 498 l 639 498 l 639 400 l 473 400 l 473 0 l 266 0 l 266 400 l 100 400 l 100 400 z "},"ŧ":{"ha":500,"x_min":22,"x_max":467,"o":"m 22 297 l 22 395 l 113 395 l 113 514 l 22 514 l 22 675 l 113 675 l 113 838 l 313 867 l 313 675 l 467 675 l 456 514 l 313 514 l 313 395 l 444 395 l 444 297 l 313 297 l 313 187 q 324 159 313 167 q 354 149 335 149 q 393 152 372 149 q 438 163 415 155 l 461 11 q 389 -7 427 0 q 317 -14 353 -14 q 167 26 220 -15 q 113 160 114 66 l 113 297 l 22 297 l 22 297 z "},"Ũ":{"ha":864,"x_min":83,"x_max":781,"o":"m 521 996 l 521 996 q 469 1002 491 996 q 429 1024 449 1010 q 396 1047 410 1039 q 365 1055 381 1055 q 324 1034 340 1054 q 294 993 307 1013 l 214 1055 q 252 1115 231 1086 q 301 1158 274 1142 q 359 1176 328 1176 q 406 1171 384 1176 q 450 1147 426 1164 q 491 1123 473 1131 q 521 1115 507 1115 q 556 1130 544 1115 q 574 1172 568 1143 l 669 1128 q 613 1031 651 1066 q 521 996 575 996 l 521 996 m 572 925 l 781 925 l 781 269 q 749 133 781 198 q 639 28 715 69 q 433 -14 562 -12 q 227 28 302 -12 q 117 133 149 69 q 84 269 83 198 l 84 925 l 292 925 l 292 289 q 323 202 290 232 q 433 171 355 171 q 541 202 510 171 q 572 289 574 232 l 572 925 l 572 925 z "},"ũ":{"ha":768,"x_min":83,"x_max":678,"o":"m 475 758 l 475 758 q 425 765 446 758 q 382 787 403 773 q 350 810 363 800 q 319 818 335 818 q 278 796 294 817 q 250 755 262 776 l 168 818 q 229 902 193 867 q 315 939 266 936 q 359 932 339 939 q 404 909 380 925 q 445 886 429 894 q 475 878 461 878 q 510 891 498 878 q 528 935 522 906 l 623 891 q 567 793 605 829 q 475 758 530 758 l 475 758 m 84 675 l 283 675 l 283 229 q 296 193 283 206 q 332 180 307 180 q 403 195 361 180 q 477 229 444 210 l 477 675 l 678 675 l 678 0 l 529 0 l 509 52 q 419 16 467 31 q 326 -5 372 1 q 239 -14 278 -14 q 118 46 155 -12 q 84 202 83 103 l 84 675 l 84 675 z "},"Ū":{"ha":864,"x_min":83,"x_max":781,"o":"m 610 1013 l 258 1013 l 258 1141 l 610 1141 l 610 1013 l 610 1013 m 572 925 l 781 925 l 781 269 q 749 133 781 198 q 639 28 715 69 q 433 -14 562 -12 q 227 28 302 -12 q 117 133 149 69 q 84 269 83 198 l 84 925 l 292 925 l 292 289 q 323 202 290 232 q 433 171 355 171 q 541 202 510 171 q 572 289 574 232 l 572 925 l 572 925 z "},"ū":{"ha":768,"x_min":83,"x_max":678,"o":"m 566 777 l 213 777 l 213 905 l 566 905 l 566 777 l 566 777 m 84 675 l 283 675 l 283 229 q 296 193 283 206 q 332 180 307 180 q 403 195 361 180 q 477 229 444 210 l 477 675 l 678 675 l 678 0 l 529 0 l 509 52 q 419 16 467 31 q 326 -5 372 1 q 239 -14 278 -14 q 118 46 155 -12 q 84 202 83 103 l 84 675 l 84 675 z "},"Ŭ":{"ha":864,"x_min":83,"x_max":781,"o":"m 538 1187 l 631 1142 q 570 1035 618 1077 q 433 990 519 991 q 296 1035 345 991 q 233 1142 245 1077 l 327 1187 q 363 1120 338 1145 q 433 1096 389 1096 q 500 1120 475 1096 q 538 1187 526 1145 l 538 1187 m 572 925 l 781 925 l 781 269 q 749 133 781 198 q 639 28 715 69 q 433 -14 562 -12 q 227 28 302 -12 q 117 133 149 69 q 84 269 83 198 l 84 925 l 292 925 l 292 289 q 323 202 290 232 q 433 171 355 171 q 541 202 510 171 q 572 289 574 232 l 572 925 l 572 925 z "},"ŭ":{"ha":768,"x_min":83,"x_max":678,"o":"m 519 956 l 613 913 q 581 830 606 868 q 509 766 555 791 q 399 742 464 742 q 289 766 335 742 q 217 830 243 791 q 184 913 191 868 l 278 956 q 319 886 289 914 q 399 856 349 857 q 479 886 449 857 q 519 956 509 914 l 519 956 m 84 675 l 283 675 l 283 229 q 296 193 283 206 q 332 180 307 180 q 403 195 361 180 q 477 229 444 210 l 477 675 l 678 675 l 678 0 l 529 0 l 509 52 q 419 16 467 31 q 326 -5 372 1 q 239 -14 278 -14 q 118 46 155 -12 q 84 202 83 103 l 84 675 l 84 675 z "},"Ů":{"ha":864,"x_min":83,"x_max":781,"o":"m 480 1099 l 480 1099 q 467 1135 479 1122 q 433 1149 454 1147 q 397 1135 410 1147 q 385 1099 385 1122 q 397 1063 385 1076 q 433 1050 410 1050 q 467 1063 454 1050 q 480 1099 479 1076 l 480 1099 m 555 1099 l 555 1099 q 521 1016 553 1048 q 433 982 490 983 q 343 1015 376 982 q 311 1099 311 1046 q 343 1181 311 1149 q 433 1217 376 1215 q 521 1181 490 1215 q 555 1099 553 1149 l 555 1099 m 572 925 l 781 925 l 781 269 q 749 133 781 198 q 639 28 715 69 q 433 -14 562 -12 q 227 28 302 -12 q 117 133 149 69 q 84 269 83 198 l 84 925 l 292 925 l 292 289 q 323 202 290 232 q 433 171 355 171 q 541 202 510 171 q 572 289 574 232 l 572 925 l 572 925 z "},"ů":{"ha":768,"x_min":83,"x_max":678,"o":"m 439 861 l 439 861 q 426 901 439 886 q 388 916 412 916 q 350 901 363 916 q 336 861 336 886 q 350 821 336 836 q 388 806 363 806 q 426 821 412 806 q 439 861 439 836 l 439 861 m 522 861 l 522 861 q 488 769 522 806 q 388 731 453 732 q 288 768 323 732 q 254 861 254 803 q 289 952 254 916 q 388 990 323 989 q 488 952 453 989 q 522 861 522 916 l 522 861 m 84 675 l 283 675 l 283 229 q 296 193 283 206 q 332 180 307 180 q 403 195 361 180 q 477 229 444 210 l 477 675 l 678 675 l 678 0 l 529 0 l 509 52 q 419 16 467 31 q 326 -5 372 1 q 239 -14 278 -14 q 118 46 155 -12 q 84 202 83 103 l 84 675 l 84 675 z "},"Ű":{"ha":864,"x_min":83,"x_max":781,"o":"m 568 979 l 479 1067 q 549 1138 514 1101 q 617 1213 586 1176 l 715 1114 q 646 1044 682 1078 q 568 979 609 1009 l 568 979 m 319 979 l 228 1067 q 300 1138 264 1101 q 368 1213 335 1176 l 464 1114 q 396 1044 431 1078 q 319 979 359 1009 l 319 979 m 572 925 l 781 925 l 781 269 q 749 133 781 198 q 639 28 715 69 q 433 -14 562 -12 q 227 28 302 -12 q 117 133 149 69 q 84 269 83 198 l 84 925 l 292 925 l 292 289 q 323 202 290 232 q 433 171 355 171 q 541 202 510 171 q 572 289 574 232 l 572 925 l 572 925 z "},"ű":{"ha":768,"x_min":83,"x_max":701,"o":"m 529 735 l 441 825 q 522 903 484 863 q 605 993 560 943 l 701 894 q 642 833 667 859 q 589 785 614 808 q 529 735 563 762 l 529 735 m 266 735 l 176 825 q 258 903 220 863 q 340 993 297 943 l 438 894 q 377 833 404 859 q 326 785 351 808 q 266 735 298 762 l 266 735 m 84 675 l 283 675 l 283 229 q 296 193 283 206 q 332 180 307 180 q 403 195 361 180 q 477 229 444 210 l 477 675 l 678 675 l 678 0 l 529 0 l 509 52 q 419 16 467 31 q 326 -5 372 1 q 239 -14 278 -14 q 118 46 155 -12 q 84 202 83 103 l 84 675 l 84 675 z "},"Ų":{"ha":864,"x_min":83,"x_max":781,"o":"m 548 -168 l 560 -271 q 515 -283 540 -281 q 468 -288 492 -288 q 359 -255 400 -288 q 319 -160 319 -222 q 350 -77 319 -115 q 433 -14 381 -41 q 227 28 302 -12 q 117 133 149 69 q 84 269 83 198 l 84 925 l 292 925 l 292 289 q 323 202 290 232 q 433 171 355 171 q 541 202 510 171 q 572 289 574 232 l 572 925 l 781 925 l 781 269 q 760 157 781 210 q 689 61 738 103 q 560 0 642 20 q 509 -42 534 -19 q 468 -88 484 -65 q 452 -132 453 -111 q 464 -164 452 -153 q 499 -174 475 -174 q 522 -172 510 -174 q 548 -168 534 -171 l 548 -168 z "},"ų":{"ha":768,"x_min":83,"x_max":678,"o":"m 623 -168 l 635 -271 q 590 -283 614 -281 q 543 -288 567 -288 q 435 -255 476 -288 q 393 -160 395 -222 q 433 -69 395 -109 q 529 0 471 -30 l 509 52 q 419 16 467 31 q 326 -5 372 1 q 239 -14 278 -14 q 118 45 155 -12 q 84 202 83 103 l 84 675 l 283 675 l 283 229 q 296 193 283 206 q 332 180 307 180 q 403 195 361 180 q 477 229 444 210 l 477 675 l 678 675 l 678 0 l 635 0 q 587 -39 612 -19 q 545 -84 562 -61 q 526 -132 528 -107 q 538 -164 526 -153 q 574 -174 549 -174 q 597 -172 585 -174 q 623 -168 609 -171 l 623 -168 z "},"Ŵ":{"ha":1312,"x_min":7,"x_max":1305,"o":"m 836 1074 l 781 989 q 718 1019 745 1005 q 658 1051 690 1032 q 597 1019 624 1032 q 533 989 570 1005 l 480 1074 q 568 1138 528 1107 q 658 1206 610 1169 q 746 1138 704 1169 q 836 1074 787 1107 l 836 1074 m 1305 925 l 1078 0 l 812 0 l 658 703 l 500 0 l 235 0 l 7 925 l 213 925 l 370 263 l 530 925 l 785 925 l 944 263 l 1099 925 l 1305 925 l 1305 925 z "},"ŵ":{"ha":979,"x_min":26,"x_max":955,"o":"m 351 736 l 290 819 q 389 897 338 854 q 490 982 441 940 q 590 897 538 940 q 688 819 642 854 l 627 736 q 552 783 582 764 q 490 827 524 803 q 426 783 456 803 q 351 736 397 764 l 351 736 m 621 0 l 490 441 l 358 0 l 142 0 l 26 675 l 209 675 l 273 281 l 391 675 l 590 675 l 707 281 l 772 675 l 955 675 l 838 0 l 621 0 l 621 0 z "},"Ŷ":{"ha":784,"x_min":0,"x_max":784,"o":"m 570 1074 l 515 989 q 452 1019 479 1005 q 392 1051 425 1032 q 332 1019 359 1032 q 269 989 305 1005 l 214 1074 q 304 1138 262 1107 q 392 1206 345 1169 q 480 1138 439 1169 q 570 1074 522 1107 l 570 1074 m 784 925 l 496 266 l 496 0 l 288 0 l 288 266 l 0 925 l 218 925 l 392 495 l 566 925 l 784 925 l 784 925 z "},"ŷ":{"ha":688,"x_min":7,"x_max":688,"o":"m 213 736 l 152 819 q 250 897 198 854 q 350 982 301 940 q 450 897 399 940 q 549 819 502 854 l 488 736 q 414 783 442 764 q 350 827 384 803 q 288 783 316 803 q 213 736 258 764 l 213 736 m 389 -274 l 201 -274 l 279 0 l 216 0 l 7 675 l 210 675 l 347 197 l 486 675 l 688 675 l 475 0 l 389 -274 l 389 -274 z "},"Ÿ":{"ha":784,"x_min":0,"x_max":784,"o":"m 612 1009 l 453 1009 l 453 1161 l 612 1161 l 612 1009 l 612 1009 m 331 1009 l 172 1009 l 172 1161 l 331 1161 l 331 1009 l 331 1009 m 784 925 l 496 266 l 496 0 l 288 0 l 288 266 l 0 925 l 218 925 l 392 495 l 566 925 l 784 925 l 784 925 z "},"Ź":{"ha":787,"x_min":69,"x_max":718,"o":"m 377 982 l 308 1088 q 407 1152 358 1119 q 496 1215 456 1184 l 571 1099 q 479 1038 522 1063 q 377 982 434 1012 l 377 982 m 711 754 l 308 171 l 718 171 l 718 0 l 69 0 l 69 170 l 476 754 l 88 754 l 88 925 l 711 925 l 711 754 l 711 754 z "},"ź":{"ha":639,"x_min":62,"x_max":583,"o":"m 289 746 l 220 850 q 323 918 271 883 q 430 993 374 952 l 505 876 q 395 807 444 837 q 289 746 346 777 l 289 746 m 64 524 l 64 675 l 575 675 l 575 524 l 294 152 l 583 152 l 583 0 l 62 0 l 62 152 l 342 524 l 64 524 l 64 524 z "},"Ż":{"ha":787,"x_min":69,"x_max":718,"o":"m 506 1010 l 307 1010 l 307 1223 l 506 1223 l 506 1010 l 506 1010 m 711 754 l 308 171 l 718 171 l 718 0 l 69 0 l 69 170 l 476 754 l 88 754 l 88 925 l 711 925 l 711 754 l 711 754 z "},"ż":{"ha":639,"x_min":62,"x_max":583,"o":"m 430 761 l 229 761 l 229 972 l 430 972 l 430 761 l 430 761 m 64 524 l 64 675 l 575 675 l 575 524 l 294 152 l 583 152 l 583 0 l 62 0 l 62 152 l 342 524 l 64 524 l 64 524 z "},"Ž":{"ha":787,"x_min":69,"x_max":718,"o":"m 540 1207 l 593 1120 q 505 1058 545 1088 q 415 990 463 1027 q 327 1058 369 1027 q 237 1120 286 1088 l 292 1207 q 355 1177 328 1191 q 415 1145 382 1164 q 476 1177 449 1164 q 540 1207 503 1191 l 540 1207 m 711 754 l 308 171 l 718 171 l 718 0 l 69 0 l 69 170 l 476 754 l 88 754 l 88 925 l 711 925 l 711 754 l 711 754 z "},"ž":{"ha":639,"x_min":62,"x_max":583,"o":"m 133 894 l 194 977 q 267 930 239 949 q 331 886 297 910 q 393 930 365 910 q 468 977 423 949 l 529 894 q 431 817 483 859 q 331 731 380 773 q 231 817 282 773 q 133 894 179 859 l 133 894 m 64 524 l 64 675 l 575 675 l 575 524 l 294 152 l 583 152 l 583 0 l 62 0 l 62 152 l 342 524 l 64 524 l 64 524 z "},"ƒ":{"ha":689,"x_min":8,"x_max":655,"o":"m 8 -260 l 41 -102 q 65 -106 52 -103 q 96 -107 80 -107 q 153 -87 138 -107 q 170 -35 168 -68 l 212 429 l 102 429 l 115 593 l 225 593 l 239 757 q 305 917 247 861 q 488 974 362 972 q 572 968 530 974 q 655 954 614 963 l 623 796 q 568 803 601 800 q 511 807 536 807 q 465 798 480 807 q 445 773 450 789 q 438 735 439 757 l 426 593 l 608 593 l 581 429 l 412 429 l 369 -57 q 301 -217 361 -161 q 121 -274 241 -273 q 68 -270 96 -274 q 8 -260 38 -267 l 8 -260 z "},"Ǻ":{"ha":871,"x_min":15,"x_max":857,"o":"m 445 1255 l 388 1352 q 475 1408 437 1383 q 555 1465 511 1432 l 623 1359 q 563 1320 590 1337 q 509 1287 536 1303 q 445 1255 480 1272 l 445 1255 m 483 1099 l 483 1099 q 469 1135 481 1122 q 435 1149 457 1147 q 400 1135 412 1147 q 388 1099 388 1122 q 400 1063 388 1076 q 435 1050 412 1050 q 469 1063 457 1050 q 483 1099 481 1076 l 483 1099 m 557 1099 l 557 1099 q 524 1016 556 1048 q 435 982 492 983 q 346 1015 378 982 q 313 1099 313 1046 q 346 1181 313 1149 q 435 1217 378 1215 q 524 1181 492 1215 q 557 1099 556 1149 l 557 1099 m 435 742 l 328 354 l 540 354 l 435 742 l 435 742 m 574 925 l 857 0 l 640 0 l 590 180 l 281 180 l 231 0 l 15 0 l 296 925 l 574 925 l 574 925 z "},"ǻ":{"ha":693,"x_min":69,"x_max":618,"o":"m 357 1019 l 300 1116 q 387 1172 350 1147 q 467 1229 423 1196 l 534 1123 q 475 1084 502 1101 q 420 1051 448 1067 q 357 1019 392 1036 l 357 1019 m 408 863 l 408 863 q 396 899 408 886 q 361 913 384 911 q 327 899 339 911 q 313 863 315 886 q 327 827 315 840 q 361 814 339 814 q 396 827 384 814 q 408 863 408 840 l 408 863 m 483 863 l 483 863 q 450 780 483 812 q 361 746 418 747 q 273 779 304 746 q 239 863 240 810 q 273 945 240 913 q 361 981 304 979 q 450 945 418 979 q 483 863 483 913 l 483 863 m 416 165 l 416 243 l 321 243 q 275 232 289 243 q 262 194 260 221 q 274 153 260 167 q 316 141 286 141 q 370 148 346 141 q 416 165 395 155 l 416 165 m 617 0 l 453 0 l 439 43 q 331 -1 380 11 q 245 -14 281 -15 q 145 14 183 -14 q 88 87 106 41 q 69 191 69 133 q 118 338 69 293 q 271 381 167 382 l 416 381 l 416 433 q 410 487 418 467 q 376 517 401 507 q 297 525 350 525 q 208 521 252 525 q 114 506 161 515 l 88 656 q 161 673 121 666 q 247 685 203 681 q 331 689 292 689 q 509 665 446 689 q 594 582 571 639 q 617 431 618 525 l 617 0 l 617 0 z "},"Ǽ":{"ha":1188,"x_min":14,"x_max":1119,"o":"m 514 982 l 445 1088 q 544 1152 496 1119 q 633 1215 593 1184 l 708 1099 q 616 1038 661 1063 q 514 982 572 1012 l 514 982 m 435 742 l 328 354 l 541 354 l 435 742 l 435 742 m 1119 0 l 640 0 l 590 180 l 281 180 l 231 0 l 14 0 l 296 925 l 1119 925 l 1119 741 l 629 741 l 682 571 l 1089 571 l 1089 387 l 738 387 l 800 184 l 1119 184 l 1119 0 l 1119 0 z "},"ǽ":{"ha":1023,"x_min":69,"x_max":982,"o":"m 522 746 l 453 850 q 556 918 505 883 q 663 993 608 952 l 738 876 q 628 807 677 837 q 522 746 579 777 l 522 746 m 416 165 l 416 243 l 321 243 q 275 232 289 243 q 262 194 260 221 q 274 153 260 167 q 316 141 286 141 q 370 148 346 141 q 416 165 395 155 l 416 165 m 792 418 l 792 446 q 776 507 793 483 q 708 532 760 532 q 636 507 656 532 q 617 446 616 483 l 617 418 l 792 418 l 792 418 m 981 267 l 617 267 l 617 237 q 646 168 618 186 q 739 151 674 149 q 842 157 787 151 q 944 179 898 165 l 974 28 q 859 -1 926 12 q 719 -14 792 -14 q 595 0 648 -14 q 507 42 544 15 q 396 0 453 14 q 274 -14 338 -14 q 160 14 206 -14 q 92 87 115 41 q 69 191 69 133 q 118 338 69 293 q 271 381 167 382 l 416 381 l 416 433 q 410 487 418 467 q 376 517 401 507 q 297 525 350 525 q 208 521 252 525 q 114 506 161 515 l 88 656 q 161 673 121 666 q 247 685 203 681 q 331 689 292 689 q 450 675 401 689 q 533 637 499 661 q 609 674 567 661 q 707 689 652 689 q 878 650 818 688 q 960 547 937 610 q 981 410 982 484 l 981 267 l 981 267 z "},"Ǿ":{"ha":856,"x_min":69,"x_max":787,"o":"m 415 982 l 346 1088 q 446 1152 397 1119 q 534 1215 494 1184 l 610 1099 q 518 1038 562 1063 q 415 982 473 1012 l 415 982 m 429 171 l 429 171 q 543 202 506 171 q 578 288 579 232 l 578 614 l 323 195 q 366 176 340 183 q 429 171 393 171 l 429 171 m 278 637 l 278 308 l 534 728 q 488 747 515 741 q 429 754 463 754 q 315 723 350 753 q 278 637 278 692 l 278 637 m 71 -35 l 142 83 q 87 171 104 123 q 71 269 71 218 l 71 655 q 104 791 69 727 q 220 897 141 854 q 429 939 298 937 q 544 926 492 939 q 635 897 595 916 l 703 1008 l 787 958 l 715 840 q 769 753 751 800 q 787 655 787 705 l 787 269 q 751 133 787 198 q 637 28 716 69 q 429 -14 557 -12 q 312 -3 363 -14 q 220 27 259 8 l 153 -84 l 71 -35 l 71 -35 z "},"ǿ":{"ha":722,"x_min":56,"x_max":667,"o":"m 349 746 l 279 850 q 382 918 331 883 q 490 993 434 952 l 564 876 q 454 807 503 837 q 349 746 406 777 l 349 746 m 362 155 l 362 155 q 441 180 415 155 q 467 254 467 206 l 467 422 l 290 172 q 321 159 304 163 q 362 155 339 155 l 362 155 m 256 254 l 256 251 l 433 503 q 401 517 419 511 q 362 521 384 521 q 282 495 308 521 q 256 422 256 469 l 256 254 l 256 254 m 362 -14 l 362 -14 q 262 -5 305 -14 q 186 20 218 4 l 121 -69 l 60 -27 l 123 64 q 72 155 87 103 q 56 259 56 205 l 56 416 q 81 548 56 487 q 175 650 109 610 q 362 689 243 688 q 461 681 418 689 q 537 655 505 671 l 602 746 l 663 703 l 600 610 q 651 521 636 571 q 667 416 667 471 l 667 259 q 642 127 667 189 q 548 26 614 65 q 362 -14 480 -12 l 362 -14 z "},"Ș":{"ha":755,"x_min":62,"x_max":701,"o":"m 479 -274 l 385 -422 l 311 -376 l 369 -263 l 311 -263 l 311 -68 l 479 -68 l 479 -274 l 479 -274 m 700 259 l 700 259 q 674 107 701 168 q 574 16 647 46 q 362 -14 499 -14 q 202 3 279 -14 q 62 46 123 19 l 98 206 q 227 175 161 187 q 365 163 293 163 q 445 171 418 161 q 483 201 473 179 q 492 260 492 222 q 486 323 494 301 q 444 358 477 345 q 336 388 411 372 q 171 441 227 410 q 96 526 115 471 q 80 680 79 582 q 106 829 79 772 q 203 913 133 886 q 399 939 273 939 q 530 932 460 939 q 680 907 602 924 l 659 732 q 522 753 581 746 q 401 760 463 760 q 309 742 334 761 q 288 674 286 724 q 294 610 286 631 q 334 578 302 590 q 438 549 366 566 q 585 505 530 528 q 663 450 637 481 q 694 373 688 419 q 700 259 701 327 l 700 259 z "},"ș":{"ha":601,"x_min":56,"x_max":555,"o":"m 384 -274 l 290 -422 l 216 -376 l 274 -263 l 216 -263 l 216 -68 l 384 -68 l 384 -274 l 384 -274 m 553 201 l 553 201 q 530 84 553 132 q 453 11 507 35 q 301 -14 397 -14 q 220 -8 264 -14 q 133 5 176 -3 q 56 26 91 15 l 88 175 q 183 153 130 161 q 292 144 235 144 q 349 157 335 144 q 361 201 362 171 q 357 233 362 222 q 328 255 351 245 q 252 275 305 263 q 133 320 171 296 q 83 385 94 346 q 73 487 72 425 q 95 602 72 559 q 174 669 118 647 q 331 689 231 689 q 393 686 357 689 q 468 680 430 685 q 536 667 506 674 l 518 511 q 423 526 472 521 q 332 532 373 532 q 274 519 289 532 q 260 486 259 509 q 264 454 259 465 q 288 435 270 444 q 346 420 307 429 q 486 374 441 400 q 543 308 530 349 q 553 201 555 267 l 553 201 z "},"Ț":{"ha":739,"x_min":16,"x_max":723,"o":"m 454 -274 l 362 -422 l 286 -376 l 345 -263 l 286 -263 l 286 -68 l 454 -68 l 454 -274 l 454 -274 m 723 741 l 473 741 l 473 0 l 266 0 l 266 741 l 16 741 l 16 925 l 723 925 l 723 741 l 723 741 z "},"ț":{"ha":500,"x_min":22,"x_max":467,"o":"m 376 -274 l 282 -422 l 208 -376 l 266 -263 l 208 -263 l 208 -68 l 376 -68 l 376 -274 l 376 -274 m 461 11 l 461 11 q 389 -7 427 0 q 317 -14 353 -14 q 167 26 220 -15 q 113 160 114 66 l 113 514 l 22 514 l 22 675 l 113 675 l 113 838 l 313 867 l 313 675 l 467 675 l 456 514 l 313 514 l 313 187 q 324 159 313 167 q 354 149 335 149 q 393 152 372 149 q 438 163 415 155 l 461 11 l 461 11 z "},"ˆ":{"ha":522,"x_min":62,"x_max":460,"o":"m 123 736 l 62 819 q 161 897 110 854 q 262 982 213 940 q 362 897 311 940 q 460 819 414 854 l 399 736 q 324 783 354 764 q 262 827 296 803 q 198 783 228 803 q 123 736 170 764 l 123 736 z "},"ˇ":{"ha":522,"x_min":62,"x_max":460,"o":"m 62 894 l 123 977 q 198 930 170 949 q 262 886 228 910 q 324 930 296 910 q 399 977 354 949 l 460 894 q 362 817 414 859 q 262 731 311 773 q 161 817 213 773 q 62 894 110 859 l 62 894 z "},"ˉ":{"ha":856,"x_min":104,"x_max":751,"o":"m 172 800 l 172 68 l 644 68 l 172 800 l 172 800 m 684 856 l 212 856 l 684 123 l 684 856 l 684 856 m 104 0 l 104 925 l 751 925 l 751 0 l 104 0 l 104 0 z "},"˘":{"ha":553,"x_min":62,"x_max":491,"o":"m 397 956 l 491 913 q 458 830 484 868 q 387 766 433 791 q 277 742 342 742 q 167 766 212 742 q 95 830 121 791 q 62 913 69 868 l 156 956 q 197 886 167 914 q 277 856 227 857 q 357 886 327 857 q 397 956 387 914 l 397 956 z "},"˙":{"ha":326,"x_min":62,"x_max":263,"o":"m 263 761 l 62 761 l 62 972 l 263 972 l 263 761 l 263 761 z "},"˚":{"ha":395,"x_min":62,"x_max":332,"o":"m 248 861 l 248 861 q 235 901 248 886 q 198 916 221 916 q 160 901 174 916 q 146 861 146 886 q 160 821 146 836 q 198 806 174 806 q 235 821 221 806 q 248 861 248 836 l 248 861 m 332 861 l 332 861 q 297 769 332 806 q 198 731 263 732 q 98 768 132 732 q 62 861 62 803 q 98 952 64 916 q 198 990 133 989 q 297 952 263 989 q 332 861 332 916 l 332 861 z "},"˛":{"ha":366,"x_min":62,"x_max":305,"o":"m 292 -168 l 305 -271 q 260 -283 283 -281 q 213 -288 237 -288 q 104 -255 145 -288 q 62 -160 64 -224 q 102 -69 64 -109 q 199 0 140 -30 l 305 0 q 256 -39 282 -19 q 214 -84 232 -61 q 197 -132 197 -107 q 208 -164 197 -153 q 243 -174 220 -174 q 267 -172 254 -174 q 292 -168 279 -171 l 292 -168 z "},"˜":{"ha":579,"x_min":62,"x_max":517,"o":"m 370 758 l 370 758 q 319 765 340 758 q 277 787 297 773 q 244 810 259 800 q 213 818 231 818 q 172 796 189 817 q 144 755 156 776 l 62 818 q 123 902 87 867 q 209 939 160 936 q 254 932 233 939 q 298 909 274 925 q 339 886 323 894 q 370 878 355 878 q 404 891 392 878 q 423 935 416 906 l 517 891 q 461 793 499 829 q 370 758 425 758 l 370 758 z "},"˝":{"ha":650,"x_min":62,"x_max":587,"o":"m 415 735 l 327 825 q 408 903 370 863 q 491 993 446 943 l 587 894 q 528 833 553 859 q 475 785 500 808 q 415 735 449 762 l 415 735 m 152 735 l 62 825 q 144 903 106 863 q 227 993 183 943 l 324 894 q 263 833 290 859 q 212 785 237 808 q 152 735 184 762 l 152 735 z "},"Δ":{"ha":856,"x_min":104,"x_max":751,"o":"m 172 800 l 172 68 l 644 68 l 172 800 l 172 800 m 684 856 l 212 856 l 684 123 l 684 856 l 684 856 m 104 0 l 104 925 l 751 925 l 751 0 l 104 0 l 104 0 z "},"Ω":{"ha":947,"x_min":49,"x_max":899,"o":"m 833 655 l 833 279 q 818 193 831 228 q 780 132 803 159 l 899 132 l 899 0 l 549 0 l 549 132 q 601 194 579 156 q 624 293 624 233 l 624 637 q 589 723 625 692 q 475 754 552 753 q 359 723 396 753 q 324 637 323 692 l 324 293 q 347 194 324 233 q 399 132 369 156 l 399 0 l 49 0 l 49 132 l 168 132 q 130 193 145 159 q 115 279 117 228 l 115 655 q 151 791 115 727 q 264 897 186 854 q 475 939 345 937 q 684 897 604 937 q 798 791 762 854 q 833 655 833 727 l 833 655 z "},"μ":{"ha":856,"x_min":104,"x_max":751,"o":"m 172 800 l 172 68 l 644 68 l 172 800 l 172 800 m 684 856 l 212 856 l 684 123 l 684 856 l 684 856 m 104 0 l 104 925 l 751 925 l 751 0 l 104 0 l 104 0 z "},"π":{"ha":940,"x_min":42,"x_max":879,"o":"m 42 510 l 42 675 l 871 675 l 871 510 l 742 510 l 742 176 q 751 149 742 157 q 781 140 761 140 q 818 142 803 140 q 852 151 834 146 l 879 9 q 814 -7 848 -1 q 742 -14 779 -14 q 594 35 642 -12 q 548 164 547 83 l 548 510 l 370 510 l 370 0 l 175 0 l 175 510 l 42 510 l 42 510 z "},"Ẁ":{"ha":1312,"x_min":7,"x_max":1305,"o":"m 747 1088 l 678 982 q 576 1038 620 1012 q 484 1099 532 1063 l 559 1215 q 648 1152 600 1184 q 747 1088 696 1119 l 747 1088 m 1305 925 l 1078 0 l 812 0 l 658 703 l 500 0 l 235 0 l 7 925 l 213 925 l 370 263 l 530 925 l 785 925 l 944 263 l 1099 925 l 1305 925 l 1305 925 z "},"ẁ":{"ha":979,"x_min":26,"x_max":955,"o":"m 568 850 l 499 746 q 393 807 442 777 q 283 876 345 837 l 358 993 q 465 918 414 952 q 568 850 518 883 l 568 850 m 621 0 l 490 441 l 358 0 l 142 0 l 26 675 l 209 675 l 273 281 l 391 675 l 590 675 l 707 281 l 772 675 l 955 675 l 838 0 l 621 0 l 621 0 z "},"Ẃ":{"ha":1312,"x_min":7,"x_max":1305,"o":"m 654 982 l 583 1088 q 684 1152 635 1119 q 773 1215 731 1184 l 848 1099 q 755 1038 799 1063 q 654 982 711 1012 l 654 982 m 1305 925 l 1078 0 l 812 0 l 658 703 l 500 0 l 235 0 l 7 925 l 213 925 l 370 263 l 530 925 l 785 925 l 944 263 l 1099 925 l 1305 925 l 1305 925 z "},"ẃ":{"ha":979,"x_min":26,"x_max":955,"o":"m 491 746 l 422 850 q 524 918 472 883 q 631 993 576 952 l 705 876 q 597 807 646 837 q 491 746 548 777 l 491 746 m 621 0 l 490 441 l 358 0 l 142 0 l 26 675 l 209 675 l 273 281 l 391 675 l 590 675 l 707 281 l 772 675 l 955 675 l 838 0 l 621 0 l 621 0 z "},"Ẅ":{"ha":1312,"x_min":7,"x_max":1305,"o":"m 876 1009 l 719 1009 l 719 1161 l 876 1161 l 876 1009 l 876 1009 m 595 1009 l 438 1009 l 438 1161 l 595 1161 l 595 1009 l 595 1009 m 1305 925 l 1078 0 l 812 0 l 658 703 l 500 0 l 235 0 l 7 925 l 213 925 l 370 263 l 530 925 l 785 925 l 944 263 l 1099 925 l 1305 925 l 1305 925 z "},"ẅ":{"ha":979,"x_min":26,"x_max":955,"o":"m 712 769 l 555 769 l 555 933 l 712 933 l 712 769 l 712 769 m 420 769 l 263 769 l 263 933 l 420 933 l 420 769 l 420 769 m 621 0 l 490 441 l 358 0 l 142 0 l 26 675 l 209 675 l 273 281 l 391 675 l 590 675 l 707 281 l 772 675 l 955 675 l 838 0 l 621 0 l 621 0 z "},"Ỳ":{"ha":784,"x_min":0,"x_max":784,"o":"m 486 1088 l 415 982 q 313 1038 358 1012 q 221 1099 270 1063 l 296 1215 q 385 1152 338 1184 q 486 1088 434 1119 l 486 1088 m 784 925 l 496 266 l 496 0 l 288 0 l 288 266 l 0 925 l 218 925 l 392 495 l 566 925 l 784 925 l 784 925 z "},"ỳ":{"ha":688,"x_min":7,"x_max":688,"o":"m 445 850 l 376 746 q 270 807 319 777 q 160 876 221 837 l 235 993 q 342 918 290 952 q 445 850 393 883 l 445 850 m 389 -274 l 201 -274 l 279 0 l 216 0 l 7 675 l 210 675 l 347 197 l 486 675 l 688 675 l 475 0 l 389 -274 l 389 -274 z "},"–":{"ha":663,"x_min":69,"x_max":595,"o":"m 595 305 l 69 305 l 69 472 l 595 472 l 595 305 l 595 305 z "},"—":{"ha":872,"x_min":69,"x_max":803,"o":"m 803 305 l 69 305 l 69 472 l 803 472 l 803 305 l 803 305 z "},"‘":{"ha":372,"x_min":91,"x_max":302,"o":"m 91 787 l 213 981 l 302 929 l 224 773 l 290 773 l 290 543 l 91 543 l 91 787 l 91 787 z "},"’":{"ha":358,"x_min":71,"x_max":282,"o":"m 282 708 l 160 515 l 71 567 l 149 722 l 83 722 l 83 952 l 282 952 l 282 708 l 282 708 z "},"‚":{"ha":380,"x_min":77,"x_max":289,"o":"m 289 -14 l 167 -208 l 77 -156 l 156 0 l 90 0 l 90 231 l 289 231 l 289 -14 l 289 -14 z "},"“":{"ha":671,"x_min":91,"x_max":601,"o":"m 389 787 l 511 981 l 601 929 l 522 773 l 589 773 l 589 543 l 389 543 l 389 787 l 389 787 m 91 787 l 213 981 l 302 929 l 224 773 l 290 773 l 290 543 l 91 543 l 91 787 l 91 787 z "},"”":{"ha":671,"x_min":71,"x_max":581,"o":"m 282 708 l 160 515 l 71 567 l 149 722 l 83 722 l 83 952 l 282 952 l 282 708 l 282 708 m 581 708 l 458 515 l 369 567 l 448 722 l 381 722 l 381 952 l 581 952 l 581 708 l 581 708 z "},"„":{"ha":678,"x_min":77,"x_max":587,"o":"m 289 -14 l 167 -208 l 77 -156 l 156 0 l 90 0 l 90 231 l 289 231 l 289 -14 l 289 -14 m 587 -14 l 465 -208 l 376 -156 l 454 0 l 388 0 l 388 231 l 587 231 l 587 -14 l 587 -14 z "},"†":{"ha":617,"x_min":42,"x_max":575,"o":"m 575 562 l 381 562 l 381 -98 l 236 -98 l 236 562 l 42 562 l 42 696 l 236 696 l 236 925 l 381 925 l 381 696 l 575 696 l 575 562 l 575 562 z "},"‡":{"ha":617,"x_min":42,"x_max":575,"o":"m 42 264 l 236 264 l 236 562 l 42 562 l 42 696 l 236 696 l 236 925 l 381 925 l 381 696 l 575 696 l 575 562 l 381 562 l 381 264 l 575 264 l 575 132 l 381 132 l 381 -98 l 236 -98 l 236 132 l 42 132 l 42 264 l 42 264 z "},"•":{"ha":483,"x_min":56,"x_max":429,"o":"m 56 449 l 56 449 q 81 543 57 500 q 148 609 106 585 q 243 635 190 633 q 336 609 294 633 q 403 543 378 585 q 429 449 427 500 q 403 354 427 396 q 336 288 378 312 q 243 262 294 263 q 148 288 190 263 q 81 354 106 312 q 56 449 57 396 l 56 449 z "},"…":{"ha":1142,"x_min":91,"x_max":1051,"o":"m 1051 0 l 852 0 l 852 231 l 1051 231 l 1051 0 l 1051 0 m 671 0 l 471 0 l 471 231 l 671 231 l 671 0 l 671 0 m 290 0 l 91 0 l 91 231 l 290 231 l 290 0 l 290 0 z "},"‰":{"ha":1785,"x_min":49,"x_max":1731,"o":"m 1576 308 l 1576 308 q 1561 351 1576 339 q 1508 365 1546 365 q 1454 351 1469 365 q 1438 308 1438 339 l 1438 183 q 1454 140 1438 152 q 1508 126 1469 126 q 1561 140 1546 126 q 1576 183 1576 152 l 1576 308 l 1576 308 m 1729 194 l 1729 194 q 1710 91 1731 136 q 1643 19 1691 46 q 1508 -7 1594 -7 q 1371 19 1421 -7 q 1303 91 1322 46 q 1284 194 1283 136 l 1284 297 q 1303 400 1283 355 q 1371 472 1322 445 q 1508 498 1421 498 q 1643 472 1594 498 q 1710 400 1691 445 q 1729 297 1731 355 l 1729 194 l 1729 194 m 1029 308 l 1029 308 q 1015 351 1031 339 q 962 365 1000 365 q 907 351 924 365 q 892 308 891 339 l 892 183 q 907 140 891 152 q 962 126 924 126 q 1015 140 1000 126 q 1029 183 1031 152 l 1029 308 l 1029 308 m 1184 194 l 1184 194 q 1165 91 1184 136 q 1097 19 1146 46 q 962 -7 1048 -7 q 826 19 875 -7 q 757 91 777 46 q 738 194 738 136 l 738 297 q 757 400 738 355 q 826 472 777 445 q 962 498 875 498 q 1097 472 1048 498 q 1165 400 1146 445 q 1184 297 1184 355 l 1184 194 l 1184 194 m 372 37 l 743 939 l 865 890 l 494 -14 l 372 37 l 372 37 m 340 741 l 340 741 q 326 785 342 772 q 273 798 311 799 q 218 785 235 799 q 203 741 202 772 l 203 617 q 218 572 202 586 q 273 560 235 559 q 326 572 311 559 q 340 617 342 586 l 340 741 l 340 741 m 495 628 l 495 628 q 476 525 495 570 q 408 453 457 479 q 273 426 359 427 q 137 453 186 427 q 68 525 88 479 q 49 628 49 570 l 49 730 q 68 833 49 788 q 137 905 88 879 q 273 932 186 930 q 408 905 359 930 q 476 833 457 879 q 495 730 495 788 l 495 628 l 495 628 z "},"‹":{"ha":476,"x_min":62,"x_max":373,"o":"m 239 71 l 62 339 l 239 606 l 373 528 l 250 339 l 373 149 l 239 71 l 239 71 z "},"›":{"ha":476,"x_min":104,"x_max":414,"o":"m 414 339 l 237 71 l 104 149 l 228 339 l 104 528 l 237 606 l 414 339 l 414 339 z "},"⁄":{"ha":538,"x_min":0,"x_max":540,"o":"m 0 -14 l 431 959 l 540 910 l 110 -61 l 0 -14 l 0 -14 z "},"€":{"ha":735,"x_min":22,"x_max":686,"o":"m 22 494 l 22 600 l 132 600 l 132 628 q 167 776 132 713 q 278 875 202 840 q 468 910 353 910 q 579 905 525 910 q 686 887 635 901 l 662 705 q 590 715 621 712 q 530 720 559 719 q 468 722 502 722 q 372 689 403 720 q 339 600 340 658 l 582 600 l 582 494 l 339 494 l 339 403 l 582 403 l 582 297 l 339 297 q 372 208 340 239 q 468 175 403 175 q 555 178 509 175 q 662 191 602 182 l 686 9 q 576 -8 629 -4 q 468 -14 522 -14 q 278 22 353 -14 q 167 121 202 57 q 132 269 132 183 l 132 297 l 22 297 l 22 403 l 132 403 l 132 494 l 22 494 l 22 494 z "},"ℓ":{"ha":749,"x_min":-7,"x_max":700,"o":"m 346 736 l 346 503 q 452 614 412 555 q 492 751 491 673 q 472 803 491 785 q 422 821 453 821 q 366 800 385 821 q 346 736 346 780 l 346 736 m 442 -14 l 442 -14 q 279 14 342 -14 q 189 88 218 41 q 152 197 157 136 q 113 175 132 186 q 71 155 92 164 l -7 289 q 72 332 33 311 q 149 376 110 355 l 149 712 q 217 910 149 841 q 422 981 285 979 q 562 951 503 979 q 648 871 618 921 q 680 757 678 821 q 593 515 678 621 q 346 311 509 410 l 346 247 q 373 171 346 194 q 457 149 399 148 q 551 160 500 149 q 654 194 600 172 l 700 42 q 570 -1 633 12 q 442 -14 507 -14 l 442 -14 z "},"№":{"ha":1386,"x_min":91,"x_max":1352,"o":"m 1202 610 l 1202 739 q 1185 795 1203 776 q 1124 814 1168 814 q 1063 795 1081 814 q 1046 739 1046 776 l 1046 610 q 1063 556 1046 575 q 1124 537 1081 537 q 1185 556 1168 537 q 1202 610 1203 575 l 1202 610 m 1352 736 l 1352 613 q 1329 511 1352 557 q 1257 439 1308 467 q 1124 412 1206 412 q 991 439 1042 412 q 918 511 941 467 q 897 613 897 557 l 897 736 q 918 838 897 793 q 991 910 941 884 q 1124 939 1042 937 q 1257 910 1206 937 q 1329 838 1308 884 q 1352 736 1352 793 l 1352 736 m 909 225 l 909 343 l 1337 343 l 1337 225 l 909 225 l 909 225 m 545 0 l 283 601 l 283 0 l 91 0 l 91 925 l 327 925 l 589 294 l 589 925 l 783 925 l 783 0 l 545 0 l 545 0 z "},"™":{"ha":628,"x_min":42,"x_max":579,"o":"m 259 864 l 183 864 l 183 642 l 115 642 l 115 864 l 42 864 l 42 925 l 259 925 l 259 864 l 259 864 m 404 675 l 359 791 l 357 642 l 293 642 l 304 925 l 370 925 l 437 754 l 500 925 l 568 925 l 579 642 l 514 642 l 511 792 l 467 675 l 404 675 l 404 675 z "},"Ω":{"ha":856,"x_min":104,"x_max":751,"o":"m 172 800 l 172 68 l 644 68 l 172 800 l 172 800 m 684 856 l 212 856 l 684 123 l 684 856 l 684 856 m 104 0 l 104 925 l 751 925 l 751 0 l 104 0 l 104 0 z "},"℮":{"ha":1089,"x_min":49,"x_max":1040,"o":"m 545 863 l 545 863 q 381 833 457 863 q 247 753 305 804 l 247 463 l 844 463 l 844 753 q 708 834 784 804 q 545 863 633 863 l 545 863 m 1040 418 l 247 418 l 247 138 q 378 61 302 90 q 545 34 453 34 q 696 53 628 34 q 827 113 765 73 q 949 214 888 153 l 982 180 q 865 81 929 125 q 723 12 802 37 q 545 -14 646 -14 q 292 50 403 -12 q 115 217 180 113 q 49 448 50 321 q 88 628 50 544 q 197 774 127 711 q 354 873 264 838 q 545 910 444 910 q 736 873 647 910 q 894 774 825 838 q 1001 628 962 711 q 1040 448 1040 544 l 1040 418 l 1040 418 z "},"∂":{"ha":799,"x_min":49,"x_max":736,"o":"m 343 155 l 343 155 q 431 172 406 153 q 464 240 457 191 l 492 401 q 446 418 475 411 q 384 425 418 425 q 304 407 328 426 q 271 339 279 388 l 254 240 q 251 225 252 233 q 251 209 251 217 q 270 167 250 179 q 343 155 292 155 l 343 155 m 416 966 l 416 966 q 604 933 533 966 q 705 841 674 901 q 736 694 736 780 q 732 636 736 669 q 724 571 730 605 l 666 245 q 620 104 652 163 q 515 16 587 47 q 315 -14 444 -14 q 159 14 217 -14 q 75 87 100 41 q 49 189 49 132 q 52 217 49 202 q 54 245 53 231 l 71 334 q 109 468 81 410 q 198 559 136 526 q 378 593 260 593 q 454 586 416 593 q 522 568 494 579 l 529 610 q 534 647 533 629 q 536 678 536 663 q 502 766 537 739 q 387 792 468 793 q 293 784 340 792 q 191 760 244 776 l 152 913 q 285 952 216 939 q 416 966 353 966 l 416 966 z "},"∏":{"ha":1093,"x_min":49,"x_max":1046,"o":"m 884 -140 l 684 -140 l 684 741 l 410 741 l 410 -140 l 210 -140 l 210 741 l 49 741 l 49 925 l 1046 925 l 1046 741 l 884 741 l 884 -140 l 884 -140 z "},"∑":{"ha":747,"x_min":77,"x_max":671,"o":"m 84 -140 l 84 45 l 347 400 l 77 741 l 77 925 l 647 925 l 647 741 l 336 741 l 606 404 l 335 45 l 671 45 l 671 -140 l 84 -140 l 84 -140 z "},"∕":{"ha":856,"x_min":104,"x_max":751,"o":"m 172 800 l 172 68 l 644 68 l 172 800 l 172 800 m 684 856 l 212 856 l 684 123 l 684 856 l 684 856 m 104 0 l 104 925 l 751 925 l 751 0 l 104 0 l 104 0 z "},"√":{"ha":949,"x_min":62,"x_max":951,"o":"m 951 1013 l 951 846 l 741 846 l 487 0 l 267 0 l 62 637 l 237 690 l 373 232 l 597 1013 l 951 1013 l 951 1013 z "},"∞":{"ha":1241,"x_min":42,"x_max":1200,"o":"m 1024 389 l 1024 389 q 1008 444 1023 422 q 967 476 991 465 q 917 487 943 487 q 827 460 871 487 q 738 392 784 434 q 827 321 784 347 q 917 296 871 296 q 994 319 966 296 q 1024 389 1023 342 l 1024 389 m 218 389 l 218 389 q 247 319 218 342 q 326 296 277 296 q 414 321 370 296 q 505 392 457 347 q 414 460 457 434 q 326 487 370 487 q 275 476 300 487 q 235 444 251 465 q 218 389 218 422 l 218 389 m 621 500 l 621 500 q 711 574 666 541 q 807 628 757 608 q 917 648 857 648 q 1065 620 1001 648 q 1164 533 1128 590 q 1200 389 1199 476 q 1162 247 1199 304 q 1062 163 1126 191 q 917 134 998 134 q 807 155 857 134 q 711 208 757 175 q 621 281 666 241 q 530 208 576 241 q 435 155 486 175 q 326 134 384 134 q 180 163 244 134 q 80 247 117 191 q 42 389 42 304 q 79 533 42 476 q 178 620 114 590 q 326 648 241 648 q 435 628 384 648 q 530 574 486 608 q 621 500 576 541 l 621 500 z "},"∫":{"ha":570,"x_min":15,"x_max":514,"o":"m 164 735 l 164 735 q 213 888 165 840 q 353 939 260 939 q 435 928 391 937 q 514 903 479 918 l 479 749 q 439 760 460 755 q 404 765 418 765 q 374 754 384 765 q 365 720 365 743 l 365 -84 q 316 -237 363 -189 q 176 -288 269 -288 q 94 -277 138 -286 q 15 -252 50 -267 l 50 -110 q 90 -122 69 -117 q 125 -126 111 -126 q 155 -115 145 -126 q 164 -81 164 -104 l 164 735 l 164 735 z "},"≠":{"ha":730,"x_min":77,"x_max":654,"o":"m 119 20 l 184 146 l 77 146 l 77 281 l 255 281 l 326 416 l 77 416 l 77 549 l 395 549 l 496 743 l 609 685 l 538 549 l 654 549 l 654 416 l 468 416 l 397 281 l 654 281 l 654 146 l 328 146 l 232 -38 l 119 20 l 119 20 z "},"≤":{"ha":715,"x_min":62,"x_max":639,"o":"m 639 0 l 62 0 l 62 133 l 639 133 l 639 0 l 639 0 m 548 187 l 88 433 l 88 536 l 548 774 l 608 662 l 260 484 l 608 300 l 548 187 l 548 187 z "},"≥":{"ha":715,"x_min":77,"x_max":654,"o":"m 654 0 l 77 0 l 77 133 l 654 133 l 654 0 l 654 0 m 628 433 l 168 187 l 109 300 l 456 484 l 109 662 l 168 774 l 628 536 l 628 433 l 628 433 z "},"":{"ha":856,"x_min":104,"x_max":751,"o":"m 172 800 l 172 68 l 644 68 l 172 800 l 172 800 m 684 856 l 212 856 l 684 123 l 684 856 l 684 856 m 104 0 l 104 925 l 751 925 l 751 0 l 104 0 l 104 0 z "}}}
